<svg id="Layer_1" data-name="Layer 1" xmlns="http://www.w3.org/2000/svg" xmlns:xlink="http://www.w3.org/1999/xlink" viewBox="0 0 70 67"><defs><style>.cls-1{fill:#fff;}.cls-2{fill:#3d969e;}.cls-3{mask:url(#mask);}</style><mask id="mask" x="6.13" y="3.22" width="57.06" height="25.05" maskUnits="userSpaceOnUse"><g id="path-4-inside-1_2236_2978" data-name="path-4-inside-1 2236 2978"><path class="cls-1" d="M56.13,4.71A4.56,4.56,0,0,1,60.7,9.26V26.75H8.63V9.26a4.56,4.56,0,0,1,4.56-4.55h43m0-1.49H13.19a6.06,6.06,0,0,0-6.06,6v19H62.19v-19a6.05,6.05,0,0,0-6.06-6Z"/></g></mask></defs><path class="cls-2" d="M44.11,49.72A3.32,3.32,0,1,0,47.43,53,3.33,3.33,0,0,0,44.11,49.72Zm0,5.64A2.32,2.32,0,1,1,46.43,53,2.33,2.33,0,0,1,44.11,55.36Z"/><path class="cls-2" d="M44.23,48.11A1.94,1.94,0,0,1,42.53,46,2.47,2.47,0,0,1,43,44.54l.84.6a1.48,1.48,0,0,0-.24.83c0,.66.35,1.11.67,1.11s.66-.45.66-1.11a1.46,1.46,0,0,0-.25-.86l.82-.62A2.44,2.44,0,0,1,45.92,46,1.93,1.93,0,0,1,44.23,48.11Z"/><path class="cls-2" d="M48.59,51.91a2,2,0,0,1,0-3.89,1.63,1.63,0,0,1,1.21.55l-.68.63a.7.7,0,0,0-.53-.25.94.94,0,0,0-.83,1,.93.93,0,0,0,.83,1,.73.73,0,0,0,.51-.21l.64.67A1.65,1.65,0,0,1,48.59,51.91Z"/><path class="cls-2" d="M40.05,50.07c-.54-1.18-1.63-1.8-2.47-1.41a1.47,1.47,0,0,0-.81,1.21A2.85,2.85,0,0,0,37,51.46,2.35,2.35,0,0,0,39,53a1.24,1.24,0,0,0,.53-.12,1.47,1.47,0,0,0,.81-1.21A2.85,2.85,0,0,0,40.05,50.07Zm-1,1.86c-.23.11-.78-.19-1.11-.9a1.93,1.93,0,0,1-.18-1,.53.53,0,0,1,.22-.42l.1,0c.27,0,.72.31,1,.93a1.93,1.93,0,0,1,.18,1A.51.51,0,0,1,39.08,51.93Z"/><path class="cls-2" d="M6.13,28.24v0H63.19v0Z"/><g class="cls-3"><path class="cls-2" d="M6.13,28.24v0H62.19v0Zm56.06,0v0h1v0Zm-55.06,0v0H62.19v0Z"/></g><path class="cls-2" d="M67,26.86H65.56V7.92A7.94,7.94,0,0,0,57.62,0h-46A7.94,7.94,0,0,0,3.63,7.92V26.86H3a3,3,0,0,0-1.15,5.81v29.1A5.25,5.25,0,0,0,7.13,67H62.87a5.25,5.25,0,0,0,5.25-5.24V32.67A3,3,0,0,0,67,26.86ZM5.06,7.92a6.52,6.52,0,0,1,6.52-6.5h46a6.51,6.51,0,0,1,6.51,6.5V26.65H62.19V9.26a6,6,0,0,0-6-6H13.19a6.06,6.06,0,0,0-6.06,6V26.65H5.06ZM60.7,9.26V26.65H8.63V9.26a4.56,4.56,0,0,1,4.56-4.55h43A4.56,4.56,0,0,1,60.7,9.26Zm6,52.51a3.82,3.82,0,0,1-3.82,3.81H7.13a3.82,3.82,0,0,1-3.81-3.81V33H66.68ZM67,31.48H3a1.61,1.61,0,1,1,0-3.21h3.1v0H63.19v0H67a1.61,1.61,0,1,1,0,3.21Z"/><path class="cls-2" d="M58,50.63c-2.41-7-15.27-15.39-15.82-15.75L42,34.82a2.6,2.6,0,0,0-2.64.37c-1,1-.74,2.89-.63,3.46h0L35.8,46.25a6.6,6.6,0,0,0-.43-1.94,5.37,5.37,0,0,0-3.56-3.16,9.42,9.42,0,0,0-4.58-.24,3.73,3.73,0,0,0-1.11.44,2.9,2.9,0,0,0-.29.19V35.78h-1V36.9a7.83,7.83,0,0,0-6.69-1.74l-.56.14.21.54a7.31,7.31,0,0,0,4.74,4.67,10,10,0,0,0-1.21,0,5.2,5.2,0,0,0-2.41.57c-.13.07-3.3,1.71-3.3,3.94h1c0-1.35,2-2.66,2.77-3.06a4.4,4.4,0,0,1,2-.45,4.49,4.49,0,0,1,1.75.21,5.16,5.16,0,0,1,.51.35,2.84,2.84,0,0,0,1.83.72,1.85,1.85,0,0,0,.95-.39,2.29,2.29,0,0,1,.23-.16,2.7,2.7,0,0,1,.82-.31,8.35,8.35,0,0,1,4.05.21,4.34,4.34,0,0,1,2.93,2.58c1.44,3.63-1.41,9.44-2,10.52l-.17,0c-.38-.09-.84-.24-1.32-.38a10,10,0,0,0-3.87-.69h-.05l-.08,0a2.69,2.69,0,0,0-.55.17,5.3,5.3,0,0,0-2.71,2.33l-3-2.68-.12,0a2.27,2.27,0,0,0-2.1.37c-1-1.35-2.93-4.47-2.45-7.32l-1-.17c-.62,3.73,2.23,7.62,3,8.61a3.7,3.7,0,0,0,.06.63H16.22l-.13.1a2.25,2.25,0,0,0-1,1.71,1.92,1.92,0,0,0,1.06,1.54l.11.07,1.9.05-.05.09-.13.23a2.67,2.67,0,0,0-.35.78,2.5,2.5,0,0,0,.08,1.33,1.64,1.64,0,0,0,.44.68,1.15,1.15,0,0,0,.8.3,2.41,2.41,0,0,0,1.15-.36c1.33-.75,2.65-1.45,3.38-1.84a5.26,5.26,0,0,0,2,2.84,4.1,4.1,0,0,0,2.07.45c.42,0,.84,0,1.23-.06s.62,0,.91,0h.61l4.26-.07,6.7-.1h.6c1.56,0,3.89.06,4.25-2.24a3,3,0,0,0-.65-2.19A4.19,4.19,0,0,0,44.09,58l9.83-4a5.38,5.38,0,0,0,1.84.39,2.27,2.27,0,0,0,1.51-.5C58.46,52.92,58,50.78,58,50.63Zm-33.14-9a4.76,4.76,0,0,1-.61-.39,6.44,6.44,0,0,0-.62-.4l-.24-.12a6.8,6.8,0,0,0,1,.08l.44,0Zm0-1.85c-.84.1-4,.17-5.85-3.71a6.6,6.6,0,0,1,5.85,2.29Zm-1.58,20c-.67.36-2.13,1.13-3.6,2-.28.16-.65.32-.8.18a.58.58,0,0,1-.15-.26,1.38,1.38,0,0,1-.05-.78,1.53,1.53,0,0,1,.23-.49A2.54,2.54,0,0,0,19,60l.78-1.51-3.21-.08a1,1,0,0,1-.48-.65,1.16,1.16,0,0,1,.43-.78H19.5l-.22-.65c-.22-.69-.24-1.2,0-1.4s.71-.19,1-.14l3.06,2.77a4.45,4.45,0,0,0-.15.9A5.16,5.16,0,0,0,23.25,59.71Zm15.37-18a2.46,2.46,0,0,1,1.92.64A2.87,2.87,0,0,1,40.76,45a2.8,2.8,0,0,1-1.5,2.11,3.38,3.38,0,0,1-2.59-.37ZM34.47,53.18c.83.19,3.06.92,3.13,3.2l-4.13-1C33.7,55,34.08,54.17,34.47,53.18Zm10.28,6.7a2,2,0,0,1,.45,1.43C45,62.64,43.72,62.73,42,62.7h-.62l-2.63,0V61.05h-1v1.7l-3,0-1.4,0V61.59h-1v1.25l-1.84,0h-.23V60.42h-1v2.49l-.31,0a5,5,0,0,1-2.73-.26c-1.14-.65-2-2.78-1.9-4.11a4,4,0,0,1,2.62-3.35l.28-.11.18,0a4.06,4.06,0,0,1,1.23.06v3.18h1V55.38l1.17.35c.51.16,1,.31,1.4.4l1.56.36v1.79h1V56.73l6.6,1.52v3.11h1V58.49A3.53,3.53,0,0,1,44.75,59.88Zm-2.13-2.34h0l-.31-.08-3.68-.84a4.51,4.51,0,0,0-3.79-4.42,20.42,20.42,0,0,0,.72-2.54h0l.74-1.91a5.2,5.2,0,0,0,2.2.57,3,3,0,0,0,1.14-.21,3.75,3.75,0,0,0,2.13-2.81,3.79,3.79,0,0,0-.44-3.6,3.27,3.27,0,0,0-2.31-1l.51-1.31c2.23,1.27,11.38,6.83,13.79,13.83Zm14-4.39c-.52.44-1.49.24-2.28,0-2.57-7.88-12.86-13.8-14.59-14.74-.11-.63-.21-1.89.35-2.42a1.62,1.62,0,0,1,1.58-.15c1,.66,13.13,8.78,15.32,15.12C57.07,51.33,57.2,52.64,56.6,53.15Z"/><path class="cls-2" d="M42.35,17.39l-1.56.76.65.37a.65.65,0,0,1,.25.9.66.66,0,0,1-.58.35.62.62,0,0,1-.32-.09l-.55-.31.21,1.32a.66.66,0,0,1-.55.77h-.1a.69.69,0,0,1-.67-.56l-.37-2.38h0l-3.52-2v3.77l2.19,1.49a.67.67,0,0,1,.17.93A.67.67,0,0,1,37,23a.68.68,0,0,1-.38-.12l-1.43-1v.75a.67.67,0,0,1-1.33,0v-.63l-1,.84a.68.68,0,0,1-.94-.11.66.66,0,0,1,.11-.93l1.88-1.51V16.58l-3.13,1.76L30.53,21a.66.66,0,0,1-.66.6h-.06a.65.65,0,0,1-.6-.72l.15-1.73-.74.41a.62.62,0,0,1-.32.09.65.65,0,0,1-.58-.34.67.67,0,0,1,.25-.91L28.6,18l-1.24-.5a.65.65,0,0,1-.37-.86.68.68,0,0,1,.87-.38l2.23.91,3.14-1.77-3-1.71L28,14.63a.73.73,0,0,1-.25,0,.67.67,0,0,1-.25-1.28l1.25-.5-.63-.36a.66.66,0,1,1,.65-1.16l.73.41-.15-1.73a.66.66,0,0,1,.6-.72.68.68,0,0,1,.73.6l.23,2.64,3,1.7V10.54L32,9a.67.67,0,0,1-.11-.94.68.68,0,0,1,.94-.1l1,.83V8.11a.67.67,0,0,1,1.33,0V9l1.43-1a.67.67,0,0,1,.93.17.66.66,0,0,1-.18.93l-2.18,1.5V14.3l3.4-1.91L39,10a.67.67,0,0,1,1.32.22l-.21,1.32.55-.31a.66.66,0,0,1,.65,1.16l-.65.37,1.55.76a.67.67,0,0,1-.29,1.27.73.73,0,0,1-.29-.07l-2.39-1.17L36,15.43l3.43,1.93,2.38-1.17a.66.66,0,0,1,.89.3A.68.68,0,0,1,42.35,17.39Z"/></svg>