<svg width="32" height="78" viewBox="0 0 32 78" fill="none" xmlns="http://www.w3.org/2000/svg">
<g clip-path="url(#clip0_1962_14953)">
<path d="M32 46.0285C32 41.2864 31.1268 36.7667 29.0577 32.5322C26.5994 27.5001 25.5459 22.12 24.9812 16.6287C24.8483 15.3332 24.4591 13.9797 24.4591 12.6407C24.4591 11.9978 24.5493 11.3549 24.8008 10.7265C25.6076 8.71554 25.7357 6.66113 25.7357 4.57771C25.7357 3.87196 25.7215 3.16621 25.712 2.45563C25.6788 0.831433 24.9337 0.0145017 23.2917 0C20.8477 0 18.4084 0 15.9692 0C13.5299 0 11.1001 0 8.66083 0.00483391C7.02358 0.0193356 6.29749 0.845935 6.26902 2.4798C6.25953 3.28706 6.24055 4.08949 6.24055 4.89192C6.24055 6.83032 6.37817 8.73488 7.2229 10.5524C7.41747 10.973 7.46018 11.4032 7.46018 11.8237C7.46018 12.0654 7.44594 12.3023 7.4412 12.5392C7.21341 19.6257 5.88937 26.4415 2.77621 32.8561C0.868456 36.7764 0 40.9384 0 45.3083C0 45.4823 0 45.6563 0.00474566 45.8303C0.028474 47.4932 0.0379653 49.1561 0.0379653 50.8141C0.0379653 53.4051 0.0189826 55.996 0.0189826 58.587C0.0189826 61.5695 0.0189826 64.5521 0.0189826 67.5346C0.0189826 69.5213 0.0189826 71.5129 0.0189826 73.4996C0.0189826 75.1673 0.313214 76.284 0.982352 76.9752C1.65149 77.6713 2.72876 77.9758 4.34703 77.9807C8.12457 77.9855 11.9069 77.9903 15.6844 77.9903C19.666 77.9903 23.6524 77.9903 27.634 77.9807C29.257 77.9807 30.3343 77.6761 31.0082 76.98C31.682 76.284 31.9763 75.1722 31.9763 73.5093C31.9763 73.1516 31.9763 72.7939 31.9763 72.4362C31.9763 67.4234 31.962 62.4058 31.962 57.393C31.962 53.7193 31.9715 50.0455 32.0047 46.3766C32.0047 46.2557 32.0047 46.1397 32.0047 46.0237L32 46.0285ZM8.55643 2.44113C8.76049 2.22843 9.09269 2.11242 9.6242 2.11242H9.65268C11.7692 2.12692 13.8858 2.13659 16.0024 2.13659C18.1189 2.13659 20.2355 2.12692 22.3473 2.11242H22.3758C22.9026 2.11242 23.2395 2.22843 23.4436 2.44113C23.6476 2.65382 23.6951 2.93902 23.6951 3.22422C23.6951 3.56259 23.6287 3.92514 23.6287 4.22967V4.36986C23.6524 4.61639 23.6856 4.87742 23.6856 5.12878C23.6856 5.41882 23.6429 5.70402 23.4578 5.92154C23.2727 6.13907 22.9595 6.25992 22.4802 6.25992H22.3521C21.5026 6.22124 20.6531 6.21158 19.8036 6.21158C18.5413 6.21158 17.2742 6.23575 16.0071 6.23575C14.74 6.23575 13.4729 6.21158 12.2106 6.21158C11.3611 6.21158 10.5116 6.22124 9.66217 6.25508H9.52929C9.04523 6.25508 8.73676 6.13423 8.54694 5.92154C8.36186 5.70402 8.31915 5.41882 8.31915 5.12878C8.31915 4.87742 8.35236 4.61639 8.37135 4.36986V4.22967C8.37135 3.92514 8.30965 3.56259 8.30965 3.22422C8.30965 2.93902 8.35711 2.65382 8.56117 2.44113H8.55643ZM9.10218 9.13609C9.10218 8.87023 9.15913 8.68171 9.27302 8.56569C9.38692 8.44484 9.54353 8.41101 9.69539 8.41101C9.98487 8.41101 10.3076 8.52702 10.5021 8.52219H10.5211C11.3516 8.49318 12.1821 8.48351 13.0126 8.48351C14.0044 8.48351 14.9915 8.49318 15.9834 8.49318C16.9752 8.49318 17.9813 8.48835 18.9826 8.48835C19.9175 8.48835 20.8572 8.48835 21.7921 8.51252C21.9439 8.51252 22.167 8.45451 22.3758 8.45451C22.5039 8.45451 22.6416 8.47868 22.7507 8.57536C22.8551 8.67204 22.9121 8.83156 22.9121 9.04908V9.12643C22.8836 9.78384 22.4185 10.1174 21.7826 10.1077H21.7304C21.308 10.098 20.8904 10.0932 20.4728 10.0932C19.7799 10.0932 19.0871 10.1029 18.3894 10.1029H17.6301C16.4152 10.1029 15.1956 10.1029 13.9807 10.1029C12.8702 10.1029 11.755 10.1029 10.6445 10.1029H10.4405C10.132 10.1029 9.81403 10.0932 9.55302 9.96753C9.29675 9.84668 9.12116 9.58565 9.11167 9.1796V9.15543C9.11167 9.15543 9.11167 9.1506 9.11167 9.14576V9.13126L9.10218 9.13609ZM18.2898 42.7076C18.2755 42.2436 18.1664 42.0115 18.0193 41.8858C17.8722 41.7602 17.6586 41.7263 17.4118 41.7263C17.2315 41.7263 17.0369 41.7408 16.8329 41.7408C14.46 41.736 12.0872 41.707 9.71437 41.707C7.91102 41.707 6.10292 41.7215 4.30432 41.7747H4.12873C3.56874 41.7747 3.17959 41.6925 2.91858 41.4991C2.65757 41.3058 2.55317 41.0012 2.55317 40.629C2.55317 40.3583 2.60537 40.0441 2.69079 39.6816C3.31722 37.0471 4.23788 34.519 5.36734 32.0778C7.87305 26.6494 9.03574 20.9018 9.42014 14.9513C9.51031 13.6606 9.53403 13.0032 9.91843 12.6262C10.3123 12.2636 10.9625 12.283 12.2296 12.2781H12.2865C13.8953 12.2781 15.5088 12.3071 17.1176 12.3071C18.2518 12.3071 19.3908 12.2926 20.5202 12.2395H20.7433C21.4124 12.2346 21.8728 12.3893 22.167 12.7374C22.4565 13.0854 22.5656 13.5881 22.5988 14.26C22.8409 19.2921 23.6571 24.2372 25.209 29.0276C26.1961 32.0778 27.9235 34.8477 28.8252 37.98C29.1906 39.2562 29.4326 40.0828 29.4326 40.6435C29.4421 41.1656 29.1811 41.4798 28.6638 41.6006C28.1465 41.7263 27.3635 41.7263 26.2008 41.7263H26.1628C25.6171 41.7263 25.0713 41.736 24.5256 41.736C24.1886 41.736 23.8517 41.736 23.51 41.7215H23.3059C22.9737 41.7167 22.7222 41.7602 22.5609 41.9003C22.3995 42.0357 22.2999 42.2822 22.2999 42.7463V42.756C22.2999 43.2393 22.3995 43.5004 22.5704 43.6406C22.7365 43.7856 23.007 43.8387 23.3866 43.8387H23.491C23.8612 43.8291 24.2313 43.8291 24.5968 43.8291C25.3608 43.8291 26.1249 43.8387 26.8889 43.8387C27.4015 43.8387 27.9187 43.8387 28.4313 43.8194H28.5357C28.958 43.8194 29.276 43.9016 29.4848 44.1288C29.6936 44.3511 29.7695 44.6847 29.7695 45.1342V45.1536C29.76 48.1071 29.7553 51.0606 29.7553 54.0141C29.7553 57.4752 29.7648 60.9315 29.7885 64.3925V64.4022V64.407V64.4167C29.7885 64.9823 29.6414 65.3255 29.3662 65.5092C29.0909 65.688 28.735 65.7025 28.3269 65.7025H28.2652C26.272 65.6929 24.2788 65.6929 22.2856 65.6929C20.1596 65.6929 18.0335 65.6929 15.9075 65.6929C13.7814 65.6929 11.5082 65.6832 9.31573 65.6832C7.45543 65.6832 5.59039 65.688 3.73009 65.7122H3.67314C3.16061 65.7122 2.79519 65.63 2.54842 65.3883C2.30639 65.1418 2.22097 64.7648 2.22097 64.2234V64.1847C2.23995 61.0185 2.25419 57.8523 2.25419 54.686C2.25419 51.5198 2.2447 48.4358 2.22097 45.3083V45.2744C2.22097 44.7185 2.32063 44.3415 2.58164 44.1094C2.83791 43.8774 3.21281 43.8146 3.71111 43.8146H3.76806C5.67107 43.8339 7.57408 43.8387 9.47709 43.8387C11.2567 43.8387 13.0363 43.8387 14.816 43.8387C15.4898 43.8387 16.1637 43.8387 16.8329 43.8387C16.9468 43.8387 17.0654 43.8387 17.1745 43.8387C17.5162 43.8387 17.8057 43.8146 17.9955 43.6841C18.1854 43.5535 18.3135 43.307 18.3135 42.785V42.7028L18.2898 42.7076ZM29.779 73.5528L29.7885 73.8815C29.7885 74.5921 29.6082 75.1045 29.2285 75.4284C28.8489 75.7522 28.2936 75.8828 27.5676 75.8828H27.5248C24.8957 75.8634 22.2714 75.8586 19.6423 75.8586C16.3963 75.8586 13.1502 75.8682 9.9042 75.8682C8.56117 75.8682 7.21815 75.8634 5.87988 75.8634C5.28192 75.8634 4.68871 75.8634 4.09076 75.8634C3.47857 75.8634 3.004 75.7281 2.6813 75.4235C2.35859 75.119 2.20673 74.6549 2.21148 74.0362V73.9008C2.23995 73.0984 2.26368 72.296 2.26368 71.4936C2.26368 70.8023 2.24944 70.1111 2.20199 69.4246L2.1925 69.1829C2.1925 68.6609 2.33012 68.3128 2.61011 68.1098C2.89011 67.9116 3.27451 67.8633 3.75382 67.8585H3.84399C5.6853 67.8826 7.52662 67.8875 9.37268 67.8875C11.6411 67.8875 13.9095 67.8778 16.178 67.8778C18.4464 67.8778 20.5772 67.8923 22.7744 67.8923C24.5113 67.8923 26.2435 67.8826 27.9804 67.8488H28.118C28.6496 67.8488 29.0672 67.9068 29.3662 68.1195C29.6651 68.3322 29.8122 68.7044 29.8122 69.2458C29.8122 69.357 29.8075 69.4827 29.7933 69.6132C29.7363 70.2367 29.7126 70.87 29.7126 71.5032C29.7126 72.1848 29.7411 72.8664 29.7885 73.5431L29.779 73.5528Z" fill="#728792"/>
<path d="M4.85406 56.5439H4.88728C5.2527 56.5439 5.50422 56.4811 5.65133 56.3506C5.79845 56.22 5.87912 56.0074 5.87912 55.6496V55.5095C5.85065 55.0792 5.8459 54.649 5.8459 54.2236C5.8459 53.5759 5.86014 52.9233 5.86014 52.2756C5.86014 51.594 5.8459 50.9124 5.8459 50.226C5.8459 49.7716 5.85065 49.3172 5.86963 48.8628V48.771C5.86963 48.4278 5.7937 48.2344 5.65608 48.1184C5.51845 48.0024 5.29066 47.9492 4.95846 47.9492H4.91575C4.55508 47.9492 4.25611 47.9782 4.06628 48.0942C3.8812 48.2102 3.76256 48.4133 3.76256 48.8532V48.8773V48.8822C3.77205 49.9553 3.78154 51.0284 3.78154 52.1015C3.78154 53.2424 3.77205 54.3832 3.75781 55.524V55.5336V55.5626C3.75781 55.9735 3.85273 56.2007 4.01882 56.3409C4.18967 56.4811 4.46017 56.5391 4.84457 56.5439H4.85406Z" fill="#728792"/>
<path d="M5.85401 60.7884C5.85401 60.5708 5.88248 60.3436 5.88248 60.1454C5.88248 59.9231 5.84926 59.7394 5.72113 59.6089C5.593 59.4784 5.35097 59.3769 4.89064 59.3672H4.81945C4.3354 59.3672 4.07438 59.4784 3.93201 59.6331C3.78964 59.7877 3.74693 60.0149 3.74693 60.2905C3.74693 60.5128 3.77541 60.7594 3.78964 61.0011V61.1171C3.78964 61.4023 3.74219 61.702 3.74219 61.9678C3.74219 62.2337 3.7849 62.4464 3.93676 62.6011C4.08388 62.7558 4.36387 62.8669 4.8764 62.8669C5.34622 62.8669 5.593 62.7654 5.71638 62.6301C5.84452 62.4947 5.87774 62.3062 5.87774 62.0693C5.87774 61.876 5.85401 61.6585 5.85401 61.4458C5.85401 61.3346 5.8635 61.2186 5.88723 61.1122C5.85875 61.0059 5.84926 60.8947 5.84926 60.7835L5.85401 60.7884Z" fill="#728792"/>
</g>
<defs>
<clipPath id="clip0_1962_14953">
<rect width="32" height="78" fill="white"/>
</clipPath>
</defs>
</svg>
