<svg width="70" height="71" viewBox="0 0 70 71" fill="none" xmlns="http://www.w3.org/2000/svg">
<g clip-path="url(#clip0_1962_14916)">
<path d="M69.6294 14.2445C69.6294 14.8762 69.5894 15.5079 69.6394 16.1345C69.8042 18.2538 69.7742 20.0062 66.9828 20.4647C65.265 20.75 64.2613 22.8234 64.4211 24.6013C64.6008 26.5423 65.5946 28.0196 67.4722 28.4068C69.2748 28.7787 69.6743 29.711 69.6294 31.4227C69.5195 35.8904 69.5095 40.3633 69.6044 44.831C69.6394 46.5427 69.12 47.4138 67.4722 47.9844C48.8361 54.4644 30.225 61.0158 11.609 67.5416C8.52294 68.6216 5.4419 69.7067 2.34588 70.7562C0.643071 71.3318 0.0488348 70.909 0.0188733 69.0954C-0.0210753 66.9558 0.0438412 64.8111 -0.00609461 62.6714C-0.0360561 61.4335 0.318488 60.761 1.64179 60.435C3.80401 59.9103 4.93256 58.2699 4.91258 56.2169C4.89261 54.1435 3.78903 52.7273 1.53193 52.1057C0.483276 51.8205 -0.00609461 51.311 -0.00110103 50.1546C0.033854 44.8667 0.0238669 39.5736 -0.00110103 34.2857C-0.00110103 33.4604 0.308501 32.8644 0.82284 32.2785C9.82627 21.9981 18.8197 11.7075 27.7982 1.40674C28.4024 0.713907 29.0615 0.235038 29.9903 0.184094C41.3507 -0.406851 52.5414 0.224849 63.1327 5.06449C63.692 5.3192 64.2363 5.61977 64.8056 5.86939C68.4159 7.46393 70.9826 9.67487 69.6294 14.2445ZM67.4722 15.0189C67.4788 12.56 66.4318 11.6973 64.3312 12.4309C64.2713 12.4513 64.2113 12.4615 64.1514 12.4819C43.9874 19.6598 23.8233 26.853 3.64921 34.0055C2.54562 34.3978 2.12117 34.9429 2.14114 36.1604C2.21605 40.1901 2.20107 44.2248 2.14614 48.2544C2.13116 49.3446 2.45574 49.9101 3.47443 50.3686C5.91629 51.4588 7.09977 53.5169 7.13972 56.2067C7.17967 58.8252 6.10605 60.9495 3.76406 62.0295C2.35088 62.6816 2.01131 63.5477 2.16112 64.918C2.22104 65.4784 2.21106 66.0541 2.16112 66.6196C2.04627 67.9594 2.34089 68.4535 3.79402 67.8779C6.37071 66.8488 9.02729 66.0235 11.6439 65.1065C29.6308 58.7997 47.6177 52.4776 65.6195 46.2116C66.9578 45.748 67.4272 45.0857 67.3923 43.6542C67.3174 40.0678 67.3473 36.4712 67.4522 32.8848C67.4921 31.5093 67.1426 30.7808 65.8093 30.2051C63.5322 29.2219 62.3587 27.2759 62.2339 24.7083C62.1091 22.0796 63.0029 19.7617 65.3349 18.7581C67.4172 17.8666 67.7268 16.5726 67.4622 15.0239L67.4722 15.0189ZM66.1389 9.35393C65.6096 8.99733 65.4597 8.89034 65.3049 8.79355C64.8805 8.53883 64.461 8.26883 64.0216 8.04468C53.5401 2.68542 42.3345 1.74806 30.8642 2.42561C29.9704 2.47655 29.4261 3.00127 28.8768 3.62788C22.3152 11.1624 15.7437 18.6817 9.17211 26.2061C7.91872 27.6427 6.66533 29.0793 5.41194 30.5159C5.49184 30.6432 5.57173 30.7655 5.65163 30.8929C25.6659 23.7659 45.6802 16.6389 66.1339 9.34884L66.1389 9.35393Z" fill="#E9A715"/>
<path d="M37.0699 46.9782C37.1648 48.8122 36.6904 50.478 35.6068 51.935C33.4196 54.8694 29.6894 54.7624 27.6819 51.7007C26.3037 49.5916 26.0141 47.2737 26.6483 44.8386C27.4772 41.6495 29.5595 39.9123 32.2361 40.1365C34.5531 40.3301 36.6704 42.7805 36.995 45.6639C37.0449 46.102 37.0449 46.5452 37.0699 46.9833V46.9782ZM34.8877 46.9986C34.8627 44.6297 33.4695 42.4595 31.8965 42.3373C30.3036 42.215 28.7705 44.1967 28.5508 46.6675C28.3361 49.0924 29.939 51.7414 31.6668 51.8178C33.3497 51.8892 34.9176 49.5407 34.8927 46.9986H34.8877Z" fill="#E9A715"/>
<path d="M17.8182 42.1068C17.8332 45.8358 15.6959 48.6785 12.8596 48.6989C10.0681 48.7192 7.82103 45.7849 7.83601 42.1424C7.83601 41.577 7.846 41.0013 7.96585 40.4562C8.64497 37.3996 10.927 35.3618 13.284 35.6573C15.9056 35.9884 17.8032 38.6885 17.8132 42.1119L17.8182 42.1068ZM15.641 42.2494C15.6659 39.9722 14.3826 37.9702 12.8795 37.9396C11.3465 37.909 9.88837 40.1454 9.99823 42.3615C10.1081 44.5622 11.4514 46.4268 12.8995 46.3911C14.3476 46.3555 15.616 44.44 15.641 42.2494Z" fill="#E9A715"/>
<path d="M60.7288 39.1924C60.8386 40.8633 60.2694 42.4222 59.0659 43.7009C57.2782 45.6011 54.5966 45.4432 52.9438 43.3596C51.5805 41.6326 51.2509 39.6101 51.6904 37.5011C52.2646 34.745 54.352 32.8958 56.4692 33.1199C58.9261 33.3797 60.7188 35.8913 60.7238 39.1975L60.7288 39.1924ZM58.5715 39.1109C58.5865 37.1292 57.418 35.4073 56.0897 35.4582C54.8463 35.5041 53.7178 37.2158 53.7228 39.0548C53.7278 40.9856 54.9612 42.8094 56.2196 42.7483C57.433 42.6922 58.5566 40.9499 58.5715 39.1109Z" fill="#E9A715"/>
<path d="M37.3943 29.8944C37.3443 28.1878 37.8037 26.6646 39.0022 25.4369C40.7999 23.5927 43.5913 23.8372 45.0694 26.0278C46.2828 27.8261 46.5775 29.8231 45.9283 31.9424C45.1593 34.4488 43.6163 35.6969 41.4141 35.5339C39.4516 35.3912 37.7838 33.5675 37.4792 31.2037C37.4242 30.7707 37.4192 30.3275 37.3943 29.8893V29.8944ZM39.5815 29.9759C39.6064 31.815 40.715 33.4095 41.8985 33.3127C42.9971 33.2261 43.9958 31.6265 44.0158 29.9301C44.0357 28.1624 42.9222 26.4608 41.7637 26.4812C40.6101 26.4965 39.5565 28.1827 39.5815 29.9759Z" fill="#E9A715"/>
<path d="M41.4597 15.5004C38.7382 15.5055 37.0703 13.911 37.0703 11.3077C37.0703 7.88943 40.1763 4.88377 43.7318 4.86339C46.4383 4.84811 48.1361 6.46811 48.1361 9.06114C48.1361 12.4642 44.9951 15.4953 41.4647 15.5004H41.4597ZM41.2649 13.2894C43.5869 13.2793 46.0837 10.9308 45.9539 9.03566C45.854 7.66019 44.9851 7.1049 43.6968 7.11C41.6494 7.12019 39.2775 9.22925 39.2475 11.1396C39.2275 12.6476 40.1813 13.1927 41.2649 13.2894Z" fill="#E9A715"/>
<path d="M23.3837 22.2765C21.2914 22.2663 19.7933 20.8347 19.7583 18.8225C19.7134 16.2091 22.5647 13.4072 25.2413 13.4377C27.2737 13.4581 28.8017 14.961 28.8317 16.963C28.8716 19.6783 26.1901 22.2968 23.3837 22.2765ZM26.5346 17.014C26.4947 16.2091 26.0303 15.7913 25.1314 15.8015C23.7582 15.8117 22.2002 17.2585 22.1303 18.5881C22.0804 19.5255 22.5348 19.9993 23.4037 20.0553C24.7469 20.1368 26.5246 18.4557 26.5396 17.0191L26.5346 17.014Z" fill="#E9A715"/>
</g>
<defs>
<clipPath id="clip0_1962_14916">
<rect width="70" height="71" fill="white"/>
</clipPath>
</defs>
</svg>
