<svg width="85" height="79" viewBox="0 0 85 79" fill="none" xmlns="http://www.w3.org/2000/svg">
<g clip-path="url(#clip0_1962_14886)">
<path d="M9.61406 19.3957C3.02995 28.4852 0 39.5086 0 49.5163C0 50.882 0.0576037 52.2306 0.167051 53.5504C0.714286 60.0347 2.62097 66.0198 6.54378 71.2991C10.0461 76.0275 15.9389 79.0057 21.8548 79.0057C27.5979 78.9885 33.3353 76.28 37.2177 69.5489C38.7039 66.9609 39.7696 64.1778 40.72 61.2857C41.4343 59.1109 42.2696 57.4926 43.5657 56.3966C44.8675 55.3006 46.5265 54.8759 48.5369 54.8817H48.5945C49.1302 54.8817 49.6947 54.9104 50.288 54.962C52.0622 55.117 53.8249 55.1916 55.5876 55.1916C58.9747 55.1916 62.3445 54.8989 65.697 54.2849C76.273 52.3224 83.0415 45.9815 84.5219 36.9091C84.8387 34.9122 85 32.9611 85 31.0732C84.9712 17.7201 77.2581 7.13852 63.6348 2.40437C60.4147 1.29113 56.9412 0.849277 53.4505 0H44.2569C43.606 0.304133 42.9493 0.436115 42.356 0.493499C41.682 0.556621 41.0714 0.562359 40.576 0.654173C26.2846 3.10445 16.1982 10.3004 9.61406 19.3957ZM48.773 2.65686C54.9482 2.65686 61.129 4.03981 67.2235 7.03523C77.6094 12.1079 82.1659 21.0196 82.1544 30.9068V30.9412V30.9699C82.1544 32.6111 82.0334 34.281 81.803 35.9738C81.1924 40.421 79.2684 44.0534 76.2154 46.7045C73.1682 49.3556 69.0438 51.0312 64.0553 51.7887C61.803 52.1273 59.5564 52.2822 57.3099 52.2822C56.106 52.2822 54.9021 52.2363 53.6982 52.156C52.7362 52.156 51.7396 52.1961 50.72 52.1961C50.1152 52.1961 49.4988 52.1789 48.871 52.1273C48.5023 52.0928 48.1452 52.0814 47.7938 52.0814C45.8065 52.0814 44.1878 52.5691 42.8053 53.4758C41.4286 54.3882 40.2707 55.7482 39.326 57.5844C38.6175 58.9617 38.0876 60.4995 37.5576 62.0604C36.7915 64.3041 35.8756 66.5133 34.5795 68.5849C31.4574 73.6002 26.538 76.2513 21.4977 76.2513C17.2926 76.2513 13.0472 74.4093 9.73502 70.7425C5.86982 66.4617 4.04378 61.2627 3.22581 55.84C2.92627 53.8602 2.7765 51.7944 2.7765 49.6655C2.7765 41.7982 4.82719 33.1161 9.15899 25.3922C13.485 17.6684 20.1152 10.9029 29.2454 6.98358C35.7028 4.20622 42.235 2.6626 48.7788 2.6626L48.773 2.65686Z" fill="#C3271B"/>
<path d="M76.9895 32.7334C77.2832 31.3963 77.4272 30.1167 77.4272 28.9001C77.4157 23.3225 74.501 18.8523 69.4837 15.2428C63.2049 10.7612 56.1484 8.53471 47.0701 8.32812C39.6392 8.81015 31.615 11.4842 24.2245 16.1151C23.3719 16.643 22.5655 17.4119 21.8339 18.2383C20.4975 19.7417 19.9042 21.2911 19.8984 22.7658C19.8984 24.5619 20.7855 26.3408 22.7153 27.8845C23.9192 28.837 25.2671 29.4855 26.7878 29.8814C31.5517 31.1324 36.0793 32.9686 40.4514 35.132C44.0171 36.8937 47.1277 39.2235 49.5931 42.5919C52.1968 46.1324 55.463 47.9228 59.3454 47.9343C60.5206 47.9343 61.759 47.7621 63.0551 47.4121C70.6646 45.3061 75.2671 40.3367 76.9895 32.7276V32.7334ZM62.0586 44.8298C61.1542 45.0594 60.2613 45.1799 59.3858 45.1799C56.471 45.1799 53.827 43.8371 52.1335 41.3237C48.5505 36.0616 43.2913 33.2441 37.4964 30.7192C34.3397 29.342 31.1139 28.1771 27.7844 27.3164C27.577 27.259 27.2832 27.2016 26.9491 27.0696C26.1715 26.754 25.2729 26.4097 24.4722 25.8416C23.7809 25.3538 23.1761 24.6251 22.8996 23.6668L22.8132 23.7069L22.7671 23.179L22.6577 22.7314H22.7325C22.7325 22.6912 22.721 22.6396 22.721 22.5994C22.721 21.5493 23.1761 20.6713 23.7579 20.0172C24.3397 19.3515 25.0424 18.858 25.6876 18.4449C32.4618 14.1353 39.91 11.817 47.1623 11.0252L47.2372 11.0137H47.2717H47.312C55.4745 11.3063 62.4906 13.3836 68.539 17.9686C72.2429 20.7574 74.6162 24.4587 74.6277 28.9231V28.9403V28.9862C74.6277 30.1109 74.4837 31.2816 74.1784 32.4924C73.3892 35.6255 71.9837 38.3053 69.9503 40.4056C67.9169 42.5058 65.2556 44.0035 62.0471 44.8241L62.0586 44.8298Z" fill="#C3271B"/>
<path d="M21.7987 70.3301C22.3978 70.4219 22.9681 70.4621 23.5153 70.4621C26.6259 70.4391 28.9588 69.125 30.9231 66.3075C32.369 64.2073 32.9335 61.6824 33.5326 58.9911C34.2641 55.6456 36.1247 52.8453 39.5176 51.3361C40.8022 50.7566 41.7296 50.1196 42.2883 49.4884C42.8529 48.8399 43.0775 48.2604 43.089 47.5718C43.089 46.6364 42.5879 45.4084 41.3436 43.9394C35.1916 36.6574 27.4496 32.1643 17.9047 31.1314C17.4842 31.0855 17.0867 31.0625 16.7008 31.0625C14.6789 31.0625 13.089 31.6421 11.8218 32.6979C10.5602 33.7595 9.59825 35.3433 9.01645 37.4608C7.8471 41.7186 7.2077 46.0511 7.15009 50.4524C7.15009 50.9918 7.13281 51.514 7.13281 52.0133C7.13281 52.3002 7.13857 52.5871 7.15585 52.8625C7.48419 58.0385 8.93005 62.0496 11.3609 64.9303C13.7976 67.811 17.2365 69.63 21.8102 70.3244L21.7987 70.3301ZM10.1224 54.5496C9.91507 53.0519 9.95539 51.6001 9.88627 50.2458V50.2114V50.1885V50.1712C9.92083 45.9535 10.7561 41.908 11.7296 37.9371C12.0464 36.6287 12.6858 35.5671 13.6305 34.8728C14.5637 34.1899 15.71 33.8972 16.9658 33.8628L17.4035 33.7882V33.8571C18.619 33.8628 19.8171 34.0178 20.998 34.3334C27.8298 36.1639 33.7284 39.6413 38.5902 44.7714C38.8782 45.0756 39.1374 45.3797 39.3506 45.7183C39.5579 46.0511 39.7365 46.4528 39.7365 46.9348V46.9692C39.725 47.4972 39.4773 47.9734 39.1201 48.3235C38.763 48.6735 38.3137 48.9375 37.7607 49.19C35.5948 50.1598 34.0568 51.537 32.9105 53.2585C31.7699 54.9742 31.0326 57.0458 30.5948 59.3526C30.0706 62.0669 29.2641 64.1212 28.0429 65.5615C26.8333 67.0076 25.157 67.7364 23.3022 67.7306H23.2849H23.2676C21.3264 67.7306 19.1893 67.0248 16.7814 65.814C14.4773 64.6549 12.9335 62.9161 11.9312 60.9364C10.9289 58.9567 10.4393 56.7531 10.1282 54.5381L10.1224 54.5496Z" fill="#C3271B"/>
<path d="M69.4483 29.9023C68.9414 27.1307 65.923 24.8927 62.5186 24.8984C62.2018 24.8984 61.8849 24.9157 61.5624 24.9558C59.7594 25.1739 58.2386 25.9256 57.1845 26.97C56.1303 28.0144 55.537 29.3227 55.5312 30.7516L55.5428 31.0442C55.6292 32.519 56.3723 33.8388 57.605 34.8373C58.8377 35.83 60.5428 36.4555 62.461 36.467H62.4955H62.5013C64.5001 36.467 66.2801 35.7726 67.5416 34.7053C68.8089 33.6322 69.5289 32.2321 69.5289 30.7688C69.5289 30.4876 69.5001 30.195 69.4483 29.908V29.9023ZM66.0612 32.3411C65.7386 32.7887 65.3066 33.0756 64.8861 33.2535C64.0624 33.6035 63.2156 33.6667 62.6165 33.7929L62.4034 33.8331L62.3227 33.8159L62.1902 33.7872C61.7582 33.6839 61.1937 33.5978 60.6119 33.4257C60.0474 33.2535 59.3792 32.9781 58.9068 32.3468C58.59 31.9222 58.4287 31.3885 58.4287 30.8147V30.786L58.4402 30.3384H58.4863C58.5439 29.908 58.6534 29.5064 58.8723 29.162C59.1603 28.7145 59.5693 28.4046 59.9898 28.2037C60.8193 27.8135 61.7064 27.7676 62.4667 27.7676H62.5992C63.1465 27.7734 63.7686 27.8078 64.3849 27.9799C64.9955 28.1464 65.6637 28.4792 66.1073 29.1391C66.3953 29.5752 66.5451 30.1089 66.5451 30.6999C66.5451 31.3197 66.3838 31.8878 66.0612 32.3411Z" fill="#C3271B"/>
</g>
<defs>
<clipPath id="clip0_1962_14886">
<rect width="85" height="79" fill="white"/>
</clipPath>
</defs>
</svg>
