<svg width="68" height="78" viewBox="0 0 68 78" fill="none" xmlns="http://www.w3.org/2000/svg">
<g clip-path="url(#clip0_2001_2789)">
<path d="M54.6136 37.4102C54.7484 35.337 54.3206 33.266 53.3753 31.416C52.4301 29.5659 51.0025 28.0057 49.2436 26.9001C43.9536 23.2501 36.9736 18.4701 29.8436 13.8201C28.4471 12.9846 26.8685 12.5008 25.2436 12.4102C24.9836 12.4102 24.7136 12.4102 24.4536 12.4102C20.7236 12.4102 17.8136 14.4102 15.7036 16.2502C9.88463 21.2301 5.32416 27.514 2.39363 34.5901C1.76091 36.1662 1.21346 37.7752 0.753627 39.4102C0.533627 40.1602 0.313627 40.9002 0.0636265 41.6802C-0.0107922 42.1741 -0.0107922 42.6763 0.0636265 43.1702V43.2701L0.213627 43.9702C0.323627 44.4602 0.433627 44.9701 0.563627 45.4501C1.63363 49.6601 3.81363 53.1902 6.35363 57.0402C10.3296 63.0135 15.2662 68.288 20.9636 72.6501C24.4236 75.3301 27.9636 77.2202 31.8036 77.5402C32.1536 77.5402 32.9236 77.6602 33.4836 77.6602H45.7636C47.0836 77.5402 48.7636 77.3302 50.6236 76.9802C50.7604 76.9297 50.9008 76.8896 51.0436 76.8602C52.6026 76.5069 54.1388 76.0593 55.6436 75.5201C59.3536 74.1201 61.3236 71.2002 61.3536 67.0602C61.3335 64.3543 60.7226 61.6854 59.5636 59.2402C55.8336 50.9202 54.3036 44.1902 54.6136 37.4102ZM19.8836 66.7902V66.9102C19.9232 67.0581 19.9533 67.2084 19.9736 67.3602L19.8336 67.2701C19.5254 67.0904 19.2341 66.8829 18.9636 66.6501C12.2936 60.3401 7.59363 53.9501 4.61363 47.1301C3.9982 45.7641 3.66338 44.2884 3.62903 42.7905C3.59467 41.2926 3.86148 39.803 4.41363 38.4102C7.13189 31.0279 11.5914 24.4106 17.4136 19.1202C19.1021 17.5151 21.1644 16.3568 23.4136 15.7502C23.8744 15.632 24.348 15.5715 24.8236 15.5701C26.1006 15.5956 27.3406 16.0032 28.3836 16.7402C32.5036 19.4602 36.6036 22.2302 40.7036 24.9902L44.2936 27.4102C44.4936 27.5502 44.6836 27.7102 44.9436 27.9202L44.1536 28.0402C43.2536 28.1902 42.4736 28.3102 41.6936 28.4902C38.9195 29.1486 36.3842 30.5685 34.3736 32.5901C26.4536 40.2401 21.5836 48.7801 19.4636 58.7001C18.9999 61.3945 19.1434 64.1583 19.8836 66.7902ZM55.5736 71.7902C53.1709 73.1143 50.5099 73.9023 47.7736 74.1002C45.9436 74.3002 44.0736 74.4302 42.2636 74.5502L39.8836 74.7101H39.6736C36.4114 74.7959 33.1629 74.2562 30.1036 73.1202C24.2636 70.8502 21.5036 65.8602 22.7336 59.7802C24.6104 49.6278 30.0547 40.4808 38.0836 33.9902C40.052 32.2779 42.5649 31.3209 45.1736 31.2902C45.6149 31.2875 46.0559 31.3142 46.4936 31.3702C50.6536 31.8602 51.3636 33.7601 51.2336 37.0801C50.9536 44.0001 52.3936 50.9802 55.7836 59.0302C56.7381 61.4719 57.4808 63.9912 58.0036 66.5602C58.2898 67.5841 58.2024 68.6763 57.7573 69.6418C57.3121 70.6072 56.5381 71.3829 55.5736 71.8301V71.7902Z" fill="#5F9B41"/>
<path d="M67.2384 13.6505C67.1884 13.5405 67.1484 13.4105 67.0984 13.2805C66.9713 12.8421 66.757 12.434 66.4684 12.0804C65.2217 10.6882 63.8855 9.37882 62.4684 8.16046C61.7812 7.57427 60.9115 7.24547 60.0084 7.23047C59.1833 7.24094 58.381 7.50256 57.7084 7.98047C56.4536 8.76982 55.2898 9.69545 54.2384 10.7405C52.0384 13.0905 49.8684 15.5405 47.7684 17.9005L45.7684 20.1505C45.6217 20.2899 45.5072 20.4597 45.4329 20.6479C45.3586 20.8362 45.3264 21.0384 45.3384 21.2405C45.3848 21.4551 45.4791 21.6565 45.6141 21.8296C45.7492 22.0027 45.9215 22.1432 46.1184 22.2405C46.4932 22.5277 46.9391 22.7075 47.4084 22.7604C47.9984 22.7604 48.4084 22.3004 49.0084 21.4604C51.7095 17.7139 54.9052 14.35 58.5084 11.4604C59.2384 10.8604 59.6284 10.6304 59.9584 10.6304C60.2884 10.6304 60.7784 10.9904 61.4484 11.6304L62.5884 12.7805C63.0284 13.2205 63.4284 13.6705 63.3984 13.9105C63.3684 14.1505 62.8584 14.4604 62.3284 14.7604C57.9917 17.1089 54.0229 20.0805 50.5484 23.5804C50.2484 23.8904 49.9084 24.2305 49.9484 24.6705C49.9748 24.8285 50.0361 24.9787 50.1277 25.1102C50.2194 25.2416 50.3392 25.3511 50.4784 25.4305C50.615 25.5432 50.742 25.667 50.8584 25.8005C50.9763 25.9811 51.1323 26.1337 51.3154 26.2477C51.4985 26.3617 51.7043 26.4343 51.9184 26.4604C52.2814 26.4339 52.6193 26.265 52.8584 25.9905C53.3584 25.5038 53.8684 25.0238 54.3884 24.5505C57.6475 21.6335 61.2429 19.1157 65.0984 17.0505C65.7252 16.7651 66.2602 16.3108 66.6434 15.7386C67.0267 15.1664 67.2431 14.4987 67.2684 13.8105V13.7405L67.2384 13.6505Z" fill="#5F9B41"/>
<path d="M36.0435 13.0302C35.8698 13.2159 35.7351 13.4347 35.6475 13.6735C35.5599 13.9122 35.5211 14.1661 35.5335 14.4202C35.5868 14.6319 35.6837 14.8303 35.818 15.0024C35.9523 15.1746 36.1211 15.3169 36.3135 15.4202C36.6678 15.6969 37.0954 15.8638 37.5435 15.9001C37.837 15.8606 38.116 15.7485 38.3553 15.5739C38.5945 15.3992 38.7864 15.1676 38.9135 14.9001C40.4335 12.5701 42.1435 10.1002 44.1435 7.35016C44.9235 6.28016 45.3935 5.88013 45.8735 5.88013C46.5777 6.02514 47.2242 6.37271 47.7335 6.88013C48.2235 7.28013 48.6635 7.62016 48.6735 7.79016C48.6835 7.96016 48.3435 8.30016 47.9135 8.73016L47.8135 8.84015C45.3735 11.3501 42.9735 13.9702 40.8135 16.2802C40.6397 16.43 40.5032 16.6183 40.4147 16.83C40.3262 17.0418 40.2881 17.2712 40.3035 17.5002C40.3517 17.6911 40.4437 17.8681 40.5721 18.0174C40.7005 18.1666 40.8619 18.284 41.0435 18.3602C41.1897 18.4348 41.3272 18.5253 41.4535 18.6301C41.7292 18.8846 42.0802 19.0425 42.4535 19.0801C42.6803 19.0586 42.8983 18.9818 43.0883 18.8562C43.2784 18.7307 43.4347 18.5603 43.5435 18.3602C44.6194 16.9056 45.785 15.5196 47.0335 14.2101C47.7535 13.4401 48.5335 12.6801 49.2735 11.9601C50.0135 11.2401 50.6635 10.6001 51.3335 9.90015C51.6945 9.48308 52.0128 9.03084 52.2835 8.55017C52.4035 8.34017 52.5335 8.13019 52.6635 7.94019C52.6691 7.887 52.6691 7.83334 52.6635 7.78015C52.6747 7.73077 52.6747 7.6795 52.6635 7.63013C52.5835 7.47013 52.5235 7.32018 52.4635 7.18018C52.356 6.8719 52.1858 6.58926 51.9635 6.35016C50.967 5.40275 49.9187 4.5114 48.8235 3.68018C47.92 2.93866 46.8092 2.495 45.6435 2.41016C44.4335 2.41016 43.3635 3.09018 42.1635 4.62018C40.6735 6.52018 39.2535 8.53016 37.8835 10.4802C37.2435 11.3002 36.6635 12.1702 36.0435 13.0302Z" fill="#5F9B41"/>
<path d="M26.9471 10.62C27.3252 10.6161 27.6958 10.5135 28.022 10.3223C28.3483 10.1311 28.6189 9.85797 28.8071 9.52997L28.8871 9.38995C29.7018 7.85567 30.6558 6.39957 31.7371 5.03998C31.9502 4.76208 32.222 4.53466 32.5332 4.3739C32.8443 4.21314 33.1871 4.12302 33.5371 4.10999C34.254 4.14749 34.9313 4.45047 35.4371 4.95996L35.3271 5.08997L34.0071 6.53998C32.9371 7.70998 31.8371 8.91995 30.7771 10.14C30.6193 10.2765 30.5032 10.4548 30.4421 10.6544C30.381 10.8539 30.3774 11.0666 30.4317 11.2681C30.4859 11.4696 30.5959 11.6517 30.749 11.7935C30.9021 11.9354 31.092 12.0312 31.2971 12.0699C31.4549 12.1344 31.6057 12.2149 31.7471 12.31C32.0027 12.5135 32.3119 12.6385 32.6371 12.67C33.0471 12.67 33.3871 12.4 33.6371 11.84C34.6514 9.89033 36.1934 8.26515 38.0871 7.14996C38.4855 6.93265 38.8249 6.62143 39.0758 6.24329C39.3267 5.86515 39.4816 5.43152 39.5271 4.97998C39.5314 4.52195 39.4244 4.06969 39.2154 3.66211C39.0064 3.25452 38.7015 2.90376 38.3271 2.63995C37.6555 2.11517 36.958 1.62458 36.2371 1.16998L35.0471 0.409973C34.6807 0.144066 34.2398 0.000609803 33.7871 0C33.357 0.00994028 32.9341 0.112241 32.5471 0.299988C28.5471 2.09999 26.7471 5.72998 25.4171 8.97998C25.3574 9.14495 25.3381 9.32177 25.3607 9.49573C25.3834 9.66969 25.4472 9.83574 25.5471 9.97998C25.7167 10.1858 25.9309 10.3502 26.1734 10.4611C26.4159 10.572 26.6805 10.6264 26.9471 10.62Z" fill="#5F9B41"/>
<path d="M49.0609 53.5499L48.8109 53.0898L48.0209 53.4698L47.9709 54.0399C47.9709 54.3499 47.9109 54.6498 47.9109 54.9598V60.4099C47.9109 64.8799 47.2509 65.7299 42.9109 66.9399L38.1109 68.3099L37.9609 69.2198L38.2109 69.2999L38.5209 69.4099C38.7671 69.516 39.0259 69.5899 39.2909 69.6298C40.406 69.7627 41.528 69.8295 42.6509 69.8298C45.3723 69.7868 48.0812 69.4516 50.7309 68.8298C51.2942 68.7431 51.8028 68.444 52.1525 67.994C52.5021 67.5439 52.6661 66.9771 52.6109 66.4099C52.7409 61.6199 50.9909 57.4099 49.2609 53.9199C49.2409 53.8499 49.1409 53.6999 49.0609 53.5499Z" fill="#5F9B41"/>
<path d="M42.98 43.189C43.27 43.019 43.73 42.5089 43.62 42.1089C43.51 41.7089 43.05 41.1789 42.62 41.1789H42.29C41.5081 41.118 40.7229 41.2448 40 41.5489C36.59 43.4089 34.57 46.5489 34 51.0389V51.4089C34 52.4989 34.06 53.6389 35.33 53.8089C35.4097 53.818 35.4903 53.818 35.57 53.8089C36.57 53.8089 36.7 52.9389 36.81 52.3689C36.81 52.2189 36.87 52.0689 36.91 51.9289C38.24 47.6489 40.1 44.939 42.98 43.189Z" fill="#5F9B41"/>
</g>
<defs>
<clipPath id="clip0_2001_2789">
<rect width="67.3" height="77.67" fill="white"/>
</clipPath>
</defs>
</svg>
