<svg width="63" height="84" viewBox="0 0 63 84" fill="none" xmlns="http://www.w3.org/2000/svg">
<g clip-path="url(#clip0_1962_14942)">
<path d="M62.7651 43.6085C62.7651 43.0114 62.6558 42.6502 62.4231 42.4334C62.1904 42.2119 61.7867 42.1059 61.1455 42.1011C60.6848 42.1011 60.2289 42.0867 59.7729 42.0867C59.4357 42.0867 59.0985 42.0915 58.7613 42.1108H58.5903C58.4004 42.1108 58.2484 42.0963 58.1249 42.0241C57.9967 41.9518 57.9302 41.8025 57.9349 41.6484C57.9349 41.504 57.9777 41.3402 58.0442 41.1283C58.4859 39.7895 58.6996 38.4362 58.6996 37.1118C58.6996 31.8142 55.337 26.9694 50.0082 25.3657C49.652 25.2597 49.4002 25.1393 49.234 24.9611C49.063 24.7829 49.0013 24.5566 49.0013 24.2917C49.0013 24.1328 49.025 23.9546 49.0583 23.7523C49.2293 22.7313 49.3148 21.7248 49.3148 20.7327C49.3148 17.6505 48.4694 14.7368 46.6741 12.0351C44.7458 9.14069 42.1622 7.01204 39.075 5.4902C38.7616 5.33608 38.4814 5.26385 38.2344 5.26866C37.579 5.27348 37.1658 5.75507 37.1373 6.71345C37.1373 6.83385 37.1373 6.95425 37.1373 7.07946V7.37324C37.1373 7.61404 37.1373 7.85965 37.123 8.10526C37.028 9.76677 36.6338 11.3368 35.4655 12.6323C35.2375 12.8779 35.0285 13.0753 34.7436 13.0802C34.5394 13.0802 34.3399 12.9694 34.1167 12.7623C33.5847 12.2614 32.9198 11.8424 32.2406 11.775C31.5947 11.7124 31.1958 11.4668 30.9583 11.096C30.7256 10.7251 30.6448 10.258 30.5546 9.73787C29.7045 4.87857 26.9783 1.65669 22.3571 0.0915033C22.1719 0.0288958 21.9962 0 21.8347 0C21.3123 0 20.9228 0.288958 20.7566 0.765738C20.7043 0.919849 20.6806 1.06433 20.6806 1.20399C20.6806 1.70485 20.9941 2.11902 21.6305 2.34537C25.6485 3.72274 27.7762 6.67974 28.3651 10.8455L28.3841 11.096C28.3841 11.2838 28.3366 11.4524 28.2274 11.5776C28.1182 11.7028 27.9614 11.7847 27.7572 11.8569C26.2991 12.3578 25.1023 13.2535 24.3851 14.6116C23.9149 15.5122 23.2548 15.7723 22.3761 15.8927C19.118 16.3695 16.5724 17.9202 15.0336 20.9639C14.4921 22.0378 14.1502 23.184 13.9887 24.3736C13.9554 24.6288 13.8794 24.8311 13.737 24.9756C13.5945 25.1201 13.4045 25.1971 13.167 25.2501C12.2646 25.4524 11.405 25.8184 10.5834 26.2663C6.46088 28.496 4.06718 32.6763 4.06718 37.1407C4.06718 38.4651 4.27615 39.8136 4.71784 41.1476C4.78434 41.3498 4.82708 41.5088 4.82708 41.6581C4.82708 41.7977 4.77009 41.9422 4.6466 42.0144C4.52787 42.0867 4.37589 42.1108 4.18116 42.1108H4.06243C3.63498 42.0915 3.20279 42.0819 2.77534 42.0819C2.29565 42.0819 1.82071 42.0915 1.34102 42.1059C0.84708 42.1204 0.519371 42.2456 0.310398 42.4623C0.101424 42.6791 -0.0078125 43.0162 -0.0078125 43.5074V43.57C0.0301827 45.6457 0.353142 47.678 1.02756 49.6381C3.07455 55.581 7.0878 59.8431 12.3121 63.0361C17.4605 66.1809 23.0885 67.775 29.0775 68.0977C29.4385 68.117 29.7187 68.1603 29.9277 68.3337C30.1367 68.5119 30.2174 68.796 30.2126 69.2102V69.2535C30.1889 71.0932 30.1794 72.9329 30.1794 74.7774C30.1794 76.7472 30.1889 78.7121 30.2031 80.6818V80.6963V80.7107C30.2031 81.0334 30.1557 81.2742 29.9942 81.4379C29.8279 81.5968 29.5905 81.6402 29.2818 81.6402H29.2533C27.5102 81.6257 25.7672 81.6209 24.0242 81.6209C22.2811 81.6209 20.3956 81.6209 18.5814 81.6257H18.3249C18.1254 81.6257 17.9354 81.6257 17.7502 81.6594C17.1898 81.7606 16.8906 82.0784 16.8146 82.6419L16.8003 82.8393C16.8003 83.3306 17.0331 83.6629 17.5317 83.8892C17.7502 83.9855 17.9877 84 18.2394 84H18.4911C22.7893 84 27.0875 84 31.381 84C35.6745 84 39.9204 84 44.1902 84H44.5131C44.7696 84 45.007 83.9855 45.2303 83.8844C45.71 83.6532 45.9379 83.3258 45.9427 82.8297V82.7045C45.8857 82.1314 45.6055 81.7991 45.0545 81.6739C44.8551 81.6305 44.6461 81.6257 44.4276 81.6257H44.1427C42.3616 81.6257 40.5854 81.6257 38.8043 81.6257C37.0233 81.6257 35.247 81.6257 33.4707 81.6402C33.181 81.6402 32.9531 81.6161 32.7773 81.4716C32.6016 81.3271 32.5399 81.0912 32.5399 80.7733V80.7589C32.5541 78.8228 32.5589 76.8868 32.5589 74.9508C32.5589 73.0148 32.5541 71.0306 32.5399 69.0705V69.0513C32.5399 68.743 32.5921 68.507 32.7488 68.3433C32.9103 68.1796 33.143 68.1314 33.4375 68.1314C34.7103 68.1266 35.9737 67.9628 37.237 67.7606C44.2139 66.6625 50.4831 64.0089 55.6457 59.0341C59.9344 54.8971 62.5276 49.9223 62.7413 43.8156V43.6182L62.7651 43.6085ZM30.0179 13.7496H30.0607C32.4924 13.7496 34.5061 15.7626 34.5394 18.2284V18.2814C34.5394 20.7327 32.5351 22.7699 30.1034 22.7843H30.0749C27.648 22.7843 25.6485 20.752 25.6295 18.2766V18.2669V18.2477C25.6295 15.8204 27.6242 13.7736 30.0132 13.7496H30.0179ZM14.2974 27.3884C14.4921 27.3498 14.6868 27.3065 14.8863 27.268C15.442 27.162 15.7555 27.0272 15.9407 26.8056C16.1259 26.5841 16.2067 26.2325 16.2399 25.6402C16.4014 22.5869 17.6695 20.1789 20.5191 18.8497C20.6996 18.763 20.8896 18.6811 21.089 18.6185C21.5402 18.4788 22.0437 18.2043 22.5566 18.1995L22.8891 18.2477C23.1218 18.3151 23.2738 18.4596 23.3498 18.6378C23.4257 18.8111 23.4352 18.999 23.4352 19.1868C23.4352 19.312 23.4305 19.442 23.4305 19.5576C23.4305 19.6732 23.44 19.7936 23.459 19.8851C24.2094 23.0299 27.04 25.173 30.1034 25.173C30.7161 25.173 31.3383 25.0863 31.9557 24.9082C34.9573 24.0268 36.8808 21.2865 36.8808 18.3151C36.8808 17.5349 36.7478 16.7355 36.4676 15.9553C36.3964 15.7578 36.3536 15.5893 36.3536 15.4255C36.3536 15.1414 36.4914 14.9006 36.7526 14.655C38.4339 13.0513 39.303 11.0382 39.5072 8.59649L39.5215 8.39422L39.6925 8.50017C41.7347 9.73306 43.3875 11.2597 44.6793 13.1813C46.3036 15.5893 46.9923 18.1562 46.9923 20.8194C46.9923 22.2016 46.8071 23.6127 46.4746 25.043C46.3701 25.4813 46.3179 25.828 46.3179 26.1025C46.3179 26.4926 46.4176 26.7093 46.6551 26.8827C46.8926 27.0561 47.3058 27.1717 47.9184 27.2632C52.9623 28 56.4104 32.4548 56.4104 37.1696C56.4104 38.5518 56.1112 39.958 55.47 41.3017C55.2135 41.8603 54.8383 42.1397 54.1971 42.1252C46.7311 42.1156 39.265 42.1108 31.799 42.1108C24.3329 42.1108 16.3444 42.1108 8.61711 42.1252C7.93794 42.1348 7.55324 41.8314 7.29202 41.2439C6.6841 39.9388 6.40388 38.5662 6.40388 37.2129C6.40388 32.6859 9.56224 28.3756 14.3069 27.398L14.2974 27.3884ZM60.2669 45.6987C59.3408 51.8342 55.9212 56.3371 51.0863 59.8142C46.2941 63.2625 40.8846 65.0444 35.0713 65.603C33.7652 65.7282 32.4639 65.7908 31.1768 65.7908C25.9524 65.7908 20.8896 64.7265 16.0594 62.3908C10.7068 59.8046 6.37539 56.0626 3.8487 50.4568C3.14104 48.8868 2.74209 47.2301 2.45713 45.5397C2.43338 45.3953 2.41913 45.27 2.41913 45.1593C2.41913 44.9185 2.49037 44.7162 2.67085 44.6054C2.84658 44.4995 3.0698 44.4754 3.37851 44.4754C8.86882 44.4898 14.3591 44.4947 19.8494 44.4947C23.6917 44.4947 27.534 44.4947 31.381 44.4947H59.2125C59.6115 44.4947 59.8632 44.4947 60.0532 44.5525C60.2574 44.6054 60.3619 44.8077 60.3476 45.0196C60.3476 45.1882 60.3144 45.4049 60.2716 45.6987H60.2669Z" fill="#3D5993"/>
<path d="M39.2568 28.1877C39.4183 27.9662 39.4943 27.7254 39.4943 27.4894C39.4943 27.1475 39.3375 26.8104 39.0526 26.5792C38.8246 26.3914 38.5776 26.3047 38.3354 26.3047C38.0172 26.3047 37.6895 26.454 37.3998 26.7718C37.2335 26.95 37.0911 27.1667 36.9201 27.369C35.1248 29.5844 32.9258 31.2025 30.0999 31.819C29.1833 32.0212 28.2857 32.1127 27.4023 32.1127C24.8661 32.1127 22.4581 31.3374 20.1357 30.1141C19.7937 29.9359 19.4803 29.8492 19.2096 29.8492C18.8059 29.8492 18.4971 30.0274 18.2834 30.4031C18.1694 30.6005 18.1172 30.798 18.1172 30.9858C18.1172 31.4289 18.4069 31.8623 19.0196 32.1946C21.684 33.6298 24.5289 34.3618 27.863 34.4774C28.2334 34.4437 28.9031 34.41 29.568 34.3184C33.7047 33.755 36.8108 31.5107 39.2615 28.1829L39.2568 28.1877Z" fill="white"/>
</g>
<defs>
<clipPath id="clip0_1962_14942">
<rect width="62.7681" height="84" fill="white"/>
</clipPath>
</defs>
</svg>
