<svg id="Layer_1" data-name="Layer 1" xmlns="http://www.w3.org/2000/svg" viewBox="0 0 78 78"><defs><style>.cls-1{fill:#ff3d62;}</style></defs><path class="cls-1" d="M35,16.91c-8.54-1.14-12.13,5.53-13,7.57a3.37,3.37,0,0,0-.11,2.59,0,0,0,0,0,0,0,3.35,3.35,0,0,0,3.45,2A7.9,7.9,0,0,0,27,29c3.94-.81,11.72-5.32,11.59-9.12C38.52,18.93,38,17.31,35,16.91Zm-6.93,8.6c-2.31.89-3.26.64-3.37.53h0a.46.46,0,0,1,0-.32c.88-2,3.61-6.66,9.88-5.82a2.69,2.69,0,0,1,.88.22C35.17,21.17,32,24,28.11,25.51Z"/><path class="cls-1" d="M42.86,16.32c-1.13-2.9-4.2-4.48-9.13-4.7C19,11,17.31,22.68,17.17,24.12a7.49,7.49,0,0,0,.49,4.13,8.33,8.33,0,0,0,6.11,5.14,15.12,15.12,0,0,0,3.07.32c7.06,0,12-4.94,12.1-5C39.91,27.73,44.79,21.26,42.86,16.32ZM36.8,26.6s-5.47,5.3-12.43,3.85A5.28,5.28,0,0,1,22,29.31a5.42,5.42,0,0,1-1.53-2.14,4.52,4.52,0,0,1-.34-2.5l0-.24c0-.41.75-9.84,12.41-9.84l1,0c3.64.17,5.82,1.11,6.48,2.8C41.27,20.49,37.64,25.76,36.8,26.6Z"/><path class="cls-1" d="M71.83,43.54a12.24,12.24,0,0,0,1.92-1.75l0-.06c4.51-5.6,5-14.22,1-19.63A60.3,60.3,0,0,0,65.93,13l-.16-.14c-1.18-1-2-1.7-2.26-1.89l-.09-.07C58,7.14,44.53,1,31.78.68A29.63,29.63,0,0,0,9.11,12.18C-.1,24.27-2.22,44.44,4.18,59.1a20.59,20.59,0,0,0,6.75,8.74A19,19,0,0,0,12.75,69h0l6.74,6.63a1.46,1.46,0,0,0,.24.17,15.88,15.88,0,0,0,6.74,1.52,13.69,13.69,0,0,0,4.37-.69c4-1.35,7.29-4.57,9.68-9.56l0,0a19.59,19.59,0,0,0,16.79,9.47h0a19.65,19.65,0,0,0,18-27.6A19.28,19.28,0,0,0,71.83,43.54Zm-.08-17.23A16,16,0,0,0,71,22.09c.53.6,1,1.2,1.41,1.76,3.12,4.29,2.7,11.45-.92,16A11,11,0,0,1,70,41.16a19.79,19.79,0,0,0-4.2-2.61c.19-.14.38-.28.56-.44a12.34,12.34,0,0,0,1.08-1,6.14,6.14,0,0,0,.51-.51,14.48,14.48,0,0,0,3.16-5.41h0A13.76,13.76,0,0,0,71.75,26.31ZM12.68,65.41A17.75,17.75,0,0,1,6.93,57.9c-6-13.74-4-32.62,4.57-43.9C19.26,3.81,31.15,3.68,31.7,3.68h0C43.16,4,56.14,9.54,61.66,13.35c.19.15,1,.76,2,1.68a1.55,1.55,0,0,1,.19.24c.16.25.37.54.59.87,2,2.87,5.64,8.21,3.78,14.18a11.68,11.68,0,0,1-2.5,4.29,10.59,10.59,0,0,1-.9.87,4.63,4.63,0,0,1-.48.4,4.74,4.74,0,0,1-.51.37,4.21,4.21,0,0,1-.52.34,11,11,0,0,1-1.22.65c-.52-.12-1-.23-1.58-.31l.47-.41a18.48,18.48,0,0,0,4.2-5.89c1.41-3,1-6.34-1.28-9.7-5.84-8.74-23-16.12-36-15.48H27.8C13.75,7.45,8.35,23,6.05,29.6L6,29.78a.84.84,0,0,0,0,.17c-2.75,12.55.57,27.58,7.42,33.49A9.36,9.36,0,0,0,19.52,66a8.6,8.6,0,0,0,3.1-.59C29.7,62.69,31.1,60,32.71,56.87a21.93,21.93,0,0,1,6-7.61,20.92,20.92,0,0,0-1,3.43A55.6,55.6,0,0,0,29.4,63.75a21,21,0,0,1-1.28,2C26.78,67.49,19.18,70.08,12.68,65.41ZM55.25,36.79l-.13,0-.58.06-.71.12-.68.13c-.34.07-.68.16-1,.25s-.56.15-.83.24-.53.17-.79.27a19.93,19.93,0,0,0-4.63,2.39c-.23.16-.47.33-.7.51s-.46.35-.68.54-.44.37-.66.57l-.51.47a48.23,48.23,0,0,0-4.72,3.13c-5.54,4.17-7.21,7.4-8.56,10-1.5,2.89-2.49,4.8-8.49,7.07-2.13.81-4.23.34-6.24-1.39C10,56.56,6.13,43.23,8.85,30.68l0-.09C11.18,24,16,10.21,28.15,8.44c12.1-.58,28,6.17,33.28,14.15,1.66,2.48,2,4.75,1.07,6.76A14.52,14.52,0,0,1,55.25,36.79ZM38.74,66.19c-2.15,4.49-5,7.36-8.49,8.53a13.48,13.48,0,0,1-9.46-.64L17.3,70.66A17.8,17.8,0,0,0,21,71c4.37,0,8.12-1.6,9.53-3.4A23.16,23.16,0,0,0,32,65.28a54.39,54.39,0,0,1,5.73-8.22,6.33,6.33,0,0,0,0,.87,10,10,0,0,0,.09,1.1c0,.37.09.74.16,1.1a15.58,15.58,0,0,0,.49,2.15,10,10,0,0,0,.34,1.06,8.26,8.26,0,0,0,.36.94,1,1,0,0,0,.08.19c.05.14.11.28.17.42C39.19,65.31,39,65.75,38.74,66.19Zm31.11,3.13a17.55,17.55,0,0,1-12.48,5.17h0a17.65,17.65,0,0,1-15.9-10c-.14-.29-.28-.59-.41-.89h0c-.13-.31-.25-.62-.35-.93a16.81,16.81,0,0,1-.61-2.21,14.62,14.62,0,0,1-.27-1.61,19.53,19.53,0,0,1-.11-2c0-.27,0-.54,0-.81a7.34,7.34,0,0,1,.05-.81,3.42,3.42,0,0,1,0-.46l.28-.28a1.43,1.43,0,0,0,.4-.78,17,17,0,0,1,4.82-9.06l.54-.53.59-.5a13.3,13.3,0,0,1,1.21-.92h0a18.06,18.06,0,0,1,2.64-1.49h0a16,16,0,0,1,1.89-.72,15.74,15.74,0,0,1,2.37-.57c.41-.07.83-.12,1.25-.16h.05c.48,0,1-.06,1.49-.06a18,18,0,0,1,4.34.55l.14.05a17,17,0,0,1,7.05,3.87,1.47,1.47,0,0,0,1,.39H70a17.67,17.67,0,0,1,5,12.3A17.53,17.53,0,0,1,69.85,69.32Z"/><path class="cls-1" d="M70.83,60.2l-2.92,1.43,1.22.69a1.25,1.25,0,0,1-.62,2.34,1.21,1.21,0,0,1-.61-.16l-1-.58.4,2.48a1.25,1.25,0,0,1-1,1.43l-.2,0a1.26,1.26,0,0,1-1.24-1l-.71-4.45h0l-6.6-3.72v7.06l4.1,2.81a1.26,1.26,0,0,1,.32,1.74,1.25,1.25,0,0,1-1.74.32l-2.68-1.84v1.4a1.25,1.25,0,0,1-2.5,0V68.94l-2,1.57a1.25,1.25,0,1,1-1.56-2L55,65.74v-7L49.11,62l-.44,5a1.26,1.26,0,0,1-1.25,1.14h-.11a1.24,1.24,0,0,1-1.13-1.35l.28-3.24-1.37.77a1.21,1.21,0,0,1-.61.16,1.25,1.25,0,0,1-.62-2.34L45,61.41l-2.33-.94a1.25,1.25,0,0,1,.94-2.32l4.18,1.69,5.9-3.32-5.66-3.2L43.88,55A1.25,1.25,0,0,1,43,52.7l2.33-.94-1.18-.67a1.25,1.25,0,1,1,1.23-2.18l1.37.77-.29-3.24a1.25,1.25,0,0,1,2.49-.22l.44,5L55,54.35v-7l-3.53-2.81a1.25,1.25,0,1,1,1.56-2l2,1.57V42.8a1.25,1.25,0,0,1,2.5,0v1.58l2.68-1.84a1.25,1.25,0,1,1,1.41,2.06l-4.09,2.81v7l6.37-3.59.72-4.45a1.25,1.25,0,0,1,2.47.4l-.4,2.48,1-.58a1.25,1.25,0,1,1,1.22,2.18l-1.22.69L70.59,53A1.25,1.25,0,0,1,70,55.35a1.38,1.38,0,0,1-.55-.13L65,53l-6.19,3.49,6.43,3.62L69.72,58a1.25,1.25,0,0,1,1.11,2.25Z"/></svg>