<svg width="65" height="70" viewBox="0 0 65 70" fill="none" xmlns="http://www.w3.org/2000/svg">
<path d="M30.0827 65.6202H12.837C9.03844 65.6202 5.95312 62.314 5.95312 58.2435V31.1328" stroke="#A20C33" stroke-width="3.01" stroke-linecap="round" stroke-linejoin="round"/>
<path d="M9.09419 28.8749H4.67858C3.33227 28.8749 2.23438 27.6039 2.23438 26.0324C2.23438 24.4609 3.32425 23.1899 4.67858 23.1899H56.9286C58.2749 23.1899 59.3728 24.4609 59.3728 26.0324C59.3728 27.6039 58.2829 28.8749 56.9286 28.8749H52.0081" stroke="#A20C33" stroke-width="3.01" stroke-linecap="round" stroke-linejoin="round"/>
<path d="M4.28125 20.1149C7.84739 15.2115 18.3695 11.6562 30.7909 11.6562C43.2123 11.6562 53.7905 15.2287 57.3326 20.1579" stroke="#A20C33" stroke-width="3.01" stroke-linecap="round" stroke-linejoin="round"/>
<path d="M29.5179 7.56014C28.2678 7.56014 27.25 6.46953 27.25 5.12988V4.60604C27.25 3.26639 28.2678 2.17578 29.5179 2.17578H32.0903C33.3405 2.17578 34.3582 3.26639 34.3582 4.60604V5.12988C34.3582 6.46953 33.3405 7.56014 32.0903 7.56014" stroke="#A20C33" stroke-width="3.01" stroke-linecap="round" stroke-linejoin="round"/>
<path d="M46.7281 68.2932C55.5224 68.2932 62.6515 60.6537 62.6515 51.2299C62.6515 41.806 55.5224 34.1665 46.7281 34.1665C37.9338 34.1665 30.8047 41.806 30.8047 51.2299C30.8047 60.6537 37.9338 68.2932 46.7281 68.2932Z" stroke="#A20C33" stroke-width="3.01" stroke-linecap="round" stroke-linejoin="round"/>
<path d="M46.7266 38.3149V51.2305H54.1634" stroke="#A20C33" stroke-width="3.01" stroke-linecap="round" stroke-linejoin="round"/>
</svg>
