<svg width="60" height="72" viewBox="0 0 60 72" fill="none" xmlns="http://www.w3.org/2000/svg">
<g clip-path="url(#clip0_1962_14946)">
<path d="M1.63405 71.998C11.0959 71.998 20.5577 71.998 30.0196 71.998C39.4814 71.998 48.9432 71.998 58.4051 71.998C58.9432 71.998 59.3395 71.8662 59.5939 71.6514C59.8483 71.4316 59.9804 71.124 59.9853 70.6895C59.9853 70.5088 59.9609 70.3037 59.907 70.084C59.4618 68.2335 59.0117 66.3878 58.5665 64.5324C58.3806 63.7854 57.9012 63.3801 57.1086 63.3264C56.9961 63.3166 56.864 63.3313 56.7123 63.2971C56.5607 63.2678 56.3992 63.1555 56.3112 62.9602C55.5186 61.2806 54.4031 59.6742 54.1781 57.7064C53.9237 55.4799 53.7965 53.2485 53.6204 51.022C53.3513 47.5749 53.0577 44.1277 52.8327 40.6708C52.7348 39.162 52.5 37.6484 52.5 36.1103C52.5 35.7686 52.5098 35.4268 52.5391 35.0801C52.8963 30.5978 53.2681 26.1204 53.6252 21.6381C53.7818 19.6508 53.8454 17.6392 54.0949 15.647C54.3982 13.2643 55.6311 11.2087 56.4237 9.05054C56.4726 8.90894 56.5704 8.80152 56.6781 8.75269L56.9912 8.67945C57.5587 8.61109 57.8816 8.51344 58.0871 8.3279C58.2975 8.14724 58.4296 7.83475 58.5665 7.283C58.9873 5.59848 59.3982 3.90419 59.8483 2.22455C59.9462 1.84858 60 1.55074 60 1.31149C59.9951 0.754862 59.7505 0.447253 58.9824 -0.0117188H1.0274C0.264188 0.457018 0 0.779275 0 1.29684C0 1.45309 0.0244618 1.62886 0.0733855 1.83393C0.543053 3.75283 1.0274 5.66684 1.52153 7.57597C1.62427 7.97635 1.77104 8.24001 1.97652 8.40602C2.182 8.57203 2.46086 8.6648 2.87182 8.68433C3.0773 8.6941 3.24853 8.73804 3.38552 8.84058C3.52251 8.94312 3.61057 9.0896 3.67906 9.26537C4.2319 10.6862 4.80431 12.1022 5.37671 13.5231C6.2182 15.6324 6.03229 17.854 6.23777 19.978C6.55577 23.2591 6.79061 26.5501 7.04501 29.8312C7.21624 31.9845 7.48532 34.1475 7.48532 36.3203V36.3545C7.48532 38.4198 7.20646 40.4803 7.0499 42.5262C6.73679 46.5642 6.29648 50.5924 6.1546 54.6303C6.05186 57.6234 5.21037 60.3187 3.75734 62.8674C3.61546 63.1409 3.38063 63.3264 3.03327 63.341C2.50489 63.3752 2.1771 63.468 1.95695 63.6535C1.73679 63.8391 1.58513 64.1369 1.45793 64.6398C1.00783 66.4416 0.55773 68.2433 0.112524 70.045C0.0538161 70.2842 0.0244618 70.4991 0.0244618 70.6944C0.0244618 71.1338 0.161448 71.4414 0.415851 71.6562C0.670254 71.8711 1.07143 71.998 1.62427 71.998H1.63405ZM4.7456 6.05257C4.4227 6.05257 4.16341 6.01351 3.95793 5.85726C3.75245 5.70102 3.6546 5.45688 3.61057 5.12974C3.53718 4.58777 3.38063 4.05067 3.20939 3.51846C3.16047 3.3671 3.12622 3.23526 3.12622 3.1132C3.12133 2.95695 3.19961 2.79094 3.34638 2.7177C3.48337 2.64446 3.64971 2.62493 3.86008 2.62493H3.88943C5.2593 2.63469 6.62916 2.63958 7.99902 2.63958C9.50587 2.63958 11.0127 2.63958 12.5196 2.63958C18.3708 2.63958 24.2221 2.63958 30.0734 2.63958H30.2348C38.816 2.63958 47.3973 2.63958 55.9785 2.63958C56.1937 2.63958 56.3552 2.63958 56.4873 2.65422C56.6145 2.66887 56.7368 2.69817 56.8249 2.80559L56.8982 3.04484C56.8982 3.1962 56.8493 3.3671 56.7906 3.62099C56.6585 4.15809 56.4775 4.66589 56.3992 5.17857C56.3552 5.49106 56.2427 5.73031 56.0372 5.87191C55.8366 6.01351 55.5822 6.04769 55.2838 6.04769C50.8072 6.03792 46.3307 6.03304 41.8591 6.03304C38.5616 6.03304 35.2642 6.03304 31.9667 6.03304C31.6243 6.03304 31.2818 6.03304 30.9442 6.03304C26.6487 6.03304 22.3483 6.03304 18.0528 6.03304C13.7573 6.03304 9.18787 6.03304 4.76027 6.04769L4.7456 6.05257ZM6.97162 62.3401C8.1409 60.1868 8.58121 57.8676 8.72798 55.4311C8.98239 51.2955 9.32975 47.1647 9.63797 43.0389C9.79941 40.9003 10.0294 38.7714 10.1223 36.6377C10.1321 36.3789 10.137 36.125 10.137 35.8662C10.137 33.835 9.81898 31.8038 9.67221 29.7531C9.35421 25.2708 8.94814 20.7983 8.62524 16.3111C8.47847 14.2604 7.76908 12.3756 6.99609 10.4812C6.75636 9.88059 6.5998 9.51927 6.59491 9.22631C6.59491 9.10424 6.63405 8.98218 6.72211 8.89429C6.81018 8.8064 6.9227 8.76734 7.05479 8.74293C7.31409 8.68922 7.67613 8.6941 8.19472 8.6941C15.4599 8.6941 22.7299 8.6941 29.9951 8.6941H30.1566C37.6517 8.6941 45.1517 8.6941 52.6468 8.6941C52.8376 8.6941 52.9892 8.6941 53.1067 8.70386C53.2241 8.71851 53.3317 8.73316 53.4247 8.82105L53.5127 9.04077C53.5078 9.22143 53.4247 9.40209 53.3023 9.7097C52.5147 11.653 51.6292 13.5524 51.4335 15.6275C51.2476 17.5659 51.1448 19.519 50.9932 21.4672C50.6409 25.9007 50.2935 30.3341 49.9119 34.7676C49.8777 35.1777 49.863 35.5928 49.863 36.0029C49.863 37.6435 50.0979 39.2841 50.2055 40.9442C50.4256 44.3963 50.6996 47.8434 51.0029 51.2857C51.2231 53.7759 51.1888 56.2758 51.683 58.7074C51.9472 60.0159 52.4413 61.2415 53.0822 62.4085C53.1898 62.6135 53.273 62.7698 53.2779 62.9407C53.2877 63.0774 53.18 63.2239 53.0479 63.2678C52.9207 63.3215 52.7691 63.3313 52.5587 63.3313H52.5391C50.3376 63.3215 48.1409 63.3166 45.9393 63.3166C43.7378 63.3166 41.4188 63.3166 39.1634 63.3166C33.8992 63.3166 28.6399 63.3166 23.3757 63.3166C18.1115 63.3166 12.8523 63.3166 7.59296 63.3166C7.19667 63.3069 6.9863 63.341 6.7955 63.2043L6.69765 62.9846C6.70744 62.7942 6.81018 62.6282 6.96673 62.3352L6.97162 62.3401ZM3.15558 68.7218C3.36106 67.9991 3.54207 67.2716 3.69374 66.5441C3.73777 66.3146 3.8454 66.1486 3.99706 66.0656C4.14873 65.9826 4.30528 65.9728 4.44716 65.9728H4.66732C8.91389 65.9728 13.1605 65.9728 17.407 65.9728C22.1967 65.9728 26.9863 65.9728 31.7759 65.9728C39.5597 65.9728 47.3434 65.9728 55.1272 65.9533C55.5088 65.9533 55.8121 66.0021 56.047 66.173C56.2818 66.3488 56.3992 66.6369 56.4384 67.0177C56.4922 67.4816 56.6389 67.9552 56.7955 68.419C56.8493 68.5899 56.8885 68.7315 56.8885 68.8682C56.8933 69.0343 56.8102 69.21 56.6585 69.2882C56.5117 69.3663 56.3307 69.3907 56.1008 69.3907H56.0665C54.6184 69.376 53.1654 69.3712 51.7172 69.3712C50.1272 69.3712 48.5323 69.376 46.9374 69.376H13.0528C10.2397 69.376 7.42172 69.376 4.60861 69.376C4.36888 69.376 4.13405 69.3712 3.89922 69.3712H3.68885H3.64971C3.52251 69.3712 3.40998 69.3614 3.29746 69.3028C3.18004 69.2442 3.10665 69.0977 3.11644 68.9659L3.15558 68.7218Z" fill="#545DEB"/>
<path d="M38.3432 36.7573C40.4371 34.6626 41.6553 32.1431 41.8706 29.1598V29.0329C41.8755 28.8717 41.8461 28.7887 41.807 28.7497C41.7727 28.7106 41.7042 28.6764 41.533 28.6764H41.4352C41.1416 28.7008 40.8481 28.7106 40.5545 28.7106C40.261 28.7106 39.9479 28.7008 39.6446 28.6911H39.5712C39.4097 28.6911 39.3363 28.7204 39.3021 28.7546C39.2678 28.7887 39.2287 28.8766 39.2238 29.0719C39.214 29.6237 39.126 30.1754 38.9988 30.7076C37.9714 35.0239 34.444 37.7143 30.0311 37.7094C29.6054 37.7094 29.1651 37.685 28.7248 37.6313C24.5369 37.1528 21.5232 34.1646 20.8285 29.819C20.7502 29.3356 20.7111 28.8522 20.7111 28.3688C20.7111 24.8582 22.7414 21.5526 25.9557 20.0976C27.032 19.6093 28.1671 19.3017 29.3657 19.287C29.5761 19.287 29.6886 19.2431 29.7424 19.1991C29.7913 19.1552 29.8305 19.0771 29.8305 18.8964V18.789C29.806 18.5156 29.7962 18.2373 29.7962 17.9589C29.7962 17.6806 29.806 17.4121 29.8305 17.1435V17.0068C29.8305 16.8213 29.7962 16.7529 29.7522 16.7139C29.7082 16.6748 29.6005 16.6406 29.4195 16.6406H29.2678C23.2209 17.0117 18.1279 22.412 18.1328 28.6569V28.8034C18.1328 29.2379 18.1915 29.7994 18.2796 30.361C19.0966 35.7465 24.3902 40.3363 29.8403 40.3509H29.8843C33.2062 40.3509 36.0095 39.0863 38.3432 36.7621V36.7573Z" fill="#545DEB"/>
<path d="M27.0331 45.2441C26.8521 45.2441 26.671 45.2441 26.49 45.2441C24.7337 45.2441 22.9822 45.2441 21.2258 45.2441C18.8433 45.2441 16.4656 45.2441 14.083 45.2344C13.8677 45.2344 13.7356 45.2637 13.6818 45.3027C13.6329 45.3369 13.5986 45.3906 13.5938 45.5762V45.6787C13.6182 45.957 13.628 46.2353 13.628 46.5185C13.628 46.8017 13.6182 47.1044 13.5986 47.3974V47.4999C13.5986 47.6806 13.628 47.7538 13.6769 47.7929C13.721 47.8368 13.8384 47.8759 14.0585 47.8759C18.4665 47.8661 22.8746 47.8661 27.2826 47.8661C31.4851 47.8661 35.6877 47.8661 39.8902 47.8759C40.1006 47.8759 40.2376 47.8466 40.2963 47.8027C40.3501 47.7587 40.3941 47.6952 40.3941 47.5048V47.4267C40.3746 47.1581 40.3648 46.8896 40.3648 46.6211C40.3648 46.3525 40.3746 46.0644 40.3941 45.7861V45.6689C40.3941 45.4639 40.355 45.3809 40.2963 45.332C40.2327 45.2783 40.0908 45.2393 39.8413 45.2393C37.6495 45.249 35.4529 45.2539 33.2611 45.2539C31.1818 45.2539 29.1074 45.2539 27.0282 45.2539L27.0331 45.2441Z" fill="#545DEB"/>
<path d="M41.7412 25.1171C41.8488 25.0341 41.883 24.7167 41.8781 24.0478V23.9599C41.8781 23.5449 41.8781 23.2471 41.8488 23.0517C41.8145 22.8516 41.7705 22.7881 41.6922 22.7393C41.6335 22.7051 41.5357 22.6758 41.3889 22.6611C41.1932 22.6416 40.9095 22.6367 40.5327 22.6367C40.1316 22.6367 39.8429 22.6367 39.657 22.666C39.4662 22.6953 39.4026 22.7393 39.3586 22.8125C39.3243 22.8662 39.2999 22.9541 39.2852 23.0908C39.2656 23.2715 39.2656 23.5351 39.2656 23.8867C39.2656 24.3164 39.2656 24.624 39.295 24.8242C39.3292 25.0292 39.3733 25.1025 39.4515 25.1513C39.5053 25.1855 39.5983 25.2148 39.7402 25.2294C39.931 25.2538 40.205 25.2538 40.567 25.2538H40.6551C41.34 25.2587 41.6629 25.2245 41.7461 25.1171H41.7412Z" fill="#545DEB"/>
<path d="M46.2591 45.3557C46.1613 45.2678 45.8188 45.2385 45.1632 45.2434H44.8893C44.2875 45.2336 44.0037 45.2825 43.9157 45.3801C43.8129 45.4631 43.7689 45.7463 43.7738 46.3322V46.5862C43.7738 47.2551 43.7983 47.6066 43.8912 47.7092C43.9548 47.8117 44.1897 47.8654 44.7718 47.8605H45.0409C45.6084 47.8605 45.9607 47.8508 46.1319 47.7873C46.2885 47.7238 46.3276 47.6701 46.3765 47.3723C46.401 47.1818 46.401 46.9035 46.401 46.5373V46.469V46.2053C46.401 45.927 46.3961 45.7219 46.3668 45.5901C46.3423 45.4534 46.3032 45.3948 46.2542 45.3557H46.2591Z" fill="#545DEB"/>
<path d="M34.589 16.6097C34.4618 16.6097 34.3444 16.6097 34.2416 16.6097C33.6986 16.6048 33.4344 16.6537 33.3561 16.7513C33.2583 16.8343 33.2142 17.1077 33.2191 17.6644C33.2191 17.7718 33.2191 17.889 33.2191 18.0159C33.2191 18.6653 33.2436 19.0022 33.3365 19.0999C33.4001 19.2024 33.635 19.2512 34.2123 19.2464H34.496C35.0586 19.2464 35.4109 19.2366 35.5821 19.1731C35.7387 19.1096 35.7778 19.0559 35.8219 18.763C35.8463 18.5725 35.8463 18.2991 35.8463 17.9329V17.6546C35.8512 17.0589 35.8023 16.8099 35.6947 16.7415C35.5968 16.6439 35.2494 16.6195 34.5792 16.6195L34.589 16.6097Z" fill="#545DEB"/>
</g>
<defs>
<clipPath id="clip0_1962_14946">
<rect width="60" height="72" fill="white"/>
</clipPath>
</defs>
</svg>
