<svg width="61" height="72" viewBox="0 0 61 72" fill="none" xmlns="http://www.w3.org/2000/svg">
<path d="M33.0468 71.9955C32.6157 71.7458 32.289 71.4189 32.044 70.9649C29.4531 66.1479 27.5972 61.0677 26.6489 55.6787C25.9319 51.6244 25.7414 47.5339 26.118 43.4297C26.2768 41.7227 26.3086 41.7953 24.6024 41.9724C15.8949 42.8713 8.0404 39.5934 3.75696 31.2353C1.90564 27.626 0.966367 23.7579 0.444549 19.7672C0.0089449 16.4303 -0.0409681 13.0843 0.0225575 9.72924C0.0497828 8.38994 0.671427 7.79974 1.96916 8.01766C7.84075 9.00284 13.5172 10.5918 18.6583 13.7199C19.3162 14.1194 19.9651 14.5462 20.5731 15.0183C21.0132 15.3543 21.1947 15.259 21.4443 14.7959C22.9689 11.9448 25.0471 9.5658 27.5881 7.57273C31.0911 4.82603 35.0933 3.13261 39.354 1.97036C43.5512 0.830822 47.8392 0.317801 52.1726 0.10896C52.4993 0.0953402 52.8305 0.14074 53.1436 0H59.7503C61.0117 0.558421 61.1524 0.839902 60.8892 2.43798C59.9182 8.29914 58.448 14.0195 55.966 19.4403C53.6337 24.5387 50.53 29.0561 45.9425 32.4111C42.9477 34.6039 39.6081 35.9841 35.969 36.6924C34.1449 37.0465 32.3027 37.1554 30.4559 37.2054C30.0929 37.2145 29.8978 37.2599 29.7934 37.7048C28.9176 41.423 28.5683 45.1867 28.6998 48.9958C28.9177 55.261 30.4604 61.1993 33.1149 66.8607C33.5323 67.7506 33.9861 68.6222 34.4308 69.4985C35.0524 70.7197 34.9571 71.1828 33.8863 72H33.0423L33.0468 71.9955ZM29.5711 28.2933C29.8524 28.1163 29.8841 27.8484 29.9794 27.6169C31.2636 24.5433 32.7972 21.6014 34.6849 18.8501C34.8165 18.6549 34.9435 18.4551 35.0932 18.2781C35.6105 17.6652 36.3638 17.529 36.9718 17.9285C37.6025 18.3416 37.8067 19.1498 37.3529 19.8489C36.5271 21.1247 35.6922 22.4004 34.9617 23.7352C33.1875 26.9631 31.7718 30.3409 30.71 33.873C30.5965 34.2453 30.592 34.4632 31.0821 34.3996C32.0576 34.2771 33.0423 34.3134 34.0178 34.1817C38.9547 33.5143 43.2381 31.5031 46.8137 28.0346C50.2895 24.6613 52.6036 20.5345 54.3824 16.0853C56.0113 12.0129 57.055 7.76795 57.8989 3.47311C58.0033 2.94647 57.908 2.80119 57.3454 2.80573C54.6773 2.81481 52.0092 2.86929 49.3502 3.10083C44.0005 3.56845 38.7913 4.59449 33.918 6.93259C29.4485 9.07548 25.8866 12.2035 23.586 16.6755C23.3501 17.1385 23.4 17.3882 23.7585 17.7424C25.2831 19.2496 26.5354 20.9658 27.5428 22.8635C28.4548 24.5841 29.1173 26.3956 29.5756 28.307L29.5711 28.2933ZM25.1061 39.0713C25.0743 38.9487 25.0698 38.8761 25.038 38.8171C22.1431 33.1602 18.1818 28.4522 12.7731 25.0336C12.3964 24.7975 12.0108 24.566 11.6704 24.2845C11.1668 23.8668 11.0579 23.1904 11.3483 22.6274C11.6387 22.0644 12.2376 21.7784 12.8865 21.9419C13.1542 22.01 13.4083 22.1462 13.6488 22.2869C19.2028 25.6193 23.4181 30.2365 26.6353 35.8161C26.7669 36.0431 26.8213 36.3337 27.1707 36.5017C27.4066 34.386 27.4157 32.3249 27.0936 30.2819C26.2949 25.1971 23.8174 21.0702 19.7836 17.8876C14.9102 14.0422 9.18386 12.2535 3.20791 11.0685C2.78592 10.9868 2.80407 11.1957 2.79954 11.4771C2.74055 16.4893 3.13985 21.447 4.69169 26.2503C5.49484 28.7383 6.62469 31.0673 8.26274 33.1284C11.3029 36.9511 15.3504 38.8262 20.142 39.2166C21.7892 39.3528 23.4454 39.3392 25.1061 39.0668V39.0713Z" fill="#B0439A"/>
</svg>
