<svg width="78" height="26" viewBox="0 0 78 26" fill="none" xmlns="http://www.w3.org/2000/svg">
<path d="M74.514 1H3.47089C2.10625 1 1 2.17978 1 3.63512V22.7344C1 24.1898 2.10625 25.3696 3.47089 25.3696H74.514C75.8786 25.3696 76.9849 24.1898 76.9849 22.7344V3.63512C76.9849 2.17978 75.8786 1 74.514 1Z" stroke="#F2F7F4" stroke-miterlimit="10"/>
<path d="M18.5226 14.1849C18.1563 12.2032 19.7747 11.1449 19.888 11.0738C19.6415 10.7187 19.3552 10.4559 19.0621 10.2641C18.0964 9.62489 16.9176 9.56096 16.2183 9.88769C16.2116 9.88769 16.2049 9.88769 16.1983 9.89479C15.5123 10.2144 14.7397 10.2144 14.0537 9.89479C14.0471 9.89479 14.0404 9.89479 14.0337 9.88769C13.3344 9.56096 12.1556 9.61778 11.1899 10.2641C10.2242 10.9034 9.2851 12.3524 9.76463 15.1295C10.2375 17.9067 11.9758 19.5972 11.9758 19.5972C11.9758 19.5972 12.8016 20.3572 13.8939 19.8529C14.5732 19.5332 14.8862 19.4835 15.0261 19.4835C15.0927 19.4835 15.1593 19.4835 15.2326 19.4835C15.3724 19.4835 15.6788 19.5332 16.3648 19.8529C17.457 20.3572 18.2829 19.5972 18.2829 19.5972C18.2829 19.5972 19.5017 18.4181 20.1743 16.4009C19.5949 16.1168 18.7624 15.4918 18.5226 14.192V14.1849Z" fill="#F3F8F5"/>
<path d="M14.8262 9.77384C14.8262 9.77384 14.5199 7.00376 17.4436 6.51367L17.4303 6.88302C17.3837 8.41722 16.2582 9.66019 14.8262 9.77384Z" fill="#F3F8F5"/>
<path d="M23.8641 9.67325C23.7842 9.67325 23.7109 9.64484 23.6377 9.58802C23.5777 9.5383 23.4978 9.44596 23.4978 9.26129V5.59627C23.4978 5.4116 23.5711 5.31215 23.6377 5.26954C23.7109 5.21271 23.7842 5.19141 23.8641 5.19141H24.6633C25.0096 5.19141 25.3093 5.24113 25.5558 5.34767C25.8022 5.45421 26.0153 5.60337 26.1885 5.80224C26.355 5.99402 26.4882 6.22841 26.5748 6.49831C26.6547 6.76111 26.7013 7.05944 26.7013 7.37196C26.7013 7.7342 26.6547 8.06093 26.5681 8.33794C26.4815 8.62915 26.3417 8.87774 26.1685 9.07662C25.9887 9.2755 25.7689 9.42465 25.5091 9.5312C25.2561 9.63063 24.9564 9.68036 24.6167 9.68036H23.8641V9.67325ZM24.65 8.90615C24.8831 8.90615 25.0829 8.87775 25.2427 8.81382C25.3893 8.757 25.5091 8.67176 25.609 8.55812C25.7089 8.43737 25.7822 8.28822 25.8355 8.10354C25.8888 7.90467 25.9154 7.67028 25.9154 7.39327C25.9154 7.18018 25.8888 6.9813 25.8422 6.79663C25.7955 6.62616 25.7223 6.47701 25.6224 6.35626C25.5225 6.23551 25.4026 6.14318 25.2494 6.07215C25.0962 6.00113 24.8964 5.9656 24.6433 5.9656H24.2571V8.92036H24.6433L24.65 8.90615Z" fill="#F3F8F5"/>
<path d="M26.5014 7.36641C26.5014 7.70735 26.4615 8.00567 26.3815 8.26847C26.3016 8.53127 26.1817 8.74435 26.0286 8.92192C25.8687 9.09949 25.6756 9.22734 25.4491 9.31967C25.216 9.41201 24.943 9.45463 24.6233 9.45463H23.8707C23.8374 9.45463 23.7974 9.44042 23.7641 9.41201C23.7242 9.3836 23.7109 9.33388 23.7109 9.25575V5.59072C23.7109 5.51259 23.7308 5.46287 23.7641 5.43446C23.8041 5.40605 23.8374 5.39185 23.8707 5.39185H24.6699C24.9962 5.39185 25.2693 5.44156 25.4891 5.5339C25.7089 5.62623 25.8954 5.7612 26.0485 5.93166C26.2017 6.10213 26.3149 6.3081 26.3882 6.5567C26.4615 6.79819 26.5014 7.0681 26.5014 7.36641ZM26.1151 7.38772C26.1151 7.15333 26.0885 6.93315 26.0286 6.72717C25.9686 6.52119 25.8887 6.35072 25.7688 6.20156C25.6489 6.0524 25.5024 5.93876 25.3226 5.86063C25.1428 5.7754 24.9163 5.73989 24.6366 5.73989H24.0505V9.1208H24.6366C24.8963 9.1208 25.1161 9.08528 25.296 9.02136C25.4758 8.95033 25.6223 8.85089 25.7422 8.70884C25.8621 8.56678 25.9486 8.38922 26.0086 8.16903C26.0685 7.95595 26.0952 7.69315 26.0952 7.39483L26.1151 7.38772Z" fill="#F3F8F5"/>
<path d="M28.3463 9.72457C28.1132 9.72457 27.9001 9.68195 27.7203 9.60382C27.5338 9.51859 27.3806 9.39784 27.2541 9.24158C27.1342 9.09242 27.041 8.90064 26.981 8.68756C26.9211 8.48158 26.8944 8.24719 26.8944 7.99859C26.8944 7.74999 26.9211 7.52271 26.981 7.30962C27.041 7.09654 27.1409 6.90477 27.2608 6.74141C27.3873 6.57805 27.5471 6.45019 27.7403 6.35785C27.9268 6.27262 28.1465 6.2229 28.393 6.2229C28.6394 6.2229 28.8325 6.26552 29.0124 6.34365C29.1988 6.42888 29.352 6.54963 29.4786 6.69878C29.5984 6.84794 29.6917 7.03973 29.7516 7.25281C29.8116 7.45879 29.8382 7.69317 29.8382 7.94177C29.8382 8.19036 29.8049 8.41765 29.745 8.63074C29.685 8.84382 29.5851 9.0356 29.4652 9.19896C29.3387 9.36232 29.1789 9.49018 28.9857 9.58252C28.7992 9.67485 28.5794 9.71746 28.333 9.71746L28.3463 9.72457ZM28.3796 6.97579C28.2531 6.97579 28.1465 6.9971 28.0533 7.04682C27.9667 7.08944 27.9001 7.15336 27.8402 7.23149C27.7802 7.31672 27.7403 7.42327 27.707 7.53692C27.6737 7.66477 27.6604 7.80682 27.6604 7.95598C27.6604 8.10513 27.6737 8.24719 27.7003 8.37504C27.727 8.49578 27.7603 8.60233 27.8202 8.68756C27.8735 8.76569 27.9334 8.82962 28.02 8.87934C28.1066 8.92906 28.2198 8.95037 28.3597 8.95037C28.4862 8.95037 28.5994 8.92906 28.686 8.87934C28.7726 8.83672 28.8392 8.7728 28.8991 8.69467C28.9591 8.60944 28.999 8.50999 29.0323 8.38925C29.0656 8.2614 29.079 8.11935 29.079 7.96309C29.079 7.82103 29.0656 7.67897 29.039 7.54401C29.0124 7.42327 28.9724 7.31672 28.9191 7.23149C28.8658 7.14626 28.7992 7.08233 28.7126 7.03262C28.6261 6.9829 28.5128 6.96159 28.373 6.96159L28.3796 6.97579Z" fill="#F3F8F5"/>
<path d="M29.6517 7.94866C29.6517 8.17595 29.6251 8.38193 29.5718 8.5737C29.5185 8.76548 29.4319 8.92885 29.3254 9.0709C29.2188 9.21296 29.0789 9.31949 28.9191 9.39762C28.7593 9.47575 28.5661 9.51837 28.353 9.51837C28.1399 9.51837 27.96 9.48286 27.8069 9.41183C27.6537 9.3408 27.5205 9.24137 27.4139 9.11352C27.3074 8.98567 27.2274 8.82231 27.1808 8.63763C27.1275 8.45296 27.1009 8.23988 27.1009 8.00549C27.1009 7.7711 27.1275 7.57222 27.1808 7.38044C27.2341 7.18867 27.314 7.02531 27.4272 6.88325C27.5338 6.74119 27.6737 6.63465 27.8335 6.55652C27.9933 6.47839 28.1865 6.44287 28.4063 6.44287C28.626 6.44287 28.7992 6.47839 28.9524 6.54942C29.1056 6.62045 29.2388 6.71988 29.3453 6.84773C29.4519 6.97558 29.5252 7.13895 29.5784 7.32362C29.6317 7.50829 29.6584 7.72138 29.6584 7.94866H29.6517ZM29.2787 7.98418C29.2787 7.82082 29.2654 7.67165 29.2321 7.52249C29.2055 7.37334 29.1522 7.24548 29.0856 7.13184C29.019 7.0182 28.9258 6.93297 28.8059 6.86194C28.6926 6.79802 28.5461 6.7625 28.373 6.7625C28.2131 6.7625 28.0799 6.79091 27.96 6.85483C27.8402 6.91876 27.7469 6.99689 27.6737 7.11053C27.6004 7.21707 27.5471 7.34493 27.5072 7.49409C27.4672 7.64325 27.4539 7.79951 27.4539 7.96997C27.4539 8.14044 27.4672 8.2896 27.5005 8.43876C27.5271 8.58791 27.5804 8.71576 27.647 8.8294C27.7136 8.94304 27.8069 9.02829 27.9267 9.09221C28.04 9.15613 28.1865 9.19165 28.3596 9.19165C28.5195 9.19165 28.6527 9.16323 28.7726 9.09931C28.8858 9.03538 28.9857 8.95726 29.059 8.85072C29.1322 8.74418 29.1855 8.61632 29.2255 8.47426C29.2654 8.33221 29.2787 8.16884 29.2787 7.99838V7.98418Z" fill="#F3F8F5"/>
<path d="M32.742 9.68811C32.6887 9.68811 32.6554 9.6739 32.6288 9.6668L32.5888 9.65259L32.5089 9.59577C32.4756 9.56025 32.449 9.51764 32.429 9.46081L32.0027 7.91952L31.5898 9.52475L31.5232 9.60998C31.4833 9.64549 31.4433 9.6668 31.3967 9.68101C31.3634 9.68811 31.3234 9.69521 31.2835 9.70232C31.2502 9.70232 31.2102 9.70232 31.1702 9.70232C31.1236 9.70232 31.0837 9.70232 31.0504 9.70232C31.0037 9.70232 30.9704 9.68811 30.9371 9.68101L30.8905 9.6668L30.8106 9.60288C30.7773 9.56736 30.7507 9.52474 30.7373 9.47502L29.8982 6.64813C29.8982 6.64813 29.8915 6.5913 29.8915 6.56999V6.51317L29.9315 6.42794C29.9581 6.37112 30.0114 6.3356 30.0713 6.31429H30.0913L30.1646 6.29299C30.1912 6.29299 30.2245 6.29299 30.2645 6.29299C30.3111 6.29299 30.4176 6.30009 30.4176 6.30009L30.5042 6.3285C30.5575 6.34981 30.5975 6.39242 30.6241 6.43504L30.6374 6.45635L30.6574 6.52027L31.1636 8.31017L31.6364 6.48477L31.6697 6.42083C31.703 6.37111 31.7363 6.3427 31.783 6.32139L31.8096 6.3072L31.8895 6.28589C31.9228 6.28589 31.9628 6.28589 32.0027 6.28589C32.0427 6.28589 32.0827 6.28589 32.1093 6.28589H32.136L32.2159 6.31429C32.2692 6.34271 32.3158 6.37822 32.3424 6.42794L32.3557 6.44925L32.3757 6.50607L32.8819 8.33148L33.4014 6.47766L33.4347 6.41373C33.4613 6.37112 33.5013 6.3427 33.5479 6.32139L33.5745 6.3072L33.6611 6.28589C33.6944 6.28589 33.7344 6.28589 33.781 6.28589C33.821 6.28589 33.9142 6.29299 33.9142 6.29299L33.9941 6.32139C34.0474 6.3498 34.0874 6.39243 34.1073 6.44925L34.1273 6.49186V6.57709C34.1273 6.57709 34.1273 6.63392 34.1273 6.66943L33.2748 9.54605L33.2149 9.62419C33.2149 9.62419 33.1416 9.681 33.1017 9.69521C33.0684 9.70941 33.0284 9.71651 32.9818 9.71651C32.9485 9.71651 32.9085 9.71651 32.8686 9.71651C32.8219 9.71651 32.782 9.71651 32.742 9.71651V9.68811Z" fill="#F3F8F5"/>
<path d="M33.9409 6.54828C33.9409 6.54828 33.9409 6.56959 33.9409 6.58379C33.9409 6.598 33.9409 6.6122 33.9276 6.62641L33.1017 9.38938C33.1017 9.38938 33.0884 9.41779 33.0817 9.432C33.0684 9.4391 33.0551 9.4533 33.0418 9.46041C33.0218 9.46041 33.0018 9.46751 32.9752 9.47461C32.9485 9.47461 32.9152 9.47461 32.8753 9.47461C32.8353 9.47461 32.802 9.47461 32.7687 9.47461C32.7421 9.47461 32.7154 9.46751 32.6954 9.46041C32.6755 9.46041 32.6621 9.4462 32.6488 9.432C32.6355 9.4249 32.6288 9.41069 32.6288 9.39648L32.0095 7.15201V7.1236L31.9961 7.15201L31.4167 9.39648C31.4167 9.39648 31.4034 9.42489 31.3901 9.4391C31.3767 9.4462 31.3634 9.46041 31.3434 9.46751C31.3235 9.46751 31.2968 9.47462 31.2702 9.48172C31.2435 9.48172 31.2102 9.48172 31.1703 9.48172C31.1303 9.48172 31.097 9.48172 31.0704 9.48172C31.0437 9.48172 31.0171 9.47462 31.0038 9.46751C30.9838 9.46751 30.9705 9.4533 30.9638 9.4391C30.9572 9.42489 30.9438 9.4178 30.9438 9.40359L30.1246 6.64062C30.1246 6.64062 30.1113 6.6122 30.1113 6.59799C30.1113 6.58379 30.1113 6.56959 30.1113 6.56249C30.1113 6.54828 30.1113 6.53407 30.118 6.52697C30.118 6.51987 30.1313 6.50566 30.1446 6.50566C30.1579 6.50566 30.1779 6.49856 30.1979 6.49146C30.2179 6.49146 30.2445 6.49146 30.2778 6.49146C30.3178 6.49146 30.3511 6.49146 30.3777 6.49146C30.4044 6.49146 30.4244 6.49856 30.4377 6.50566C30.451 6.50566 30.4577 6.51986 30.4643 6.53407C30.4643 6.54117 30.4776 6.55538 30.4776 6.56959L31.1836 9.04845V9.06976L31.1969 9.04845L31.8363 6.56959C31.8363 6.56959 31.843 6.54117 31.8496 6.53407C31.8563 6.52697 31.8696 6.51277 31.8763 6.50566C31.8896 6.50566 31.9095 6.49146 31.9295 6.49146C31.9495 6.49146 31.9828 6.49146 32.0161 6.49146C32.0494 6.49146 32.0761 6.49146 32.096 6.49146C32.116 6.49146 32.136 6.49856 32.1493 6.50566C32.1626 6.50566 32.176 6.51986 32.176 6.53407C32.176 6.54117 32.1893 6.55538 32.1893 6.56959L32.8753 9.04845V9.06976L32.8819 9.04845L33.5812 6.56959C33.5812 6.56959 33.5879 6.54117 33.5945 6.53407C33.6012 6.52697 33.6145 6.51277 33.6279 6.50566C33.6412 6.50566 33.6611 6.49146 33.6878 6.49146C33.7144 6.49146 33.7411 6.49146 33.781 6.49146C33.8143 6.49146 33.841 6.49146 33.8543 6.49146C33.8743 6.49146 33.8876 6.49146 33.9009 6.50566C33.9142 6.50566 33.9209 6.51987 33.9276 6.52697C33.9342 6.53407 33.9276 6.54828 33.9276 6.56249L33.9409 6.54828Z" fill="#F3F8F5"/>
<path d="M36.6049 9.68853C36.5583 9.68853 36.5183 9.68854 36.485 9.68144H36.4584L36.3784 9.64592C36.3318 9.62461 36.2919 9.58199 36.2652 9.53227L36.2386 9.48256V9.39022L36.2319 7.70687C36.2319 7.55061 36.2186 7.42275 36.1986 7.33041C36.1786 7.24518 36.152 7.17416 36.112 7.11734C36.0787 7.06762 36.0388 7.0321 35.9922 7.00369C35.9389 6.97528 35.8789 6.96108 35.8057 6.96108C35.7124 6.96108 35.6192 6.99659 35.5126 7.07472C35.4061 7.15996 35.2928 7.2736 35.173 7.42986V9.44704L35.133 9.53227C35.1064 9.57489 35.0664 9.61751 35.0131 9.64592L34.9865 9.66013L34.9066 9.68144C34.9066 9.68144 34.8333 9.68853 34.7867 9.68853C34.7401 9.68853 34.7001 9.68854 34.6668 9.68144H34.6402L34.5669 9.65302C34.4936 9.6175 34.4603 9.56779 34.4404 9.52517L34.4204 9.48256V9.39732L34.4137 6.5136L34.4404 6.43547C34.4737 6.37154 34.507 6.33603 34.5602 6.30762L34.5869 6.29341L34.6668 6.27211C34.7001 6.27211 34.7334 6.27211 34.78 6.27211C34.8266 6.27211 34.9265 6.27921 34.9265 6.27921L35.0131 6.31472C35.0664 6.35024 35.0997 6.38575 35.1197 6.43547L35.1397 6.47808C35.1929 6.44257 35.2529 6.40706 35.3062 6.37864C35.4793 6.27921 35.6591 6.22949 35.839 6.22949C36.0454 6.22949 36.2253 6.265 36.3718 6.34313C36.5183 6.42126 36.6382 6.52781 36.7314 6.66276C36.818 6.79061 36.8846 6.94686 36.9246 7.11023C36.9579 7.26649 36.9778 7.45827 36.9778 7.67135V9.44704L36.9379 9.53227C36.9112 9.57489 36.8713 9.61751 36.818 9.64592L36.798 9.66013L36.7181 9.68144C36.7181 9.68144 36.6448 9.68853 36.5982 9.68853H36.6049Z" fill="#F3F8F5"/>
<path d="M36.778 9.39686C36.778 9.39686 36.778 9.41817 36.7713 9.43238C36.7713 9.43948 36.758 9.45368 36.7447 9.46078C36.7314 9.46078 36.7114 9.47499 36.6914 9.47499C36.6714 9.47499 36.6381 9.47499 36.6048 9.47499C36.5715 9.47499 36.5382 9.47499 36.5182 9.47499C36.4983 9.47499 36.4783 9.46789 36.465 9.46078C36.4516 9.46078 36.445 9.44658 36.4383 9.43238C36.4383 9.42527 36.4317 9.41107 36.4317 9.39686V7.71351C36.4317 7.53594 36.4183 7.39388 36.3917 7.28734C36.3651 7.1808 36.3251 7.08136 36.2785 7.00323C36.2319 6.9251 36.1653 6.86118 36.0853 6.81857C36.0054 6.77595 35.9122 6.75463 35.8056 6.75463C35.6724 6.75463 35.5325 6.80435 35.3993 6.91089C35.2661 7.01033 35.1196 7.16659 34.9731 7.36547V9.40397C34.9731 9.40397 34.9731 9.42527 34.9664 9.43948C34.9664 9.44658 34.9531 9.46079 34.9398 9.46789C34.9265 9.46789 34.9065 9.4821 34.8865 9.4821C34.8665 9.4821 34.8332 9.4821 34.7999 9.4821C34.7666 9.4821 34.74 9.4821 34.7134 9.4821C34.6867 9.4821 34.6734 9.475 34.6601 9.46789C34.6468 9.46789 34.6401 9.45368 34.6334 9.43948C34.6268 9.42527 34.6268 9.41818 34.6268 9.40397V6.56287C34.6268 6.56287 34.6268 6.54156 34.6334 6.52735C34.6401 6.51314 34.6468 6.50604 34.6601 6.49893C34.6734 6.49183 34.6934 6.48473 34.7134 6.48473C34.7333 6.48473 34.76 6.48473 34.7933 6.48473C34.8266 6.48473 34.8532 6.48473 34.8732 6.48473C34.8932 6.48473 34.9132 6.49183 34.9265 6.49893C34.9398 6.50604 34.9465 6.51314 34.9531 6.52735C34.9598 6.54156 34.9598 6.54866 34.9598 6.56287V6.96772C35.113 6.78305 35.2661 6.6552 35.4127 6.56996C35.5592 6.49183 35.7057 6.44922 35.8522 6.44922C36.0254 6.44922 36.1719 6.47763 36.2918 6.54156C36.4117 6.60548 36.5049 6.69071 36.5848 6.79725C36.6581 6.90379 36.7114 7.03165 36.7447 7.1737C36.778 7.31576 36.7913 7.48622 36.7913 7.68509V9.40397L36.778 9.39686Z" fill="#F3F8F5"/>
<path d="M37.9235 9.68848C37.8769 9.68848 37.8369 9.68848 37.8036 9.68138H37.777L37.7037 9.65296C37.6305 9.61745 37.5972 9.56773 37.5772 9.52512L37.5572 9.4825V9.39726L37.5505 5.1214L37.5772 5.04327C37.6038 4.98645 37.6438 4.94383 37.6904 4.91542L37.7237 4.89411L37.817 4.8728C37.817 4.8728 37.8769 4.8728 37.9235 4.8728C37.9701 4.8728 38.0101 4.8728 38.0367 4.8728H38.07L38.15 4.90832C38.2032 4.93673 38.2365 4.97224 38.2632 5.01486L38.2898 5.06458V5.15691L38.2965 9.44698L38.2565 9.53221C38.2299 9.57483 38.1899 9.61745 38.1366 9.64586L38.1167 9.66007L38.0367 9.68138C38.0367 9.68138 37.9635 9.68848 37.9169 9.68848H37.9235Z" fill="#F3F8F5"/>
<path d="M38.1034 9.39609C38.1034 9.39609 38.1034 9.4174 38.0967 9.43161C38.0901 9.44581 38.0834 9.45291 38.0701 9.46001C38.0568 9.46001 38.0368 9.47422 38.0168 9.47422C37.9968 9.47422 37.9635 9.47422 37.9302 9.47422C37.8969 9.47422 37.8703 9.47422 37.8437 9.47422C37.817 9.47422 37.8037 9.46711 37.7904 9.46001C37.7771 9.46001 37.7704 9.44581 37.7637 9.43161C37.7637 9.4245 37.7571 9.41029 37.7571 9.39609V5.16285C37.7571 5.16285 37.7571 5.14154 37.7637 5.12733C37.7637 5.12023 37.7771 5.10602 37.7904 5.09891C37.8037 5.09181 37.8237 5.08472 37.8437 5.08472C37.8636 5.08472 37.8969 5.08472 37.9302 5.08472C37.9635 5.08472 37.9968 5.08472 38.0168 5.08472C38.0368 5.08472 38.0568 5.09181 38.0701 5.09891C38.0834 5.10602 38.0901 5.11313 38.0967 5.12733C38.1034 5.14154 38.1034 5.14864 38.1034 5.16285V9.39609Z" fill="#F3F8F5"/>
<path d="M40.1346 9.72457C39.9015 9.72457 39.6884 9.68195 39.5086 9.60382C39.3221 9.51859 39.1689 9.39784 39.0424 9.24158C38.9225 9.09242 38.8293 8.90064 38.7693 8.68756C38.7094 8.48158 38.6827 8.24719 38.6827 7.99859C38.6827 7.74999 38.7094 7.52271 38.7693 7.30962C38.8293 7.08944 38.9292 6.89767 39.049 6.74141C39.1756 6.57805 39.3354 6.45019 39.5286 6.35785C39.7217 6.26552 39.9348 6.2229 40.1813 6.2229C40.4277 6.2229 40.6208 6.26552 40.8006 6.34365C40.9871 6.42888 41.1403 6.54963 41.2669 6.69878C41.3867 6.85505 41.48 7.03973 41.5399 7.25281C41.5999 7.45879 41.6265 7.68607 41.6265 7.94177C41.6265 8.19747 41.5932 8.41765 41.5333 8.63074C41.4733 8.84382 41.3734 9.0356 41.2535 9.19896C41.127 9.36232 40.9671 9.49728 40.774 9.58252C40.5875 9.67485 40.3677 9.71746 40.1213 9.71746L40.1346 9.72457ZM40.1679 6.97579C40.0414 6.97579 39.9348 6.9971 39.8416 7.04682C39.755 7.08944 39.6884 7.15336 39.6285 7.23149C39.5685 7.31672 39.5286 7.42327 39.4953 7.53692C39.462 7.66477 39.4486 7.80682 39.4486 7.95598C39.4486 8.10513 39.462 8.24719 39.4886 8.37504C39.5153 8.49578 39.5552 8.60233 39.6085 8.68756C39.6618 8.77279 39.7217 8.82962 39.8083 8.87934C39.8949 8.92906 40.0081 8.95037 40.148 8.95037C40.2745 8.95037 40.3877 8.92906 40.4743 8.87934C40.5609 8.83672 40.6275 8.7728 40.6874 8.69467C40.7474 8.60944 40.7873 8.50999 40.8206 8.38925C40.8539 8.2614 40.8672 8.11935 40.8672 7.96309C40.8672 7.80683 40.8539 7.67897 40.8273 7.54401C40.8006 7.42327 40.7673 7.31672 40.7074 7.23149C40.6541 7.14626 40.5875 7.08233 40.5009 7.03262C40.4144 6.9829 40.3011 6.96159 40.1613 6.96159L40.1679 6.97579Z" fill="#F3F8F5"/>
<path d="M41.4401 7.94866C41.4401 8.17595 41.4134 8.38193 41.3601 8.5737C41.3069 8.76548 41.2203 8.92885 41.1137 9.0709C41.0072 9.21296 40.8673 9.31949 40.7075 9.39762C40.5476 9.47575 40.3545 9.51837 40.1414 9.51837C39.9282 9.51837 39.7484 9.48286 39.5952 9.41183C39.442 9.3408 39.3088 9.24137 39.2023 9.11352C39.0957 8.98567 39.0158 8.82231 38.9692 8.63763C38.9159 8.45296 38.8893 8.23988 38.8893 8.00549C38.8893 7.7711 38.9159 7.57222 38.9692 7.38044C39.0225 7.18867 39.1024 7.02531 39.2156 6.88325C39.3288 6.74119 39.462 6.63465 39.6219 6.55652C39.7817 6.47839 39.9749 6.44287 40.1946 6.44287C40.4144 6.44287 40.5876 6.47839 40.7408 6.54942C40.8939 6.62045 41.0271 6.71988 41.1337 6.84773C41.2403 6.97558 41.3135 7.13895 41.3668 7.32362C41.4201 7.50829 41.4467 7.72138 41.4467 7.94866H41.4401ZM41.0671 7.98418C41.0671 7.82082 41.0538 7.67165 41.0205 7.52249C40.9872 7.37334 40.9406 7.24548 40.874 7.13184C40.8074 7.0182 40.7141 6.93297 40.5942 6.86194C40.481 6.79802 40.3345 6.7625 40.1613 6.7625C40.0015 6.7625 39.8683 6.79091 39.7484 6.85483C39.6285 6.91876 39.5353 6.99689 39.462 7.11053C39.3888 7.21707 39.3355 7.34493 39.2955 7.49409C39.2556 7.64325 39.2422 7.79951 39.2422 7.96997C39.2422 8.14044 39.2556 8.2896 39.2889 8.43876C39.3155 8.58791 39.3688 8.71576 39.4354 8.8294C39.502 8.94304 39.5952 9.02829 39.7151 9.09221C39.8283 9.15613 39.9749 9.19165 40.148 9.19165C40.3079 9.19165 40.4411 9.16323 40.5609 9.09931C40.6742 9.03538 40.7741 8.95726 40.8473 8.85072C40.9206 8.74418 40.9739 8.61632 41.0138 8.47426C41.0471 8.3251 41.0671 8.16884 41.0671 7.99838V7.98418Z" fill="#F3F8F5"/>
<path d="M42.9319 9.72436C42.7721 9.72436 42.6256 9.70305 42.4924 9.65333C42.3592 9.60361 42.2393 9.53259 42.1394 9.44735C42.0395 9.35502 41.9662 9.24137 41.913 9.10641C41.8597 8.97856 41.833 8.83652 41.833 8.68025C41.833 8.48848 41.873 8.31091 41.9463 8.16885C42.0195 8.0197 42.1327 7.89895 42.2726 7.80662C42.4058 7.71428 42.559 7.65035 42.7388 7.60063C42.9053 7.55802 43.0984 7.53671 43.3049 7.53671H43.5314V7.50829C43.5314 7.40885 43.5247 7.31653 43.5047 7.23839C43.4914 7.18157 43.4648 7.13185 43.4381 7.08923C43.4048 7.05372 43.3649 7.02531 43.3116 7.004C43.2516 6.98269 43.165 6.96849 43.0651 6.96849C42.9652 6.96849 42.8787 6.98269 42.8054 7.004C42.7255 7.03241 42.6522 7.06082 42.5923 7.08923C42.5257 7.12475 42.4724 7.15316 42.4324 7.18157C42.3525 7.23839 42.2926 7.2597 42.226 7.2597H42.186L42.1194 7.23839L42.0595 7.20998L41.9995 7.12475C41.9995 7.12475 41.9662 7.04662 41.9529 6.9969V6.89747C41.9529 6.84064 41.9529 6.78382 41.9596 6.7412C41.9729 6.67728 42.0062 6.61335 42.0595 6.56363C42.0994 6.52102 42.1527 6.4784 42.2393 6.43578C42.3126 6.39316 42.3925 6.35765 42.4857 6.32213C42.579 6.28662 42.6722 6.25821 42.7788 6.2369C42.8853 6.21559 42.9919 6.2085 43.0984 6.2085C43.3049 6.2085 43.4781 6.2369 43.6246 6.29373C43.7778 6.35055 43.9043 6.43578 44.0109 6.54943C44.1108 6.66307 44.184 6.80513 44.224 6.96139C44.264 7.11055 44.2839 7.27391 44.2839 7.45858V9.47576L44.1974 9.58941C44.1574 9.62492 44.1108 9.64623 44.0575 9.66044C44.0309 9.66754 43.9842 9.67464 43.931 9.67464C43.8777 9.67464 43.8377 9.67465 43.8044 9.66044L43.7578 9.64623L43.6646 9.58941C43.6646 9.58941 43.6113 9.53258 43.598 9.49707C43.558 9.52548 43.5114 9.55389 43.4647 9.5752C43.2982 9.66754 43.1118 9.71015 42.9319 9.71015V9.72436ZM43.2516 8.26829C43.1251 8.26829 43.0185 8.2825 42.9253 8.30381C42.8454 8.32512 42.7788 8.35353 42.7255 8.38904C42.6855 8.41745 42.6522 8.45297 42.6322 8.49559C42.6123 8.5382 42.5989 8.58791 42.5989 8.65184C42.5989 8.78679 42.6456 8.85072 42.6789 8.88623C42.7388 8.94305 42.832 8.97857 42.9519 8.97857C43.0585 8.97857 43.1517 8.95016 43.2383 8.89334C43.3249 8.83652 43.4248 8.75128 43.5247 8.63764V8.26829H43.2383H43.2516Z" fill="#F3F8F5"/>
<path d="M44.0908 9.39813C44.0908 9.39813 44.0908 9.43365 44.0708 9.44786C44.0575 9.46206 44.0442 9.46916 44.0175 9.47626C43.9975 9.47626 43.9709 9.48337 43.9309 9.48337C43.8976 9.48337 43.871 9.48336 43.8444 9.47626C43.8177 9.47626 43.8044 9.46206 43.7911 9.44786C43.7778 9.43365 43.7711 9.41944 43.7711 9.39813V9.07851C43.6512 9.21346 43.518 9.32 43.3782 9.39813C43.2316 9.47626 43.0851 9.51178 42.9319 9.51178C42.7921 9.51178 42.6655 9.49047 42.559 9.45495C42.4457 9.41944 42.3525 9.36262 42.2792 9.29159C42.206 9.22057 42.146 9.13534 42.0994 9.02879C42.0595 8.92936 42.0395 8.80861 42.0395 8.68076C42.0395 8.52449 42.0728 8.38954 42.1327 8.26879C42.1927 8.15515 42.2792 8.05571 42.3925 7.97758C42.5057 7.89945 42.6389 7.84263 42.7987 7.80001C42.9586 7.76449 43.1317 7.74319 43.3249 7.74319H43.7511V7.50169C43.7511 7.38095 43.7378 7.27441 43.7178 7.18207C43.6912 7.08974 43.6579 7.0116 43.6046 6.94768C43.5513 6.88375 43.4847 6.84114 43.3981 6.80563C43.3116 6.77011 43.2117 6.7559 43.0918 6.7559C42.9719 6.7559 42.8653 6.77011 42.7721 6.79852C42.6788 6.82693 42.5923 6.86245 42.5257 6.89797C42.4524 6.93348 42.3991 6.96899 42.3525 6.9974C42.3059 7.02581 42.2726 7.04002 42.2526 7.04002C42.2393 7.04002 42.2326 7.04002 42.2193 7.04002C42.206 7.04002 42.1993 7.02581 42.1927 7.01871C42.186 7.00451 42.1793 6.99029 42.1793 6.97609C42.1793 6.96188 42.1793 6.93347 42.1793 6.91216C42.1793 6.86955 42.1793 6.83404 42.186 6.80563C42.1927 6.77722 42.206 6.75591 42.2326 6.7275C42.2593 6.69908 42.2992 6.67067 42.3658 6.63516C42.4324 6.59964 42.499 6.56413 42.5789 6.53572C42.6589 6.50731 42.7454 6.4789 42.8453 6.4647C42.9452 6.45049 43.0318 6.43628 43.1251 6.43628C43.3049 6.43628 43.4647 6.45759 43.5846 6.50731C43.7112 6.55703 43.8111 6.62095 43.891 6.71329C43.9709 6.79852 44.0242 6.91217 44.0575 7.04002C44.0908 7.16787 44.1108 7.31702 44.1108 7.48039V9.39813H44.0908ZM43.7378 8.05571H43.2516C43.1117 8.05571 42.9852 8.06991 42.8786 8.09832C42.7721 8.12673 42.6855 8.16225 42.6122 8.21907C42.539 8.26879 42.4924 8.33272 42.4524 8.41085C42.4191 8.48187 42.3991 8.56711 42.3991 8.65945C42.3991 8.82281 42.4457 8.95066 42.5456 9.0501C42.6455 9.14954 42.7787 9.19925 42.9586 9.19925C43.0984 9.19925 43.225 9.16374 43.3515 9.08561C43.4714 9.00748 43.5979 8.89383 43.7378 8.73047V8.06282V8.05571Z" fill="#F3F8F5"/>
<path d="M45.9556 9.72272C45.7291 9.72272 45.5293 9.673 45.3695 9.57356C45.2096 9.48122 45.0698 9.34627 44.9699 9.18291C44.87 9.02664 44.7967 8.84198 44.7567 8.636C44.7168 8.43712 44.6901 8.22404 44.6901 8.00385C44.6901 7.74105 44.7168 7.50666 44.7701 7.29358C44.8233 7.07339 44.9099 6.88162 45.0231 6.72536C45.1364 6.56199 45.2829 6.43414 45.4494 6.34891C45.6159 6.26368 45.8157 6.22105 46.0288 6.22105C46.222 6.22105 46.4018 6.27078 46.5616 6.36312C46.5949 6.38443 46.6282 6.40573 46.6615 6.42704V5.12723L46.6948 5.042L46.7281 4.97807L46.8214 4.92125C46.8214 4.92125 46.8813 4.89994 46.9146 4.89284C46.9479 4.89284 46.9879 4.88574 47.0345 4.88574C47.0811 4.88574 47.1211 4.88574 47.1544 4.89284H47.181L47.2609 4.92836C47.3076 4.94967 47.3475 4.98517 47.3742 5.03489L47.4008 5.08462V5.17695L47.4075 9.44572L47.3742 9.53094C47.3542 9.57356 47.3142 9.61618 47.2609 9.65169L47.2343 9.6659L47.1544 9.68721C47.1544 9.68721 47.0878 9.68721 47.0478 9.68721C47.0078 9.68721 46.9146 9.68011 46.9146 9.68011L46.8347 9.65169C46.7881 9.63038 46.7481 9.59487 46.7215 9.55225L46.6882 9.49543V9.45281C46.6349 9.48833 46.5883 9.52384 46.5416 9.55225C46.3618 9.6659 46.162 9.72272 45.9489 9.72272H45.9556ZM46.0088 6.96685C45.9156 6.96685 45.8357 6.98816 45.7757 7.03788C45.7025 7.0876 45.6492 7.15152 45.6026 7.23676C45.5493 7.32909 45.516 7.43563 45.4893 7.55638C45.4627 7.68423 45.4494 7.81918 45.4494 7.94703C45.4494 8.08909 45.4627 8.23114 45.4827 8.37319C45.5027 8.50104 45.536 8.60758 45.5826 8.70702C45.6225 8.79225 45.6758 8.86329 45.7491 8.91301C45.809 8.95562 45.889 8.97693 45.9889 8.97693C46.0421 8.97693 46.0888 8.96983 46.142 8.95562C46.1887 8.94142 46.2419 8.91301 46.2952 8.87749C46.3552 8.83488 46.4151 8.78516 46.4817 8.71413C46.535 8.65731 46.6016 8.58628 46.6615 8.50815V7.42142C46.5416 7.27227 46.4284 7.15862 46.3219 7.08049C46.2153 7.00236 46.1154 6.96685 46.0088 6.96685Z" fill="#F3F8F5"/>
<path d="M47.2144 9.39724C47.2144 9.39724 47.2144 9.42566 47.2077 9.43276C47.2077 9.43986 47.1944 9.45406 47.1811 9.46116C47.1678 9.46827 47.1545 9.47537 47.1345 9.47537C47.1145 9.47537 47.0879 9.47537 47.0612 9.47537C47.0279 9.47537 47.0013 9.47537 46.9813 9.47537C46.9613 9.47537 46.9413 9.46827 46.928 9.46116C46.9147 9.45406 46.908 9.44696 46.9014 9.43276C46.8947 9.42566 46.8881 9.41145 46.8881 9.39724V8.99239C46.7482 9.15575 46.6017 9.2836 46.4485 9.37593C46.2953 9.46827 46.1355 9.51799 45.9556 9.51799C45.7625 9.51799 45.6027 9.47537 45.4628 9.39724C45.3296 9.31911 45.2164 9.21258 45.1298 9.07052C45.0432 8.93557 44.9833 8.77221 44.9433 8.59464C44.9033 8.41707 44.8834 8.21819 44.8834 8.01221C44.8834 7.77071 44.91 7.55763 44.9566 7.35875C45.0033 7.16698 45.0765 7.00362 45.1764 6.86156C45.2697 6.72661 45.3895 6.62007 45.5294 6.54904C45.6693 6.47801 45.8358 6.44249 46.0222 6.44249C46.1821 6.44249 46.3286 6.47801 46.4618 6.55614C46.595 6.63427 46.7282 6.74792 46.8548 6.89708V5.18531C46.8548 5.18531 46.8548 5.164 46.8614 5.14979C46.8681 5.13559 46.8747 5.12849 46.8881 5.12139C46.9014 5.12139 46.9214 5.10718 46.9413 5.10718C46.9613 5.10718 46.9946 5.10718 47.0279 5.10718C47.0612 5.10718 47.0945 5.10718 47.1145 5.10718C47.1345 5.10718 47.1545 5.11428 47.1678 5.12139C47.1811 5.12139 47.1878 5.13559 47.1944 5.14979C47.1944 5.1569 47.2011 5.1711 47.2011 5.18531V9.40435L47.2144 9.39724ZM46.8614 7.34454C46.7149 7.15277 46.575 7.01071 46.4352 6.91127C46.2953 6.81184 46.1554 6.76212 46.0089 6.76212C45.8757 6.76212 45.7558 6.79763 45.6626 6.86866C45.5694 6.93969 45.4894 7.03203 45.4295 7.13857C45.3696 7.25221 45.3229 7.38006 45.2963 7.52211C45.2697 7.66417 45.2563 7.80622 45.2563 7.95538C45.2563 8.11164 45.2697 8.26791 45.2896 8.41707C45.3163 8.56623 45.3562 8.70118 45.4095 8.81482C45.4695 8.92847 45.5427 9.0208 45.636 9.09183C45.7292 9.16286 45.8491 9.19837 45.9889 9.19837C46.0622 9.19837 46.1288 9.19127 46.1954 9.16996C46.262 9.14865 46.3286 9.11313 46.4019 9.06341C46.4751 9.01369 46.5484 8.94977 46.6217 8.87874C46.6949 8.80061 46.7748 8.70828 46.8614 8.59464V7.35165V7.34454Z" fill="#F3F8F5"/>
<path d="M50.6111 9.72457C50.3779 9.72457 50.1648 9.68195 49.985 9.60382C49.7985 9.51859 49.6453 9.39784 49.5188 9.24158C49.3989 9.09242 49.3057 8.90064 49.2457 8.68756C49.1858 8.48158 49.1592 8.24719 49.1592 7.99859C49.1592 7.74999 49.1858 7.52271 49.2457 7.30962C49.3057 7.08944 49.4056 6.89767 49.5255 6.74141C49.652 6.57805 49.8118 6.45019 50.005 6.35785C50.1981 6.26552 50.4112 6.2229 50.6577 6.2229C50.9041 6.2229 51.0972 6.26552 51.2771 6.34365C51.4635 6.42888 51.6167 6.54963 51.7433 6.69878C51.8631 6.85505 51.9564 7.03973 52.0163 7.25281C52.0763 7.45879 52.1029 7.68607 52.1029 7.94177C52.1029 8.19747 52.0696 8.41765 52.0097 8.63074C51.9497 8.84382 51.8498 9.0356 51.7299 9.19896C51.6034 9.36232 51.4369 9.49728 51.2504 9.58252C51.0639 9.67485 50.8442 9.71746 50.5977 9.71746L50.6111 9.72457ZM50.6444 6.97579C50.5178 6.97579 50.4112 6.9971 50.318 7.04682C50.2314 7.08944 50.1648 7.15336 50.1049 7.23149C50.0449 7.31672 50.005 7.42327 49.9717 7.53692C49.9384 7.66477 49.9251 7.80682 49.9251 7.95598C49.9251 8.10513 49.9384 8.24719 49.965 8.37504C49.9917 8.49578 50.0316 8.60233 50.0849 8.68756C50.1382 8.77279 50.1981 8.82962 50.2847 8.87934C50.3713 8.92906 50.4845 8.95037 50.6244 8.95037C50.7509 8.95037 50.8641 8.92906 50.9507 8.87934C51.0373 8.83672 51.1039 8.7728 51.1638 8.69467C51.2238 8.60944 51.2637 8.50999 51.297 8.38925C51.3303 8.2614 51.3437 8.11935 51.3437 7.96309C51.3437 7.80683 51.3303 7.67897 51.3037 7.54401C51.2771 7.42327 51.2438 7.31672 51.1838 7.23149C51.1305 7.14626 51.0639 7.08233 50.9774 7.03262C50.8908 6.9829 50.7776 6.96159 50.6377 6.96159L50.6444 6.97579Z" fill="#F3F8F5"/>
<path d="M51.9163 7.94866C51.9163 8.17595 51.8897 8.38193 51.8364 8.5737C51.7831 8.76548 51.6965 8.92885 51.59 9.0709C51.4834 9.21296 51.3436 9.31949 51.1837 9.39762C51.0239 9.47575 50.8307 9.51837 50.6176 9.51837C50.4045 9.51837 50.2247 9.48286 50.0715 9.41183C49.9183 9.3408 49.7851 9.24137 49.6785 9.11352C49.572 8.98567 49.4921 8.82231 49.4454 8.63763C49.3922 8.45296 49.3655 8.23988 49.3655 8.00549C49.3655 7.7711 49.3922 7.57222 49.4454 7.38044C49.4987 7.18867 49.5786 7.02531 49.6919 6.88325C49.7984 6.74119 49.9383 6.63465 50.0981 6.55652C50.258 6.47839 50.4511 6.44287 50.6709 6.44287C50.8907 6.44287 51.0638 6.47839 51.217 6.54942C51.3702 6.62045 51.5034 6.71988 51.61 6.84773C51.7165 6.97558 51.7898 7.13895 51.8431 7.32362C51.8963 7.50829 51.923 7.72138 51.923 7.94866H51.9163ZM51.5434 7.98418C51.5434 7.82082 51.53 7.67165 51.4967 7.52249C51.4634 7.37334 51.4168 7.24548 51.3502 7.13184C51.2836 7.0182 51.1904 6.93297 51.0705 6.86194C50.9573 6.79802 50.8108 6.7625 50.6376 6.7625C50.4778 6.7625 50.3445 6.79091 50.2247 6.85483C50.1114 6.91876 50.0115 6.99689 49.9383 7.11053C49.865 7.21707 49.8117 7.34493 49.7718 7.49409C49.7385 7.64325 49.7185 7.79951 49.7185 7.96997C49.7185 8.14044 49.7318 8.2896 49.7651 8.43876C49.7918 8.58791 49.845 8.71576 49.9116 8.8294C49.9782 8.94304 50.0715 9.02829 50.1914 9.09221C50.3113 9.15613 50.4511 9.19165 50.6243 9.19165C50.7841 9.19165 50.9173 9.16323 51.0372 9.09931C51.1504 9.03538 51.2503 8.95726 51.3236 8.85072C51.3968 8.74418 51.4501 8.61632 51.4901 8.47426C51.5234 8.3251 51.5434 8.16884 51.5434 7.99838V7.98418Z" fill="#F3F8F5"/>
<path d="M54.687 9.68778C54.6403 9.68778 54.6004 9.68779 54.5671 9.68068H54.5404L54.4605 9.65227C54.4072 9.62386 54.3739 9.58835 54.3473 9.54573L54.3207 9.49601V9.40368L54.314 7.72031C54.314 7.56405 54.3007 7.43621 54.2807 7.34387C54.2607 7.25864 54.2341 7.18761 54.1941 7.13078C54.1608 7.08106 54.1209 7.04556 54.0742 7.01715C54.021 6.98874 53.961 6.97452 53.8878 6.97452C53.7945 6.97452 53.7013 7.01004 53.5947 7.08817C53.4882 7.1663 53.3749 7.28705 53.255 7.44331V9.46049L53.2217 9.54573C53.1951 9.58835 53.1551 9.63096 53.1085 9.65227L53.0819 9.66648L53.002 9.68778C53.002 9.68778 52.9287 9.69488 52.8821 9.69488C52.8355 9.69488 52.7955 9.69489 52.7622 9.68778L52.6623 9.65938C52.589 9.62386 52.5557 9.57414 52.5358 9.53152L52.5158 9.48891V9.40368L52.5091 6.51995L52.5358 6.44182C52.5691 6.37789 52.6024 6.34238 52.6556 6.31397L52.6823 6.29976L52.7622 6.27845C52.7955 6.27845 52.8288 6.27845 52.8754 6.27845C52.922 6.27845 52.9553 6.27845 52.982 6.27845H53.0219L53.1085 6.32107C53.1485 6.34948 53.1818 6.385 53.2084 6.42762L53.2351 6.47733V6.49154C53.2883 6.44892 53.3483 6.41341 53.4016 6.385C53.5747 6.28556 53.7546 6.23584 53.9344 6.23584C54.1408 6.23584 54.3207 6.27136 54.4672 6.34949C54.6137 6.42762 54.7336 6.53416 54.8268 6.66911C54.9134 6.79696 54.98 6.95322 55.02 7.11659C55.0533 7.27285 55.0732 7.45751 55.0732 7.6777V9.45339L55.0333 9.53862C55.0133 9.58124 54.9734 9.62386 54.9201 9.64517L54.8934 9.65938L54.8135 9.68068C54.8135 9.68068 54.7469 9.68778 54.6936 9.68778H54.687Z" fill="#F3F8F5"/>
<path d="M54.8602 9.39686C54.8602 9.39686 54.8602 9.41817 54.8535 9.43238C54.8535 9.43948 54.8402 9.45368 54.8269 9.46078C54.8135 9.46078 54.7936 9.47499 54.7736 9.47499C54.7536 9.47499 54.7203 9.47499 54.687 9.47499C54.6537 9.47499 54.6204 9.47499 54.6004 9.47499C54.5804 9.47499 54.5605 9.46789 54.5471 9.46078C54.5338 9.46078 54.5272 9.44658 54.5205 9.43238C54.5205 9.42527 54.5138 9.41107 54.5138 9.39686V7.71351C54.5138 7.53594 54.5005 7.39388 54.4739 7.28734C54.4472 7.1808 54.4073 7.08136 54.3607 7.00323C54.314 6.9251 54.2474 6.86118 54.1675 6.81857C54.0876 6.77595 53.9943 6.75463 53.8878 6.75463C53.7546 6.75463 53.6147 6.80435 53.4815 6.91089C53.3483 7.01033 53.2018 7.16659 53.0553 7.36547V9.40397C53.0553 9.40397 53.0553 9.42527 53.0486 9.43948C53.0486 9.44658 53.0353 9.46079 53.022 9.46789C53.0087 9.46789 52.9887 9.4821 52.9687 9.4821C52.9487 9.4821 52.9154 9.4821 52.8821 9.4821C52.8488 9.4821 52.8222 9.4821 52.7955 9.4821C52.7756 9.4821 52.7556 9.475 52.7423 9.46789C52.7289 9.46789 52.7223 9.45368 52.7156 9.43948C52.709 9.42527 52.709 9.41818 52.709 9.40397V6.56287C52.709 6.56287 52.709 6.54156 52.7156 6.52735C52.7223 6.51314 52.7289 6.50604 52.7423 6.49893C52.7556 6.49183 52.7756 6.48473 52.7955 6.48473C52.8155 6.48473 52.8422 6.48473 52.8755 6.48473C52.9088 6.48473 52.9354 6.48473 52.9554 6.48473C52.9754 6.48473 52.9953 6.49183 53.0087 6.49893C53.022 6.50604 53.0286 6.51314 53.0353 6.52735C53.042 6.54156 53.042 6.54866 53.042 6.56287V6.96772C53.1951 6.78305 53.3483 6.6552 53.4948 6.56996C53.6414 6.49183 53.7879 6.44922 53.9344 6.44922C54.1076 6.44922 54.2541 6.47763 54.374 6.54156C54.4939 6.60548 54.5871 6.69071 54.667 6.79725C54.7403 6.90379 54.7936 7.03165 54.8269 7.1737C54.8602 7.31576 54.8735 7.48622 54.8735 7.68509V9.40397L54.8602 9.39686Z" fill="#F3F8F5"/>
<path d="M58.037 9.71662C57.8838 9.71662 57.7439 9.69532 57.6307 9.6456C57.5042 9.59588 57.4043 9.51775 57.3177 9.41121C57.2378 9.31177 57.1845 9.18392 57.1512 9.03476C57.1245 8.89981 57.1046 8.75064 57.1046 8.57308V7.01758H56.9047C56.8115 7.01758 56.7249 6.96786 56.6716 6.88263C56.6317 6.8187 56.6184 6.74057 56.6184 6.64823V6.53459C56.6383 6.49197 56.6517 6.44935 56.6716 6.41384L56.6983 6.36413L56.7715 6.3073C56.8115 6.28599 56.8581 6.27179 56.9047 6.27179H57.1046V5.73197L57.1379 5.64674C57.1379 5.64674 57.1845 5.56861 57.2511 5.53309L57.2844 5.51179L57.3776 5.49048C57.3776 5.49048 57.4376 5.49048 57.4842 5.49048C57.5308 5.49048 57.5708 5.49048 57.5974 5.49048H57.6307L57.7106 5.52599C57.7572 5.55441 57.7905 5.58992 57.8172 5.63253L57.8438 5.68226V5.7746L57.8505 6.25758H58.4366L58.5165 6.29309C58.5631 6.32151 58.5964 6.35701 58.623 6.39963L58.643 6.42805L58.6697 6.51328C58.6697 6.51328 58.6763 6.58431 58.6763 6.62693C58.6763 6.71926 58.6563 6.79739 58.6164 6.86132C58.5564 6.94655 58.4765 6.99627 58.3833 6.99627H57.8505V8.50205C57.8505 8.72224 57.8838 8.83589 57.9104 8.89271C57.9171 8.91402 57.9371 8.94953 58.0503 8.94953C58.0769 8.94953 58.1036 8.94953 58.1302 8.94242C58.1568 8.93532 58.1835 8.92822 58.2101 8.91402L58.3167 8.86429L58.4166 8.85009C58.4565 8.85009 58.4965 8.85719 58.5298 8.8785L58.5964 8.91402L58.643 9.01345C58.643 9.01345 58.663 9.06317 58.6697 9.10578V9.20523C58.6697 9.26916 58.6697 9.32598 58.6564 9.36859C58.643 9.42541 58.6164 9.48224 58.5764 9.52485C58.5431 9.56747 58.4965 9.59587 58.4432 9.61718C58.4033 9.63849 58.3566 9.6527 58.31 9.66691C58.2701 9.67401 58.2234 9.68821 58.1702 9.69531C58.1169 9.69531 58.0703 9.70242 58.0236 9.70242L58.037 9.71662Z" fill="#F3F8F5"/>
<path d="M58.4766 9.22633C58.4766 9.26894 58.4766 9.30445 58.4633 9.33286C58.4566 9.36127 58.4433 9.38258 58.43 9.39679C58.4166 9.41099 58.3967 9.42519 58.3634 9.4394C58.3301 9.45361 58.3034 9.46781 58.2635 9.47492C58.2235 9.48202 58.1902 9.48912 58.1436 9.49622C58.1036 9.49622 58.0637 9.50333 58.0237 9.50333C57.8905 9.50333 57.7773 9.48202 57.6907 9.44651C57.6041 9.411 57.5242 9.35417 57.4642 9.27604C57.4043 9.19791 57.3643 9.10557 57.3377 8.98482C57.3111 8.87118 57.2977 8.72912 57.2977 8.57286V6.80428H56.8981C56.8981 6.80428 56.8515 6.79008 56.8315 6.76167C56.8182 6.73325 56.8049 6.69774 56.8049 6.64092C56.8049 6.61251 56.8049 6.5912 56.8049 6.56989C56.8049 6.54858 56.8116 6.53437 56.8249 6.52016C56.8382 6.50596 56.8449 6.49886 56.8515 6.49176C56.8648 6.49176 56.8715 6.48466 56.8915 6.48466H57.2911V5.78858C57.2911 5.78858 57.2911 5.76728 57.2977 5.75307C57.3044 5.73887 57.3111 5.73176 57.3244 5.72466C57.3377 5.71756 57.3577 5.71045 57.3777 5.71045C57.3976 5.71045 57.4309 5.71045 57.4642 5.71045C57.4975 5.71045 57.5308 5.71045 57.5508 5.71045C57.5708 5.71045 57.5908 5.71756 57.6041 5.72466C57.6174 5.73176 57.6241 5.73887 57.6308 5.75307C57.6308 5.76018 57.6374 5.77437 57.6374 5.78858V6.48466H58.37C58.37 6.48466 58.3967 6.48465 58.41 6.49176C58.4233 6.49176 58.43 6.50596 58.4366 6.52016C58.4433 6.53437 58.4499 6.54858 58.4566 6.56989C58.4566 6.5912 58.4566 6.61251 58.4566 6.64092C58.4566 6.69064 58.4499 6.73325 58.43 6.76167C58.41 6.79008 58.39 6.80428 58.3634 6.80428H57.6308V8.52315C57.6308 8.73623 57.6574 8.8996 57.7173 9.01324C57.7773 9.12689 57.8838 9.1837 58.037 9.1837C58.0836 9.1837 58.1236 9.18371 58.1636 9.1695C58.2035 9.1553 58.2368 9.14819 58.2635 9.13399C58.2901 9.11978 58.3167 9.11268 58.3367 9.09847C58.3567 9.08426 58.3767 9.08426 58.39 9.08426C58.3967 9.08426 58.41 9.08426 58.4166 9.08426C58.4233 9.08426 58.43 9.09847 58.4366 9.10557C58.4366 9.11977 58.4433 9.13399 58.4499 9.1482C58.4566 9.1624 58.4499 9.19081 58.4499 9.21922L58.4766 9.22633Z" fill="#F3F8F5"/>
<path d="M61.1606 9.68772C61.1139 9.68772 61.074 9.68773 61.0407 9.68063H61.014L60.9341 9.65221C60.8808 9.6238 60.8409 9.58828 60.8142 9.53856L60.7876 9.48885V9.39651L60.7809 7.71316C60.7809 7.5569 60.7676 7.42905 60.7476 7.33671C60.7277 7.25148 60.701 7.18045 60.6611 7.12363C60.6278 7.07391 60.5878 7.03839 60.5412 7.00998C60.4879 6.98157 60.428 6.96736 60.3547 6.96736C60.2615 6.96736 60.1682 7.00288 60.0617 7.08101C59.9551 7.15914 59.8419 7.27989 59.722 7.43615V9.45333L59.682 9.53856C59.662 9.58118 59.6221 9.6238 59.5688 9.64511L59.5422 9.65932L59.4622 9.68063C59.4622 9.68063 59.389 9.68772 59.3424 9.68772C59.2957 9.68772 59.2558 9.68773 59.2225 9.68063L59.1226 9.65221C59.0493 9.61669 59.016 9.56698 58.996 9.52436L58.9761 9.48175V9.39651L58.9694 5.11354L59.0027 5.03541C59.0293 4.98569 59.0626 4.95018 59.1159 4.92177L59.1492 4.90046L59.2425 4.87915C59.2425 4.87915 59.3024 4.87915 59.349 4.87915C59.3956 4.87915 59.4356 4.87915 59.4622 4.87915H59.4955L59.5755 4.91467C59.6287 4.95018 59.662 4.97859 59.6887 5.0212L59.7153 5.07093V5.16327L59.722 6.46307C59.7686 6.42756 59.8152 6.39915 59.8685 6.37074C60.0417 6.2784 60.2215 6.22868 60.3947 6.22868C60.6011 6.22868 60.7809 6.26419 60.9275 6.34232C61.074 6.42045 61.1939 6.527 61.2871 6.66195C61.3737 6.7898 61.4403 6.94605 61.4802 7.10942C61.5135 7.26568 61.5335 7.45746 61.5335 7.67054V9.44623L61.4936 9.53146C61.4736 9.57408 61.4336 9.61669 61.3803 9.638L61.3537 9.65221L61.2738 9.67352C61.2738 9.67352 61.2072 9.68063 61.1539 9.68063L61.1606 9.68772Z" fill="#F3F8F5"/>
<path d="M61.3337 9.39705C61.3337 9.39705 61.3337 9.41836 61.3271 9.43256C61.3204 9.44677 61.3138 9.45387 61.3004 9.46097C61.2871 9.46097 61.2671 9.47518 61.2472 9.47518C61.2272 9.47518 61.1939 9.47518 61.1606 9.47518C61.1273 9.47518 61.094 9.47518 61.074 9.47518C61.054 9.47518 61.034 9.46807 61.0207 9.46097C61.0074 9.46097 61.0007 9.44677 60.9941 9.43256C60.9941 9.42546 60.9874 9.41125 60.9874 9.39705V7.7137C60.9874 7.53613 60.9741 7.39407 60.9475 7.28752C60.9208 7.18098 60.8809 7.08155 60.8342 7.00342C60.7876 6.92529 60.721 6.86137 60.6411 6.81875C60.5612 6.77613 60.4679 6.75482 60.3614 6.75482C60.2282 6.75482 60.0883 6.80454 59.9551 6.91108C59.8219 7.01052 59.6754 7.16678 59.5289 7.36566V9.40416C59.5289 9.40416 59.5289 9.42546 59.5222 9.43966C59.5155 9.45387 59.5089 9.46098 59.4956 9.46808C59.4822 9.46808 59.4623 9.48229 59.4423 9.48229C59.4223 9.48229 59.389 9.48229 59.3557 9.48229C59.3224 9.48229 59.2958 9.48229 59.2691 9.48229C59.2491 9.48229 59.2292 9.47518 59.2158 9.46808C59.2025 9.46808 59.1959 9.45387 59.1892 9.43966C59.1892 9.43256 59.1825 9.41836 59.1825 9.40416V5.1709C59.1825 5.1709 59.1825 5.14959 59.1892 5.13539C59.1892 5.12829 59.2025 5.11408 59.2158 5.10698C59.2292 5.09988 59.2491 5.09277 59.2691 5.09277C59.2891 5.09277 59.3224 5.09277 59.3557 5.09277C59.389 5.09277 59.4223 5.09277 59.4423 5.09277C59.4623 5.09277 59.4822 5.09988 59.4956 5.10698C59.5089 5.11408 59.5155 5.12118 59.5222 5.13539C59.5289 5.14959 59.5289 5.1567 59.5289 5.1709V6.9466C59.6754 6.77613 59.8219 6.64828 59.9618 6.57015C60.1083 6.49202 60.2548 6.4494 60.3947 6.4494C60.5678 6.4494 60.7144 6.47782 60.8342 6.54174C60.9541 6.60567 61.0474 6.69089 61.1273 6.79743C61.2072 6.90397 61.2538 7.03183 61.2871 7.17389C61.3204 7.31594 61.3337 7.4864 61.3337 7.68528V9.40416V9.39705Z" fill="#F3F8F5"/>
<path d="M63.3984 9.72405C63.1653 9.72405 62.9588 9.68853 62.779 9.6104C62.5925 9.53227 62.4327 9.41863 62.2995 9.26236C62.1729 9.11321 62.0797 8.92143 62.0131 8.70835C61.9532 8.49527 61.9199 8.25378 61.9199 7.98388C61.9199 7.71397 61.9532 7.47958 62.0131 7.2736C62.0797 7.06052 62.1729 6.86874 62.2995 6.71247C62.426 6.55621 62.5792 6.43547 62.759 6.35024C62.9322 6.27211 63.132 6.22949 63.3451 6.22949C63.5716 6.22949 63.778 6.2721 63.9445 6.35734C64.111 6.44257 64.2509 6.55622 64.3641 6.70538C64.4707 6.84743 64.5506 7.01079 64.6039 7.20257C64.6505 7.38014 64.6771 7.57191 64.6771 7.76368V7.84181C64.6771 8.02648 64.6039 8.11882 64.5373 8.16854C64.464 8.22537 64.3841 8.25377 64.3108 8.25377H62.7057C62.7124 8.3319 62.7257 8.40293 62.739 8.46686C62.7657 8.5805 62.8056 8.67283 62.8656 8.75096C62.9189 8.82199 62.9855 8.87882 63.0787 8.92143C63.172 8.96405 63.2985 8.98536 63.4384 8.98536C63.5449 8.98536 63.6448 8.97826 63.7247 8.95695C63.8113 8.93564 63.8912 8.91433 63.9512 8.88592C64.0178 8.85751 64.0711 8.83621 64.111 8.8149C64.1909 8.77938 64.2442 8.75807 64.2975 8.75807H64.3508L64.4307 8.80069C64.4773 8.8291 64.5106 8.87171 64.5306 8.92853L64.5439 8.95695L64.5639 9.04218C64.5639 9.04218 64.5639 9.10611 64.5639 9.14873V9.21975L64.5106 9.36891C64.4973 9.39022 64.484 9.41863 64.4573 9.43993C64.4307 9.46834 64.3907 9.49676 64.3108 9.53937C64.2509 9.56778 64.1776 9.5962 64.0844 9.63171C63.9978 9.66012 63.8912 9.68853 63.7714 9.70984C63.6515 9.73115 63.5249 9.74536 63.3851 9.74536L63.3984 9.72405ZM63.9046 7.50798C63.8846 7.35882 63.838 7.24518 63.7647 7.15284C63.6715 7.0321 63.5249 6.97527 63.3251 6.97527C63.2252 6.97527 63.132 6.99658 63.0654 7.0321C62.9855 7.07471 62.9255 7.12443 62.8722 7.18836C62.819 7.25228 62.779 7.33752 62.7457 7.42275C62.739 7.45116 62.7324 7.47247 62.7257 7.50088H63.9046V7.50798Z" fill="#F3F8F5"/>
<path d="M64.4773 7.82823C64.4773 7.90636 64.4573 7.95608 64.424 7.98449C64.384 8.0129 64.3507 8.02711 64.3174 8.02711H62.4992C62.4992 8.20468 62.5126 8.36094 62.5459 8.50299C62.5792 8.64505 62.6324 8.76579 62.7057 8.86523C62.779 8.96467 62.8789 9.0428 62.9987 9.09962C63.1186 9.15644 63.2651 9.17775 63.4383 9.17775C63.5649 9.17775 63.6714 9.16354 63.7713 9.14224C63.8712 9.12093 63.9511 9.09252 64.0244 9.0641C64.0977 9.03569 64.1576 9.00728 64.2042 8.98597C64.2508 8.96467 64.2841 8.95047 64.3041 8.95047C64.3174 8.95047 64.3241 8.95046 64.3374 8.95757C64.3507 8.96467 64.3574 8.97177 64.3641 8.98597C64.3641 9.00018 64.3774 9.01439 64.3774 9.0357C64.3774 9.05701 64.3774 9.08542 64.3774 9.11383C64.3774 9.12803 64.3774 9.14224 64.3774 9.15644C64.3774 9.17065 64.3774 9.18486 64.3707 9.19196C64.3707 9.20617 64.3641 9.21327 64.3574 9.22748C64.3574 9.23458 64.3441 9.24878 64.3308 9.25588C64.3241 9.26298 64.2908 9.28429 64.2375 9.31271C64.1842 9.34112 64.1176 9.36243 64.0377 9.39084C63.9578 9.41925 63.8579 9.44055 63.7513 9.46186C63.6448 9.48317 63.5249 9.49027 63.3983 9.49027C63.1919 9.49027 63.0121 9.45476 62.8522 9.39084C62.6924 9.32691 62.5592 9.22747 62.4526 9.09962C62.3461 8.97177 62.2595 8.80841 62.2062 8.62374C62.1529 8.43196 62.1196 8.21178 62.1196 7.96318C62.1196 7.71459 62.1463 7.5086 62.2062 7.31683C62.2661 7.12506 62.3461 6.96169 62.4526 6.83384C62.5592 6.70599 62.6924 6.59945 62.8456 6.52842C62.9987 6.4574 63.1652 6.42188 63.3517 6.42188C63.5515 6.42188 63.7247 6.4574 63.8646 6.52842C64.0044 6.59945 64.1243 6.69178 64.2109 6.81253C64.3041 6.93328 64.3707 7.07533 64.4107 7.23159C64.4506 7.38785 64.4773 7.55832 64.4773 7.73589V7.81402V7.82823ZM64.1176 7.72168C64.1176 7.42337 64.0577 7.18188 63.9245 7.01852C63.7913 6.84805 63.5915 6.76282 63.3317 6.76282C63.1985 6.76282 63.0787 6.79123 62.9788 6.84095C62.8789 6.89777 62.7923 6.96168 62.7257 7.05402C62.6591 7.14636 62.6058 7.2458 62.5658 7.35945C62.5259 7.47309 62.5059 7.59383 62.4992 7.72168H64.1176Z" fill="#F3F8F5"/>
<path d="M34.4736 15.5273C34.4003 15.1935 34.2871 14.888 34.1273 14.6394C33.9607 14.3766 33.7476 14.1707 33.4945 14.0215C33.2348 13.8723 32.9218 13.7942 32.5555 13.7942C32.389 13.7942 32.2291 13.8155 32.0759 13.851C31.9228 13.8936 31.7762 13.9505 31.6364 14.0357C31.4965 14.1209 31.3567 14.2204 31.2168 14.3411C31.1635 14.3908 31.1036 14.4406 31.0503 14.4974V13.7871H30.1845V21.2947H31.1036V18.9295C31.1435 18.965 31.1835 19.0076 31.2235 19.0361C31.3433 19.1426 31.4699 19.2278 31.5964 19.2989C31.723 19.3699 31.8562 19.4267 31.9894 19.4622C32.1226 19.4977 32.2624 19.5119 32.4156 19.5119C32.7619 19.5119 33.075 19.4409 33.348 19.2989C33.6211 19.1568 33.8542 18.9579 34.034 18.6951C34.2138 18.4394 34.3537 18.1269 34.4469 17.7647C34.5402 17.4095 34.5868 17.0047 34.5868 16.5643C34.5868 16.1949 34.5535 15.8398 34.4802 15.5131L34.4736 15.5273ZM33.5611 17.4166C33.5145 17.651 33.4413 17.8641 33.3414 18.0488C33.2481 18.2263 33.1216 18.3755 32.9684 18.482C32.8219 18.5886 32.6487 18.6383 32.4356 18.6383C32.2091 18.6383 31.9894 18.5602 31.7762 18.3968C31.5631 18.2334 31.33 17.999 31.0969 17.7007V15.6338C31.2301 15.4634 31.3567 15.3142 31.4765 15.1935C31.6031 15.0656 31.7296 14.9591 31.8428 14.8809C31.9561 14.8028 32.0626 14.7531 32.1692 14.7176C32.2757 14.6821 32.3823 14.6678 32.4955 14.6678C32.7153 14.6678 32.8885 14.7176 33.0283 14.8241C33.1682 14.9306 33.2881 15.0727 33.3747 15.2503C33.4679 15.4349 33.5345 15.6551 33.5678 15.8966C33.6078 16.1452 33.6277 16.408 33.6277 16.6779C33.6277 16.9194 33.6011 17.1609 33.5545 17.4024L33.5611 17.4166Z" fill="#F3F8F5"/>
<path d="M39.9881 15.5273C39.9149 15.1935 39.8016 14.888 39.6418 14.6394C39.4819 14.3766 39.2622 14.1707 39.0091 14.0215C38.7493 13.8723 38.4363 13.7942 38.07 13.7942C37.9035 13.7942 37.7437 13.8155 37.5905 13.851C37.4373 13.8936 37.2908 13.9505 37.1509 14.0357C37.0111 14.1209 36.8712 14.2204 36.7313 14.3411C36.6781 14.3908 36.6181 14.4406 36.5648 14.4974V13.7871H35.699V21.2947H36.6181V18.9295C36.6581 18.965 36.698 19.0076 36.738 19.0361C36.8579 19.1426 36.9844 19.2278 37.111 19.2989C37.2375 19.3699 37.3707 19.4267 37.5039 19.4622C37.6371 19.4977 37.777 19.5119 37.9301 19.5119C38.2765 19.5119 38.5895 19.4409 38.8626 19.2989C39.1356 19.1568 39.3687 18.9579 39.5485 18.6951C39.7284 18.4394 39.8682 18.1269 39.9615 17.7647C40.0547 17.4095 40.1013 17.0047 40.1013 16.5643C40.1013 16.1949 40.068 15.8398 39.9948 15.5131L39.9881 15.5273ZM39.0757 17.4166C39.0291 17.651 38.9558 17.8641 38.8559 18.0488C38.7627 18.2263 38.6361 18.3755 38.4829 18.482C38.3364 18.5886 38.1632 18.6383 37.9501 18.6383C37.7237 18.6383 37.5039 18.5602 37.2908 18.3968C37.0777 18.2334 36.8446 17.999 36.6114 17.7007V15.6338C36.7447 15.4634 36.8712 15.3142 36.9911 15.1935C37.1176 15.0656 37.2442 14.9591 37.3574 14.8809C37.4706 14.8028 37.5772 14.7531 37.6837 14.7176C37.7903 14.6821 37.8968 14.6678 38.0101 14.6678C38.2232 14.6678 38.403 14.7176 38.5429 14.8241C38.6894 14.9306 38.8026 15.0727 38.8892 15.2503C38.9824 15.4349 39.049 15.6551 39.0823 15.8966C39.1223 16.1452 39.1423 16.408 39.1423 16.6779C39.1423 16.9194 39.1156 17.1609 39.069 17.4024L39.0757 17.4166Z" fill="#F3F8F5"/>
<path d="M55.6593 14.5606C55.4595 14.312 55.2131 14.1202 54.9134 13.9852C54.6204 13.8574 54.2807 13.7935 53.8944 13.7935C53.5081 13.7935 53.1352 13.8645 52.8288 14.0136C52.5224 14.1628 52.2627 14.3688 52.0562 14.6316C51.8498 14.8944 51.6966 15.2069 51.5967 15.5549C51.4968 15.903 51.4502 16.2865 51.4502 16.6985C51.4502 17.1104 51.4968 17.5153 51.5967 17.8562C51.6966 18.2043 51.8431 18.5026 52.0429 18.7512C52.2427 18.9998 52.4958 19.1916 52.7888 19.3265C53.0819 19.4544 53.4216 19.5254 53.8078 19.5254C54.1941 19.5254 54.5671 19.4544 54.8668 19.3052C55.1732 19.156 55.4329 18.9501 55.6394 18.6873C55.8458 18.4245 55.999 18.1119 56.0989 17.7568C56.1988 17.4088 56.2521 17.0252 56.2521 16.6133C56.2521 16.2013 56.2055 15.8035 56.1056 15.4626C56.0057 15.1146 55.8591 14.8163 55.6593 14.5677V14.5606ZM55.2997 16.6701C55.2997 16.9542 55.2731 17.2241 55.2131 17.4727C55.1532 17.7071 55.0666 17.9131 54.9467 18.0835C54.8335 18.2469 54.6803 18.3818 54.5005 18.4742C54.3207 18.5665 54.0942 18.6162 53.8411 18.6162C53.5614 18.6162 53.3283 18.5665 53.1485 18.46C52.9687 18.3605 52.8222 18.2185 52.7156 18.048C52.6024 17.8704 52.5224 17.6574 52.4758 17.423C52.4292 17.1744 52.4026 16.9116 52.4026 16.6346C52.4026 16.3576 52.4292 16.0806 52.4891 15.8391C52.5491 15.6047 52.6357 15.3916 52.7555 15.2211C52.8688 15.0506 53.022 14.9228 53.2018 14.8234C53.3816 14.731 53.608 14.6813 53.8611 14.6813C54.1408 14.6813 54.3739 14.731 54.5538 14.8376C54.7336 14.937 54.8801 15.0791 54.9867 15.2566C55.0999 15.4342 55.1798 15.6473 55.2264 15.8817C55.2731 16.1303 55.2997 16.386 55.2997 16.663V16.6701Z" fill="#F3F8F5"/>
<path d="M27.0275 12.1824H25.9353L23.6642 19.5124H24.5966L25.1028 17.41H27.8334L28.3595 19.5124H29.2986L27.0275 12.1824ZM25.3958 16.5293L26.4548 13.3117L27.5404 16.5293H25.4025H25.3958Z" fill="#F3F8F5"/>
<path d="M47.2676 16.5432C47.1677 16.323 47.0411 16.1242 46.8813 15.9608C46.7214 15.7974 46.5416 15.6554 46.3485 15.5417C46.1553 15.4281 45.9622 15.3215 45.7624 15.2221C45.5692 15.1227 45.3761 15.0303 45.1896 14.9309C45.0098 14.8386 44.8499 14.732 44.7101 14.6184C44.5769 14.5118 44.4703 14.384 44.3904 14.2419C44.3171 14.107 44.2772 13.9436 44.2772 13.7589C44.2772 13.6311 44.2971 13.5032 44.3438 13.3896C44.3837 13.276 44.4503 13.1765 44.5303 13.0913C44.6168 13.006 44.7234 12.935 44.8566 12.8853C44.9898 12.8356 45.1563 12.8072 45.3361 12.8072C45.5159 12.8072 45.7024 12.8285 45.849 12.8782C46.0021 12.9279 46.1353 12.9847 46.2419 13.0487C46.3551 13.1126 46.4484 13.1694 46.5216 13.2191L46.9012 12.3739C46.8546 12.3242 46.7814 12.2745 46.6615 12.2105C46.5549 12.1466 46.4284 12.0969 46.2952 12.0472C46.162 11.9975 46.0155 11.9619 45.8623 11.9264C45.7091 11.898 45.5559 11.8767 45.4027 11.8767C45.103 11.8767 44.83 11.9193 44.5769 12.0046C44.3238 12.0898 44.0973 12.2176 43.9175 12.3881C43.731 12.5586 43.5845 12.7646 43.4846 12.9989C43.3847 13.2404 43.3314 13.5103 43.3314 13.8087C43.3314 14.107 43.3847 14.384 43.478 14.6113C43.5779 14.8315 43.7044 15.0303 43.8642 15.1937C44.0174 15.3571 44.1972 15.4991 44.3971 15.6199C44.5835 15.7335 44.7833 15.8472 44.9831 15.9466C45.1763 16.046 45.3694 16.1384 45.5559 16.2378C45.7357 16.3301 45.8956 16.4367 46.0288 16.5503C46.162 16.6569 46.2685 16.7847 46.3485 16.9268C46.4217 17.0617 46.4617 17.2251 46.4617 17.4098C46.4617 17.5944 46.4284 17.772 46.3684 17.9141C46.3085 18.0561 46.2219 18.184 46.1087 18.2834C45.9955 18.3828 45.8623 18.461 45.7024 18.5178C45.5426 18.5746 45.3628 18.603 45.1696 18.603C44.9299 18.603 44.7101 18.5746 44.5303 18.5107C44.3438 18.4468 44.1839 18.3828 44.0507 18.3118C43.9175 18.2408 43.811 18.1698 43.7244 18.1129L43.5379 19.1215C43.6445 19.1855 43.7777 19.2494 43.9375 19.3133C44.0907 19.3772 44.2705 19.4269 44.4637 19.4696C44.6635 19.5122 44.8766 19.5335 45.103 19.5335C45.4294 19.5335 45.7424 19.4838 46.0221 19.3843C46.3085 19.2849 46.5549 19.1428 46.7614 18.9511C46.9678 18.7593 47.1343 18.5249 47.2542 18.255C47.3675 17.9851 47.4274 17.6726 47.4274 17.3387C47.4274 17.0333 47.3741 16.7705 47.2809 16.5432H47.2676Z" fill="#F3F8F5"/>
<path d="M50.4312 18.5513C50.3845 18.5726 50.3312 18.5868 50.2713 18.6081C50.218 18.6223 50.1514 18.6294 50.0848 18.6294C49.8051 18.6294 49.7052 18.5086 49.6586 18.4163C49.572 18.2387 49.5254 17.9759 49.5254 17.6279V14.7655H50.6376V13.8848H49.5254V12.8193L48.6063 13.2526V13.8918H48.1068V14.7726H48.6063V17.7273C48.6063 18.0186 48.6329 18.2743 48.6795 18.4944C48.7328 18.7217 48.8194 18.9135 48.9326 19.0698C49.0525 19.226 49.2057 19.3397 49.3922 19.4178C49.572 19.4888 49.7851 19.5243 50.0382 19.5243C50.1115 19.5243 50.1914 19.5243 50.2713 19.5101C50.3512 19.503 50.4245 19.4888 50.4978 19.4675C50.571 19.4462 50.6376 19.4249 50.6976 19.3965L50.5577 18.5086C50.5577 18.5086 50.4844 18.5442 50.4312 18.5655V18.5513Z" fill="#F3F8F5"/>
<path d="M59.4089 13.7927C59.4089 13.7927 59.3823 13.7927 59.369 13.7927C59.2557 13.7927 59.1425 13.8069 59.0293 13.8353C58.9161 13.8638 58.7962 13.9206 58.683 14.0058C58.5698 14.0839 58.4499 14.1905 58.33 14.3325C58.29 14.3751 58.2567 14.4178 58.2168 14.4675V13.7927H57.331V19.5105H58.2501V15.8241C58.37 15.6181 58.4832 15.4477 58.5831 15.3056C58.683 15.1565 58.7829 15.0428 58.8761 14.9576C58.9627 14.8723 59.0426 14.8155 59.1159 14.78C59.1891 14.7445 59.2557 14.7303 59.329 14.7303C59.349 14.7303 59.3756 14.7303 59.3956 14.7303L59.5554 14.7445V13.7998H59.4089V13.7927Z" fill="#F3F8F5"/>
<path d="M63.9977 18.2824C63.9977 18.2824 63.9577 18.3037 63.9311 18.3108C63.8512 18.3463 63.7513 18.3961 63.6314 18.4387C63.5115 18.4884 63.365 18.531 63.2052 18.5665C63.0453 18.602 62.8588 18.6234 62.6524 18.6234C62.366 18.6234 62.1262 18.5807 61.9331 18.4955C61.7466 18.4103 61.5934 18.2895 61.4802 18.1333C61.3603 17.977 61.2804 17.7781 61.2271 17.5508C61.1805 17.3591 61.1538 17.1389 61.1472 16.9116H64.1908C64.2841 16.9116 64.3773 16.8761 64.4706 16.8051C64.5771 16.7269 64.6304 16.5849 64.6304 16.4002V16.2652C64.6304 15.9456 64.5904 15.6331 64.5105 15.3348C64.4306 15.0365 64.3041 14.7666 64.1309 14.5393C63.9577 14.312 63.7313 14.1273 63.4649 13.9924C63.1985 13.8574 62.8721 13.7864 62.4992 13.7864C62.1529 13.7864 61.8332 13.8503 61.5468 13.9853C61.2604 14.1202 61.0073 14.312 60.8075 14.5606C60.6077 14.8092 60.4479 15.1146 60.3413 15.4697C60.2348 15.8178 60.1815 16.2155 60.1815 16.6559C60.1815 17.0963 60.2348 17.5224 60.3347 17.8705C60.4412 18.2256 60.5944 18.531 60.8009 18.7725C61.0073 19.014 61.2604 19.2058 61.5601 19.3265C61.8532 19.4473 62.1995 19.5112 62.5791 19.5112C62.8055 19.5112 63.0253 19.4899 63.2251 19.4544C63.4183 19.4189 63.5981 19.3763 63.7446 19.3265C63.8379 19.2981 63.9244 19.2626 63.9977 19.2342V18.2682V18.2824ZM61.2471 15.626C61.307 15.4413 61.3936 15.278 61.5002 15.1359C61.6067 15.0009 61.7466 14.8873 61.8998 14.8021C62.053 14.7168 62.2394 14.6742 62.4526 14.6742C62.8655 14.6742 63.1718 14.8021 63.3783 15.0649C63.5648 15.2993 63.6714 15.6331 63.6847 16.0451H61.1472C61.1672 15.8959 61.1938 15.7538 61.2404 15.6189L61.2471 15.626Z" fill="#F3F8F5"/>
</svg>
