<svg width="152" height="66" viewBox="0 0 152 66" fill="none" xmlns="http://www.w3.org/2000/svg">
<path fill-rule="evenodd" clip-rule="evenodd" d="M152 59.1755C151.873 59.3482 151.753 59.5321 151.612 59.6935C151.312 60.0464 151.131 59.9938 151.004 59.5134C150.764 58.6163 151.051 57.7717 151.82 57.2012C151.88 57.5653 151.943 57.9294 152 58.2784V59.1755Z" fill="white"/>
<path fill-rule="evenodd" clip-rule="evenodd" d="M62.4291 39.0365V13.6211H76.7551V17.8814H66.6821V23.8834H75.3619V28.2375H66.6554V39.0328H62.4358" fill="white"/>
<path fill-rule="evenodd" clip-rule="evenodd" d="M77.47 55.6716C77.8709 54.9246 78.3787 54.2189 78.6761 53.4194C79.2006 52.0494 80.1494 51.3925 81.3823 51.689C81.5159 51.7116 81.6729 51.6815 81.7999 51.6065C82.7955 51.0509 83.771 51.6065 84.0717 52.4698C84.3524 53.2655 84.4526 54.1213 84.6196 54.9471C84.6597 55.1423 84.6597 55.3413 84.6931 55.6941C85.2644 54.857 85.8658 54.2227 86.0496 53.2655C86.24 52.2859 86.5641 51.3662 87.2289 50.638C88.1377 49.6508 89.5876 49.7484 90.3861 50.8745C90.4396 50.9458 90.4864 51.0247 90.6133 51.2161C90.6367 50.8407 90.6434 50.5967 90.6768 50.3528C90.8138 48.9602 90.9574 47.5676 91.1211 46.175C91.1612 45.7959 91.2815 45.398 91.7292 45.4619C92.1735 45.5182 92.2537 45.9348 92.1969 46.3552C91.9597 48.1307 91.6022 49.8911 91.4786 51.674C91.345 53.4607 91.3918 55.2624 91.4252 57.0491C91.4285 57.417 91.6858 57.7848 91.8528 58.1602C91.8862 58.224 92.0165 58.2803 92.1034 58.269C92.5344 58.224 92.6546 58.5618 92.6914 58.9297C92.7382 59.3538 92.5778 59.6916 92.1969 59.8606C91.8394 60.0069 91.5221 59.9244 91.3884 59.549C91.1378 58.7833 90.9508 57.9913 90.7336 57.218C90.6902 57.0566 90.6601 56.8877 90.5966 56.6325C90.3327 57.2969 90.1389 57.8674 89.8917 58.4154C89.5475 59.1511 89.1466 59.8118 88.3849 60.1271C87.6499 60.4461 87.0552 60.296 86.5875 59.579C85.9861 58.6707 85.8357 57.5972 85.7856 56.5124C85.7789 56.3435 85.7689 56.1896 85.7088 55.9869C85.3379 56.869 84.4459 57.1993 84.1586 58.2202C83.7944 59.5077 82.9124 60.2847 81.6562 60.341C80.5036 60.4011 79.6516 59.7217 79.1405 58.6369C78.7563 57.8261 78.5525 56.914 78.2885 56.1483C77.9611 56.5049 77.5201 56.9365 77.1125 57.417C76.9956 57.5596 76.9722 57.7961 76.9087 57.9913C76.4878 59.2112 75.8129 60.1233 74.5968 60.3448C73.5277 60.5324 72.6991 60.0482 72.051 59.1474C71.7937 58.7908 71.5732 58.3816 71.4229 57.9537C70.9184 56.5236 70.8583 55.0785 71.2725 53.6109C71.7135 52.0982 72.6189 51.4901 74.0221 51.7453C74.1424 51.7566 74.2827 51.7153 74.403 51.6553C75.4153 51.1748 76.3274 51.4976 76.7584 52.6387C77.029 53.3819 77.1092 54.2114 77.2562 55.0147C77.2929 55.1874 77.2629 55.3825 77.2629 55.5702L77.4667 55.6753M90.5599 52.7701L90.4195 52.7776C90.2391 52.5786 90.022 52.406 89.8917 52.1695C89.287 51.1335 88.2145 51.0059 87.4895 51.9105C87.3191 52.1245 87.1588 52.3797 87.0418 52.6387C86.3903 54.294 86.2901 55.9906 86.8013 57.7135C86.965 58.2353 87.1588 58.8433 87.7134 58.9372C88.3114 59.0498 88.709 58.5656 89.0163 58.0664C90.0186 56.4748 90.3594 54.6393 90.5599 52.7701ZM73.5477 53.1116C72.9464 52.9953 72.5555 53.1792 72.2715 53.6371C71.2625 55.2362 71.8405 57.9613 73.3907 58.8846C74.4164 59.504 75.6124 58.9747 75.9766 57.6947C74.8808 57.8224 73.9754 57.5183 73.4508 56.3547C72.9764 55.3 72.8461 54.2264 73.5511 53.1116H73.5477ZM80.9412 52.9953C80.0626 53.0628 79.7385 53.2956 79.4679 53.9599C78.8198 55.5289 79.1739 57.3757 80.3265 58.513C81.3956 59.5565 82.752 59.2225 83.3634 57.6985C82.2509 57.7848 81.3388 57.4658 80.8009 56.2872C80.3165 55.2211 80.2396 54.1289 80.9412 52.9953ZM76.6648 55.4051C76.5345 54.8045 76.4677 54.1701 76.2639 53.5808C75.8897 52.5223 75.3652 52.4022 74.6235 53.1642L74.5433 53.228C74.0088 53.7235 73.7649 54.7257 74.0188 55.4013C74.2861 56.107 75.0612 56.5574 75.7995 56.4448C76.5512 56.3322 76.5913 56.2759 76.6648 55.4088V55.4051ZM83.9414 55.1686C83.9414 54.4592 83.8178 53.6822 83.3634 53.014C82.9959 52.466 82.4981 52.4623 82.1206 52.9615C82.0571 53.0478 81.9903 53.1229 81.9168 53.198C81.4157 53.6484 81.1584 54.5568 81.3522 55.2024C81.5627 55.9306 82.1407 56.3735 82.8723 56.3998C83.8512 56.4185 83.9548 56.3059 83.9381 55.1648L83.9414 55.1686Z" fill="white"/>
<path fill-rule="evenodd" clip-rule="evenodd" d="M60.9055 55.0415C60.4745 55.9461 60.0368 56.7606 59.3185 57.365C59.1481 57.5264 59.0479 57.8191 58.951 58.0631C58.5167 59.3356 57.8284 60.244 56.5422 60.4391C55.3962 60.6005 54.551 60.0187 53.9563 59.024C52.8738 57.2148 52.7769 55.2442 53.4952 53.2435C53.9162 52.0499 54.9185 51.5319 56.0511 51.8022C56.1747 51.8322 56.3384 51.7909 56.4687 51.7346C57.4008 51.2804 58.3196 51.5432 58.7372 52.6092C59.0412 53.3637 59.1181 54.2382 59.2884 55.079C59.3252 55.2742 59.3219 55.4694 59.3452 55.8147C59.9667 54.9777 60.6048 54.3471 60.4945 53.236C60.4444 52.7631 60.5246 52.2751 60.5914 51.7947C60.6348 51.4606 60.7351 51.1153 61.1661 51.2204C61.6739 51.318 61.861 51.5695 61.7942 52.0762C61.7273 52.5529 61.6739 53.0296 61.6171 53.5176L61.7374 53.5326C61.8877 53.0859 62.0347 52.6355 62.1817 52.1775C62.606 50.9464 63.0971 51.1265 63.9056 51.9223C64.1963 52.1963 64.1395 52.6392 63.8956 52.9921C63.6584 53.3111 63.3711 53.2323 63.0971 52.9958C63.027 52.932 62.9267 52.902 62.7029 52.7856C62.4156 54.1031 62.0781 55.3418 61.8877 56.6255C61.7407 57.5264 61.8008 58.4685 61.7641 59.4069C61.7607 59.6096 61.8109 59.8498 61.7374 60.0112C61.6572 60.2139 61.4634 60.334 61.3131 60.4767C61.2061 60.3265 61.0191 60.1764 60.9957 60C60.9422 59.2455 60.9188 58.4723 60.9155 57.7103C60.8954 56.8132 60.9155 55.9236 60.9155 55.0302M55.6301 53.1159C54.8717 53.1009 54.4608 53.3937 54.1901 53.9567C53.4518 55.5145 53.8828 57.7028 55.1457 58.7538C56.2081 59.6471 57.628 59.1817 58.0222 57.7816C56.9331 57.9092 56.0243 57.5752 55.4998 56.4266C54.9953 55.3568 54.8951 54.2758 55.6268 53.1197L55.6301 53.1159ZM58.6236 55.3906L58.7472 55.338C58.5401 54.6399 58.4031 53.9192 58.1191 53.2736C57.7884 52.5491 57.2404 52.5379 56.7727 53.1197L56.629 53.2811C56.0678 53.8103 55.8272 54.6699 56.0544 55.3718C56.2883 56.0963 56.893 56.5167 57.6647 56.5129C58.5401 56.5054 58.6436 56.3928 58.6269 55.3868L58.6236 55.3906Z" fill="white"/>
<path fill-rule="evenodd" clip-rule="evenodd" d="M69.0574 55.3531C70.0163 55.7623 70.0196 56.7232 70.1232 57.564C70.4238 59.9175 70.2869 62.2559 69.7557 64.5757C69.6421 65.0711 69.5652 65.7167 68.9071 65.6942C68.2723 65.6642 68.1587 65.0261 68.1019 64.5231C67.9515 63.1118 67.8714 61.6629 67.7812 60.2365C67.7578 59.8086 67.8212 59.3657 67.7979 58.9415C67.7979 58.7539 67.6843 58.5512 67.6241 58.3522C67.5774 58.2058 67.4805 58.0444 67.4871 57.8943C67.5807 56.9897 67.6909 56.0851 67.7979 55.1767C67.8146 55.0979 67.8847 55.0266 67.9181 54.9402C68.0518 54.5949 68.2389 54.2571 68.2789 53.9043C68.593 51.7009 68.8135 49.4713 69.4884 47.3393C69.5719 47.0878 69.6588 46.8475 69.7323 46.6036C69.906 46.0818 70.2902 45.9242 70.6911 46.0818C70.9049 46.1681 71.092 46.5473 71.1555 46.825C71.4094 48.0825 71.1856 49.3061 70.9083 50.5335C70.5408 52.2339 69.9394 53.8254 69.0574 55.3606M68.9438 56.5806L68.7935 56.6331C68.76 56.7682 68.6832 56.8958 68.6832 57.0385C68.6364 58.889 68.5796 60.7245 68.5897 62.5863C68.5897 63.0968 68.7935 63.6072 68.897 64.1252L69.0841 64.0839C69.5752 61.8843 69.8091 59.6585 69.3113 57.4138C69.2545 57.1248 69.0741 56.8546 68.9471 56.5843L68.9438 56.5806ZM69.1075 53.1761C70.0764 51.9524 70.8314 48.1726 70.2601 47.4894C69.5652 49.3174 69.3948 51.273 69.1075 53.1761Z" fill="white"/>
<path fill-rule="evenodd" clip-rule="evenodd" d="M131.423 57.3719C131.126 57.7548 130.862 58.1639 130.528 58.468C129.786 59.1699 128.871 58.8996 128.587 57.8524C128.443 57.3044 128.426 56.6662 128.493 56.107C128.647 54.7857 129.212 53.6897 130.164 52.8864C130.555 52.5711 131.076 52.4097 131.637 52.1319C131.637 52.1132 131.624 51.9105 131.687 51.7528C131.777 51.5239 131.894 51.2649 132.065 51.126C132.452 50.8445 132.693 51.0284 132.653 51.5389C132.586 52.7137 132.446 53.8961 132.436 55.0747C132.429 57.1092 132.519 59.1511 132.536 61.1855C132.542 61.7298 132.516 62.2816 132.399 62.8108C131.948 64.9053 130.398 65.8738 128.446 65.2995C127.571 65.048 126.789 64.5825 126.238 63.768C125.851 63.1937 125.573 62.5481 125.951 61.8537C126.068 61.636 126.382 61.5459 126.606 61.3995C126.676 61.621 126.806 61.8387 126.806 62.0564C126.816 63.1749 127.531 64.0795 128.657 64.3611C130.398 64.7965 131.54 63.8206 131.584 61.7936C131.62 60.326 131.594 58.8508 131.594 57.3644L131.423 57.3757M131.65 53.3556C130.077 53.2768 129.008 56.2421 129.516 57.3269C129.649 57.6347 129.92 57.7435 130.13 57.5108C130.448 57.1692 130.815 56.8126 130.955 56.366C131.253 55.4088 131.417 54.4141 131.65 53.3556Z" fill="white"/>
<path fill-rule="evenodd" clip-rule="evenodd" d="M45.8582 54.1931C45.8582 53.3372 45.8816 52.5002 45.8481 51.6594C45.8314 51.4229 45.6043 51.2052 45.5875 50.9537C45.5074 49.959 45.4706 48.9718 45.4138 47.872C44.5853 47.9321 43.6498 47.9359 42.7377 48.0485C42.0094 48.1423 41.2944 48.33 40.5761 48.4839C40.1819 48.5777 39.7843 48.4051 39.7743 48.0822C39.7609 47.5943 40.1151 47.5155 40.4291 47.4817C41.7455 47.3991 43.0585 47.2978 44.3748 47.264C46.5731 47.1739 48.7715 47.1213 50.9631 47.0725C51.5946 47.0575 52.2327 47.1213 52.8641 47.1213C53.1749 47.1251 53.4922 47.0162 53.7996 47.0463C54.0268 47.0725 54.2373 47.2715 54.4578 47.3916C54.274 47.6731 54.1337 48.0785 53.8898 48.2061C53.6125 48.345 53.2383 48.2211 52.9109 48.2211C52.4165 48.2286 51.922 48.2812 51.4309 48.2399C51.1836 48.2249 50.9297 48.101 50.6892 47.9959C50.5555 47.9396 50.4386 47.7857 50.325 47.7857C48.9987 47.7669 47.6857 47.7745 46.3025 47.8383C46.7903 48.3187 46.5598 48.8555 46.5531 49.381C46.533 50.8224 46.5397 52.2675 46.533 53.7088C46.533 54.0016 46.5999 54.1668 46.9005 54.148C48.1066 54.0279 49.3161 53.9303 50.5221 53.8102L50.619 53.7989C50.8663 53.889 51.3039 53.9641 51.3206 54.088C51.3574 54.4783 51.1502 54.7523 50.7226 54.7786C50.0912 54.8199 49.4931 54.9851 48.8149 54.8086C48.1868 54.636 47.4652 54.8387 46.7903 54.9025C46.7068 54.9137 46.5698 55.1352 46.5765 55.2591C46.5965 56.5728 46.6567 57.8716 46.7101 59.1778C46.7235 59.5381 46.7736 59.8835 46.7636 60.2363C46.7569 60.3677 46.6132 60.5779 46.523 60.5891C46.386 60.6042 46.1655 60.4991 46.1221 60.3902C46.0119 59.9998 45.915 59.5869 45.9083 59.1928C45.8782 57.8153 45.9016 56.4302 45.9016 54.97C45.3069 55.0714 44.7857 55.1577 44.2712 55.2478L44.1276 55.3004C43.7133 55.3867 43.3658 55.169 43.3692 54.8199C43.3758 54.3357 43.7099 54.2794 44.0273 54.2531C44.2846 54.2381 44.5418 54.2719 44.7857 54.2719C45.0864 54.2681 45.3871 54.2343 45.6911 54.2231C45.7245 54.2231 45.7546 54.2156 45.8648 54.1856" fill="white"/>
<path fill-rule="evenodd" clip-rule="evenodd" d="M147.259 51.6545C147.41 50.1718 147.56 48.7229 147.71 47.2778C147.724 47.1277 147.76 46.9925 147.811 46.8424C147.897 46.5721 147.897 46.163 148.308 46.2155C148.596 46.2493 148.893 46.8724 148.84 47.2328C148.632 48.4789 148.372 49.7139 148.235 50.9863C147.984 53.2122 147.847 55.4568 148.081 57.7015C148.105 57.9379 148.208 58.1744 148.268 58.4146L148.449 58.4484C148.622 58.1256 148.789 57.8066 148.943 57.48C149.033 57.3148 149.077 57.1309 149.17 56.9808C149.314 56.7105 149.488 56.7668 149.568 57.0221C149.631 57.2248 149.665 57.495 149.595 57.6714C149.341 58.287 149.077 58.9251 148.719 59.4807C148.399 59.9874 147.874 59.9311 147.617 59.3756C147.349 58.835 147.209 58.2157 147.019 57.6377C146.815 57.9379 146.591 58.3321 146.317 58.6586C145.983 59.079 145.579 59.4581 145.021 59.3305C144.413 59.1691 144.142 58.6323 144.055 58.0168C143.721 55.8022 144.192 53.7827 145.512 52.0786C146.04 51.388 146.558 51.3091 147.269 51.647M147.246 53.0733C147.092 53.0358 146.939 53.0433 146.862 52.9457C146.407 52.514 146.247 52.514 145.903 53.0658C145.368 53.9291 145.088 54.9088 144.994 55.9373C144.937 56.4816 144.924 57.0596 145.007 57.6039C145.094 58.2157 145.465 58.2908 145.856 57.8441C145.943 57.7465 146.037 57.6264 146.1 57.5063C146.808 56.125 147.106 54.631 147.246 53.0696V53.0733Z" fill="white"/>
<path fill-rule="evenodd" clip-rule="evenodd" d="M103.957 54.1756C103.847 54.4046 103.673 54.6223 103.62 54.87C103.282 56.2363 102.982 57.6401 102.651 59.0177C102.597 59.2241 102.467 59.4043 102.377 59.5845C102.233 59.3818 101.976 59.1866 101.963 58.9802C101.859 57.4675 101.702 55.9473 101.776 54.4346C101.879 52.0661 102.146 49.7126 102.343 47.3441L102.357 47.239C102.47 46.9162 102.424 46.4207 102.918 46.4658C103.242 46.5108 103.533 47.1564 103.446 47.5806C102.955 49.8702 102.774 52.1862 102.661 54.5247C102.654 54.6373 102.661 54.7424 102.748 54.8775C102.881 54.581 102.988 54.2582 103.149 53.9804C103.383 53.575 103.62 53.1584 103.93 52.8356C104.087 52.6704 104.465 52.6141 104.652 52.6967C104.839 52.8055 104.996 53.1546 105.013 53.4024C105.1 54.8663 105.147 56.3226 105.217 57.7753C105.23 58.008 105.29 58.237 105.33 58.4659L105.477 58.526C105.775 58.0268 106.069 57.5238 106.369 57.002C106.76 57.3361 106.697 57.7452 106.57 58.068C106.366 58.5973 106.125 59.1115 105.831 59.577C105.424 60.2188 104.729 60.1325 104.572 59.3855C104.341 58.2745 104.271 57.1334 104.171 56.0036C104.121 55.4218 104.161 54.825 104.161 54.2281L103.964 54.1606" fill="white"/>
<path fill-rule="evenodd" clip-rule="evenodd" d="M110.352 57.7191C110.061 58.1282 109.817 58.5411 109.51 58.9015C109.162 59.3406 108.711 59.6109 108.173 59.4307C107.632 59.2505 107.422 58.7588 107.305 58.1695C106.954 56.3791 108.01 53.2861 109.339 52.2389C109.79 51.8973 110.261 51.6721 110.833 51.8673C111.775 52.1901 112.112 53.455 111.484 54.2921C111.404 54.4122 111.317 54.5849 111.317 54.7312C111.34 55.7973 111.381 56.8708 111.441 57.9293C111.451 58.1245 111.641 58.3122 111.748 58.5148C111.878 58.3647 112.055 58.2333 112.149 58.0644C112.293 57.7979 112.386 57.4939 112.51 57.2124C112.557 57.1148 112.67 56.9947 112.71 57.0097C112.804 57.051 112.917 57.1636 112.927 57.2649C112.951 57.5202 112.984 57.8017 112.894 58.0231C112.71 58.5411 112.5 59.0591 112.219 59.5208C111.785 60.204 111.093 60.1139 110.806 59.3444C110.605 58.8564 110.502 58.2934 110.348 57.7191M108.173 57.3475C108.257 57.5352 108.334 58.0006 108.571 58.1432C108.975 58.3722 109.206 57.8842 109.426 57.5689C109.486 57.4676 109.546 57.3437 109.606 57.2274C110.071 56.2139 110.321 55.1066 110.432 53.973C110.448 53.7816 110.562 53.6127 110.632 53.44C110.672 53.3274 110.772 53.166 110.739 53.1135C110.659 53.0046 110.482 52.8357 110.408 52.8657C110.118 52.9783 109.794 53.0834 109.606 53.3237C108.741 54.4047 108.35 55.7184 108.177 57.34L108.173 57.3475Z" fill="white"/>
<path fill-rule="evenodd" clip-rule="evenodd" d="M135.73 52.2908C137.607 53.8523 138.275 55.8717 137.651 58.015C137.517 58.4654 137.303 58.9196 137.033 59.2874C136.261 60.3309 135.078 60.2408 134.356 59.141C133.354 57.5796 133.434 55.0722 134.547 53.4731C134.657 53.3268 134.761 53.1879 134.871 53.049C134.62 52.8501 134.189 52.8913 134.276 52.3508C134.343 51.8779 134.6 51.5964 134.985 51.525C135.773 51.3937 136.558 51.2923 137.347 51.191C137.614 51.1647 137.834 51.2848 137.788 51.6376C137.751 51.9529 137.727 52.3246 137.29 52.302C136.809 52.287 136.324 52.2945 135.733 52.2945M135.693 53.6533C134.386 54.5354 134.353 57.5195 135.195 58.563C135.589 59.051 136.107 58.9909 136.451 58.4204C137.25 57.0991 136.862 54.6405 135.693 53.6533Z" fill="white"/>
<path fill-rule="evenodd" clip-rule="evenodd" d="M140.881 52.2858C142.762 53.7835 143.427 55.9042 142.772 58.0963C142.669 58.4492 142.505 58.7832 142.311 59.0835C141.479 60.3447 140.21 60.2884 139.418 58.9934C138.542 57.5596 138.599 55.1648 139.541 53.6896C139.678 53.4682 139.825 53.2805 139.972 53.0703L139.926 52.9802C139.715 52.8188 139.334 52.8451 139.401 52.3609C139.461 51.9367 139.668 51.6177 140.053 51.5313C140.851 51.3849 141.65 51.2686 142.461 51.1672C142.735 51.1259 143.029 51.2611 142.943 51.6815C142.876 52.008 142.789 52.3609 142.328 52.2896C141.89 52.2257 141.446 52.2858 140.878 52.2858M140.824 53.5883C139.668 54.598 139.368 57.1317 140.26 58.4342C140.701 59.0948 141.302 59.0009 141.673 58.2315C142.361 56.8089 141.967 54.643 140.824 53.5883Z" fill="white"/>
<path fill-rule="evenodd" clip-rule="evenodd" d="M117.819 53.8373C117.151 53.338 115.711 53.3831 115.24 53.8035L115.136 54.04C115.163 55.3425 115.176 56.6487 115.246 57.9549C115.26 58.2252 115.484 58.6156 115.701 58.7132C116.058 58.8971 116.255 58.4767 116.409 58.1764C116.646 57.6959 116.85 57.1704 117.067 56.6712C117.144 56.5061 117.211 56.3371 117.304 56.1194C117.759 56.4685 117.732 56.9753 117.595 57.3206C117.281 58.0713 116.947 58.8633 116.466 59.4639C115.788 60.3347 114.832 60.1245 114.481 59.051C114.227 58.2552 114.147 57.3844 114.067 56.5286C114.007 55.8567 114.057 55.166 114.057 54.4754L113.927 54.4566C113.74 54.4754 113.549 54.5204 113.359 54.5467C113.415 54.2802 113.405 53.8298 113.542 53.7622C114.378 53.3493 114.267 52.4635 114.465 51.7203C114.638 51.0821 114.899 50.4741 115.18 49.8923C115.236 49.7496 115.507 49.7196 115.677 49.6445C115.691 49.851 115.744 50.0574 115.711 50.2451C115.57 51.0596 115.397 51.8779 115.23 52.6999C115.945 52.5798 116.576 52.4034 117.207 52.3696C117.498 52.3509 117.966 52.5048 118.056 52.7262C118.166 52.9815 117.932 53.4056 117.822 53.8373" fill="white"/>
<path fill-rule="evenodd" clip-rule="evenodd" d="M98.5448 49.7323C98.4513 50.2278 98.3544 50.727 98.2709 51.23C98.174 51.7405 98.0938 52.2397 98.0036 52.7802C98.6617 52.6601 99.2765 52.555 99.8845 52.4499C99.9981 52.4274 100.128 52.4086 100.229 52.4537C100.442 52.5513 100.817 52.6901 100.83 52.8215C100.843 53.1481 100.68 53.4859 100.569 53.88C99.6807 53.2382 98.8956 53.5835 98.1272 53.8462C98.0236 53.88 97.9033 54.0715 97.9033 54.1916C97.8967 55.4077 97.8733 56.6351 97.9434 57.8325C97.9635 58.1854 98.214 58.6959 98.4713 58.816C98.8756 58.9961 99.0693 58.4556 99.2431 58.114C99.4703 57.6786 99.644 57.2132 99.8344 56.759C99.8979 56.5976 99.9513 56.4287 100.022 56.2373C100.473 56.47 100.456 56.8829 100.389 57.2282C100.192 58.2492 99.7375 59.1463 98.9758 59.7881C98.3243 60.3437 97.5292 60.1034 97.2519 59.1613C96.9846 58.2755 96.9111 57.3145 96.8108 56.3686C96.7474 55.7643 96.7975 55.1337 96.7975 54.4994L96.6271 54.5557C96.4534 54.5857 96.283 54.6082 96.1093 54.642C96.126 54.4055 96.136 54.1728 96.1761 53.9476C96.1995 53.8538 96.303 53.7449 96.3832 53.7149C97.0447 53.4821 97.0314 52.8478 97.1416 52.2435C97.2719 51.5941 97.4356 50.941 97.6661 50.3442C97.7797 50.0364 98.0938 49.8337 98.3143 49.5859C98.3911 49.6385 98.4713 49.7023 98.5415 49.7361" fill="white"/>
<path fill-rule="evenodd" clip-rule="evenodd" d="M121.35 60.1504C121.043 60.0116 120.729 59.929 120.442 59.7563C120.154 59.5574 120.057 59.2233 120.221 58.878C120.381 58.5289 120.639 58.6152 120.923 58.7053C122.002 59.1145 122.944 58.5214 123.214 57.294C123.355 56.6596 123.131 56.1116 122.58 55.8976C122.179 55.7475 121.748 55.6649 121.327 55.5636C120.391 55.3459 119.994 54.6627 120.291 53.6793C120.578 52.7146 121.16 51.9977 121.975 51.551C122.259 51.4084 122.59 51.3333 122.777 51.7012C122.991 52.0878 122.703 52.2942 122.453 52.4969C122.139 52.7709 121.805 53.0374 121.547 53.3602C121.026 54.0134 121.166 54.4262 121.922 54.5876C122.169 54.6439 122.409 54.689 122.653 54.7603C123.97 55.1244 124.507 56.1754 124.14 57.6355C123.796 58.9943 122.58 60.0566 121.35 60.1542" fill="white"/>
<path fill-rule="evenodd" clip-rule="evenodd" d="M118.607 49.4906C118.868 49.1152 119.122 48.8337 119.285 48.5109C119.439 48.1768 119.563 47.7902 119.606 47.4148C119.66 47.0169 120.107 46.5665 120.448 46.7054C120.575 46.7655 120.702 46.9682 120.709 47.1183C120.739 47.7902 119.469 49.4718 118.858 49.5881C118.804 49.5881 118.744 49.5318 118.61 49.4906" fill="white"/>
<path fill-rule="evenodd" clip-rule="evenodd" d="M39.6372 0C39.6472 1.94435 39.6606 3.89621 39.6639 5.84431C39.6706 7.21061 39.6706 8.57691 39.6706 9.95822C34.726 11.0393 31.1244 14.0834 28.7323 19.147C28.7189 18.873 28.6956 18.7491 28.6956 18.614V0.330313C28.6956 0.217706 28.7123 0.105098 28.7223 0.00375151H39.6372" fill="white"/>
<path fill-rule="evenodd" clip-rule="evenodd" d="M26.9883 33.4647V52.6492H16.0133V52.0862C16.0133 49.1659 16.02 46.2306 15.9966 43.3141C15.9966 42.8674 16.0901 42.6985 16.5211 42.5934C21.1617 41.4636 24.5929 38.5245 26.8179 33.8138C26.8547 33.7274 26.8881 33.6374 26.985 33.4609" fill="white"/>
<path fill-rule="evenodd" clip-rule="evenodd" d="M13.6511 11.0195C6.1106 11.0195 0 17.8811 0 26.3491C0 34.8172 6.1106 41.69 13.6511 41.69C21.1917 41.69 27.3023 34.8172 27.3023 26.3491C27.3023 17.8811 21.1883 11.0195 13.6511 11.0195ZM13.6511 30.6394C11.543 30.6394 9.83577 28.7176 9.83577 26.3491C9.83577 23.9806 11.543 22.0625 13.6511 22.0625C15.7593 22.0625 17.4698 23.9881 17.4698 26.3491C17.4698 28.7101 15.7593 30.6394 13.6511 30.6394Z" fill="white"/>
<path fill-rule="evenodd" clip-rule="evenodd" d="M42.0627 11.0195C34.5188 11.0195 28.4149 17.8811 28.4149 26.3491C28.4149 34.8172 34.5188 41.69 42.0627 41.69C49.6066 41.69 55.7172 34.8172 55.7172 26.3491C55.7172 17.8811 49.5966 11.0195 42.0627 11.0195ZM42.0627 30.6394C39.9613 30.6394 38.2507 28.7176 38.2507 26.3491C38.2507 23.9806 39.9613 22.0625 42.0627 22.0625C44.1642 22.0625 45.8781 23.9881 45.8781 26.3491C45.8781 28.7101 44.1742 30.6394 42.0627 30.6394Z" fill="white"/>
<path d="M89.5976 13.1387C82.7219 13.1387 79.3576 18.9154 79.3576 26.3325C79.3576 33.7495 82.7219 39.5225 89.5976 39.5225C96.4733 39.5225 99.8544 33.757 99.8544 26.3325C99.8544 18.9079 96.4867 13.1387 89.5976 13.1387ZM89.5976 35.1684C85.3479 35.1684 83.7443 30.8368 83.7443 26.3325C83.7443 21.8282 85.3479 17.5041 89.5976 17.5041C93.8473 17.5041 95.461 21.8169 95.461 26.3325C95.461 30.848 93.8674 35.1684 89.5976 35.1684Z" fill="white"/>
<path d="M112.403 13.1387C105.511 13.1387 102.15 18.9154 102.15 26.3325C102.15 33.7495 105.514 39.5225 112.403 39.5225C119.292 39.5225 122.647 33.757 122.647 26.3325C122.647 18.9079 119.279 13.1387 112.403 13.1387ZM112.403 35.1684C108.137 35.1684 106.543 30.8368 106.543 26.3325C106.543 21.8282 108.137 17.5041 112.403 17.5041C116.67 17.5041 118.253 21.8169 118.253 26.3325C118.253 30.848 116.656 35.1684 112.403 35.1684Z" fill="white"/>
<path d="M125.807 13.5762H134.443C139.632 13.5762 143.524 17.7276 143.524 26.1882C143.524 33.579 140.55 39.0854 134.443 39.0854H125.807V13.5762ZM130.107 34.7613H134.129C136.682 34.7613 139.121 33.1886 139.121 26.7212C139.121 20.2538 137.717 17.9453 133.351 17.9453H130.107V34.7613Z" fill="white"/>
<path d="M65.7167 4.82113H63.8191L63.4917 5.86087H62.7166L64.3403 0.759766H65.2022L66.8259 5.86087H66.0441L65.7167 4.82113ZM65.5063 4.13798L64.7679 1.76948L64.0229 4.13798H65.5029H65.5063Z" fill="white"/>
<path d="M71.7004 0.765625V4.44037C71.7004 4.89455 71.5767 5.25489 71.3328 5.51764C71.0856 5.78039 70.7649 5.91177 70.364 5.91177C69.9631 5.91177 69.6423 5.78039 69.3951 5.51764C69.1479 5.25489 69.0276 4.89455 69.0276 4.44037H69.7793C69.7826 4.66558 69.8361 4.842 69.933 4.97713C70.0299 5.1085 70.1769 5.17607 70.3673 5.17607C70.5577 5.17607 70.7047 5.10851 70.805 4.97338C70.9052 4.83825 70.9553 4.66183 70.9553 4.44037V0.765625H71.707H71.7004Z" fill="white"/>
<path d="M73.5479 5.66723C73.2739 5.49457 73.0567 5.25059 72.9031 4.93529C72.7494 4.61999 72.6692 4.25589 72.6692 3.83924C72.6692 3.4226 72.7494 3.06601 72.9097 2.74696C73.0701 2.4279 73.2906 2.18392 73.5679 2.01501C73.8452 1.84234 74.1559 1.75977 74.5 1.75977C74.8441 1.75977 75.1549 1.8461 75.4322 2.01501C75.7095 2.18767 75.93 2.43166 76.0903 2.74696C76.2507 3.06226 76.3309 3.43011 76.3309 3.83924C76.3309 4.24838 76.2474 4.61248 76.0836 4.93154C75.9166 5.25059 75.6927 5.49457 75.4088 5.66723C75.1248 5.8399 74.8107 5.92623 74.4666 5.92623C74.1225 5.92623 73.8218 5.8399 73.5479 5.66723ZM75.0045 5.04789C75.1716 4.94655 75.3085 4.79265 75.4121 4.58621C75.5157 4.37976 75.5691 4.13202 75.5691 3.83924C75.5691 3.54647 75.519 3.29873 75.4188 3.09604C75.3186 2.89335 75.1849 2.73945 75.0212 2.6381C74.8542 2.53676 74.6771 2.48421 74.4867 2.48421C74.2962 2.48421 74.1192 2.53676 73.9555 2.6381C73.7918 2.73945 73.6615 2.89335 73.5679 3.09604C73.471 3.29873 73.4242 3.54647 73.4242 3.83924C73.4242 4.27466 73.5245 4.60873 73.7216 4.84896C73.9187 5.08543 74.1693 5.20554 74.47 5.20554C74.6604 5.20554 74.8408 5.153 75.0079 5.05165L75.0045 5.04789Z" fill="white"/>
<path d="M79.6648 1.9559C79.8787 2.08727 80.0491 2.28246 80.1727 2.54145C80.2963 2.80045 80.3598 3.11199 80.3598 3.47984V5.86336H79.6214V3.60371C79.6214 3.24337 79.5412 2.96561 79.3809 2.77042C79.2205 2.57899 79 2.4814 78.7227 2.4814C78.4454 2.4814 78.2249 2.57899 78.0612 2.77042C77.8975 2.96185 77.8173 3.23962 77.8173 3.60371V5.86336H77.0723V0.439453H77.8173V2.29372C77.9443 2.12105 78.1046 1.98968 78.2984 1.89959C78.4922 1.80575 78.7027 1.76071 78.9332 1.76071C79.2071 1.76071 79.451 1.82828 79.6682 1.95965L79.6648 1.9559Z" fill="white"/>
<path d="M83.8813 1.95675C84.1051 2.08813 84.2788 2.28331 84.4058 2.54231C84.5327 2.8013 84.5962 3.11285 84.5962 3.4807V5.86422H83.8579V3.60457C83.8579 3.24423 83.7777 2.96646 83.6173 2.77128C83.4569 2.57984 83.2364 2.48225 82.9591 2.48225C82.6818 2.48225 82.4614 2.57984 82.2976 2.77128C82.1339 2.96271 82.0538 3.24047 82.0538 3.60457V5.86422H81.3087V1.82538H82.0538V2.28706C82.174 2.12191 82.331 1.99053 82.5215 1.89669C82.7119 1.80285 82.9124 1.75781 83.1262 1.75781C83.4102 1.75781 83.6641 1.82538 83.8879 1.95675H83.8813Z" fill="white"/>
<path d="M86.0865 5.75537C85.8627 5.63901 85.6856 5.48511 85.5553 5.28617C85.425 5.08723 85.3549 4.86577 85.3448 4.62179H86.1133C86.1266 4.79445 86.2001 4.93709 86.3304 5.04969C86.4641 5.16605 86.6278 5.22236 86.8282 5.22236C87.0287 5.22236 87.1991 5.17731 87.316 5.08723C87.4296 4.99714 87.4897 4.88078 87.4897 4.73815C87.4897 4.588 87.4263 4.4754 87.296 4.40033C87.169 4.32526 86.9652 4.24643 86.6846 4.1601C86.4139 4.07752 86.1934 3.99494 86.0264 3.91987C85.856 3.84104 85.709 3.72093 85.5854 3.55953C85.4618 3.39812 85.3983 3.18417 85.3983 2.92142C85.3983 2.70747 85.4551 2.50853 85.5687 2.33211C85.6823 2.15194 85.8426 2.01305 86.0531 1.91171C86.2636 1.81036 86.5075 1.75781 86.7815 1.75781C87.1891 1.75781 87.5198 1.87417 87.7704 2.10689C88.0209 2.33962 88.1546 2.65492 88.1713 3.05655H87.4263C87.4129 2.87638 87.3494 2.72999 87.2291 2.62489C87.1122 2.51603 86.9518 2.46348 86.7514 2.46348C86.5509 2.46348 86.4039 2.50477 86.3004 2.58735C86.1968 2.66993 86.1433 2.77878 86.1433 2.91766C86.1433 3.02652 86.1767 3.1166 86.2469 3.18792C86.3171 3.25924 86.4006 3.3193 86.5008 3.36059C86.601 3.40188 86.748 3.45442 86.9452 3.51824C87.2058 3.59706 87.4196 3.67589 87.5866 3.75846C87.7537 3.83729 87.8973 3.9574 88.0209 4.11505C88.1446 4.2727 88.2047 4.47915 88.2114 4.73815C88.2114 4.96711 88.1546 5.17356 88.041 5.35373C87.9274 5.5339 87.767 5.67654 87.5599 5.77789C87.3528 5.87923 87.1122 5.93178 86.8316 5.93178C86.5509 5.93178 86.2937 5.87548 86.0698 5.75912L86.0865 5.75537Z" fill="white"/>
<path d="M89.6644 5.66723C89.3905 5.49457 89.1733 5.25059 89.0196 4.93529C88.866 4.61999 88.7858 4.25589 88.7858 3.83924C88.7858 3.4226 88.8659 3.06601 89.0263 2.74696C89.1867 2.4279 89.4072 2.18392 89.6845 2.01501C89.9618 1.84234 90.2725 1.75977 90.6166 1.75977C90.9607 1.75977 91.2714 1.8461 91.5487 2.01501C91.826 2.18767 92.0465 2.43166 92.2069 2.74696C92.3673 3.06226 92.4474 3.43011 92.4474 3.83924C92.4474 4.24838 92.3639 4.61248 92.2002 4.93154C92.0332 5.25059 91.8093 5.49457 91.5254 5.66723C91.2414 5.8399 90.9273 5.92623 90.5832 5.92623C90.2391 5.92623 89.9384 5.8399 89.6644 5.66723ZM91.1211 5.04789C91.2881 4.94655 91.4251 4.79265 91.5287 4.58621C91.6323 4.37976 91.6857 4.13202 91.6857 3.83924C91.6857 3.54647 91.6356 3.29873 91.5354 3.09604C91.4351 2.89335 91.3015 2.73945 91.1378 2.6381C90.9708 2.53676 90.7937 2.48421 90.6032 2.48421C90.4128 2.48421 90.2357 2.53676 90.072 2.6381C89.9083 2.73945 89.778 2.89335 89.6845 3.09604C89.5876 3.29873 89.5408 3.54647 89.5408 3.83924C89.5408 4.27466 89.641 4.60873 89.8382 4.84896C90.0353 5.08543 90.2859 5.20554 90.5865 5.20554C90.777 5.20554 90.9574 5.153 91.1244 5.05165L91.1211 5.04789Z" fill="white"/>
<path d="M95.7621 1.95675C95.986 2.08813 96.1597 2.28331 96.2866 2.54231C96.4136 2.8013 96.4771 3.11285 96.4771 3.4807V5.86422H95.7387V3.60457C95.7387 3.24423 95.6585 2.96646 95.4982 2.77128C95.3378 2.57984 95.1173 2.48225 94.84 2.48225C94.5627 2.48225 94.3422 2.57984 94.1785 2.77128C94.0148 2.96271 93.9346 3.24047 93.9346 3.60457V5.86422H93.1896V1.82538H93.9346V2.28706C94.0549 2.12191 94.2119 1.99053 94.4023 1.89669C94.5928 1.80285 94.7932 1.75781 95.0071 1.75781C95.291 1.75781 95.5449 1.82538 95.7688 1.95675H95.7621Z" fill="white"/>
<path d="M98.8122 5.11805L99.8312 1.82617H100.62L99.2498 5.86501H98.3612L96.998 1.82617H97.7932L98.8122 5.11805Z" fill="white"/>
<path d="M101.221 1.13447C101.131 1.03312 101.084 0.905501 101.084 0.751604C101.084 0.597708 101.131 0.473839 101.221 0.368739C101.311 0.267392 101.425 0.214844 101.562 0.214844C101.699 0.214844 101.802 0.267392 101.896 0.368739C101.986 0.470085 102.033 0.597708 102.033 0.751604C102.033 0.905501 101.986 1.02937 101.896 1.13447C101.805 1.23581 101.692 1.28837 101.562 1.28837C101.431 1.28837 101.314 1.23581 101.221 1.13447ZM101.926 1.82513V5.86397H101.181V1.82513H101.926Z" fill="white"/>
<path d="M103.65 0.4375V5.86141H102.905V0.4375H103.65Z" fill="white"/>
<path d="M105.37 0.4375V5.86141H104.625V0.4375H105.37Z" fill="white"/>
<path d="M109.62 4.1547H106.874C106.894 4.4775 107.001 4.7365 107.195 4.93169C107.388 5.12687 107.622 5.22446 107.899 5.22446C108.3 5.22446 108.581 5.03679 108.748 4.66143H109.55C109.44 5.03303 109.243 5.33707 108.959 5.57355C108.675 5.81002 108.32 5.93013 107.899 5.93013C107.555 5.93013 107.248 5.8438 106.977 5.67114C106.707 5.49848 106.493 5.25449 106.339 4.93919C106.186 4.62389 106.109 4.2598 106.109 3.84315C106.109 3.4265 106.182 3.06241 106.333 2.74711C106.483 2.43181 106.693 2.18783 106.964 2.01891C107.235 1.84625 107.549 1.76367 107.899 1.76367C108.25 1.76367 108.541 1.84625 108.805 2.01141C109.069 2.17657 109.276 2.40929 109.426 2.70957C109.573 3.00986 109.647 3.35519 109.647 3.74556C109.647 3.8957 109.637 4.03458 109.62 4.1547ZM108.868 3.47905C108.865 3.17126 108.765 2.92352 108.574 2.7396C108.384 2.55567 108.147 2.46184 107.863 2.46184C107.605 2.46184 107.385 2.55192 107.205 2.73585C107.021 2.91977 106.914 3.16751 106.877 3.47905H108.868Z" fill="white"/>
<path d="M112.049 2.7432C112.199 2.4279 112.406 2.18392 112.67 2.01501C112.937 1.84234 113.241 1.75977 113.582 1.75977C114.017 1.75977 114.377 1.87613 114.661 2.10885C114.945 2.34157 115.139 2.67188 115.239 3.10354H114.438C114.371 2.90461 114.267 2.74696 114.123 2.63435C113.98 2.52174 113.799 2.46544 113.582 2.46544C113.278 2.46544 113.034 2.58555 112.854 2.82954C112.673 3.06976 112.583 3.41134 112.583 3.84675C112.583 4.28217 112.673 4.61999 112.854 4.86772C113.034 5.11171 113.278 5.23557 113.582 5.23557C114.013 5.23557 114.297 5.02162 114.438 4.59747H115.239C115.136 5.00661 114.939 5.33317 114.651 5.57715C114.364 5.81738 114.007 5.94125 113.582 5.94125C113.238 5.94125 112.934 5.85491 112.67 5.68225C112.406 5.50958 112.196 5.2656 112.049 4.9503C111.898 4.635 111.825 4.2709 111.825 3.85426C111.825 3.43761 111.898 3.07352 112.049 2.75822V2.7432Z" fill="white"/>
<path d="M116.626 5.66723C116.352 5.49457 116.138 5.25059 115.981 4.93529C115.824 4.61999 115.747 4.25589 115.747 3.83924C115.747 3.4226 115.828 3.06601 115.988 2.74696C116.148 2.4279 116.369 2.18392 116.646 2.01501C116.923 1.84234 117.237 1.75977 117.578 1.75977C117.919 1.75977 118.233 1.8461 118.51 2.01501C118.788 2.18767 119.008 2.43166 119.169 2.74696C119.329 3.06601 119.409 3.43011 119.409 3.83924C119.409 4.24838 119.326 4.61248 119.162 4.93154C118.995 5.25059 118.771 5.49457 118.487 5.66723C118.203 5.8399 117.889 5.92623 117.545 5.92623C117.201 5.92623 116.9 5.8399 116.626 5.66723ZM118.083 5.04789C118.25 4.94655 118.387 4.79265 118.49 4.58621C118.594 4.37976 118.647 4.13202 118.647 3.83924C118.647 3.54647 118.597 3.29873 118.497 3.09604C118.397 2.89335 118.263 2.73945 118.099 2.6381C117.932 2.53676 117.755 2.48421 117.565 2.48421C117.374 2.48421 117.197 2.53676 117.034 2.6381C116.87 2.73945 116.74 2.89335 116.646 3.09604C116.549 3.29873 116.502 3.54647 116.502 3.83924C116.502 4.27466 116.603 4.60873 116.8 4.84896C116.997 5.08918 117.248 5.20554 117.548 5.20554C117.739 5.20554 117.919 5.153 118.086 5.05165L118.083 5.04789Z" fill="white"/>
<path d="M125.266 1.95675C125.49 2.08813 125.667 2.28331 125.794 2.54231C125.921 2.8013 125.987 3.11285 125.987 3.4807V5.86422H125.249V3.60457C125.249 3.24423 125.169 2.96646 125.008 2.77128C124.848 2.57984 124.628 2.48225 124.35 2.48225C124.073 2.48225 123.853 2.57984 123.689 2.77128C123.525 2.96271 123.445 3.24047 123.445 3.60457V5.86422H122.707V3.60457C122.707 3.24423 122.626 2.96646 122.466 2.77128C122.306 2.57609 122.085 2.48225 121.808 2.48225C121.531 2.48225 121.307 2.57984 121.146 2.77128C120.983 2.96271 120.902 3.24047 120.902 3.60457V5.86422H120.157V1.82538H120.902V2.28706C121.026 2.12191 121.18 1.99053 121.367 1.89669C121.554 1.80285 121.754 1.75781 121.968 1.75781C122.256 1.75781 122.513 1.82538 122.737 1.96426C122.964 2.09939 123.138 2.29833 123.258 2.55732C123.368 2.31334 123.535 2.11815 123.766 1.97552C123.996 1.83288 124.243 1.75781 124.511 1.75781C124.795 1.75781 125.045 1.82538 125.272 1.95675H125.266Z" fill="white"/>
<path d="M128.189 1.94924C128.406 1.82162 128.653 1.75781 128.927 1.75781C129.241 1.75781 129.525 1.84414 129.786 2.01681C130.043 2.18947 130.247 2.43345 130.397 2.745C130.544 3.05655 130.618 3.41689 130.618 3.82228C130.618 4.22766 130.544 4.59176 130.397 4.91081C130.25 5.22987 130.047 5.48135 129.786 5.65777C129.529 5.83794 129.241 5.92428 128.927 5.92428C128.653 5.92428 128.41 5.86047 128.196 5.7366C127.982 5.61273 127.808 5.45508 127.675 5.27116V7.77854H126.93V1.81787H127.675V2.41093C127.801 2.22325 127.972 2.06936 128.189 1.94174V1.94924ZM129.706 3.10534C129.602 2.90265 129.469 2.74876 129.302 2.64366C129.135 2.53856 128.954 2.486 128.764 2.486C128.573 2.486 128.4 2.53855 128.232 2.64741C128.065 2.75626 127.928 2.91016 127.828 3.1166C127.725 3.32305 127.675 3.56328 127.675 3.84104C127.675 4.11881 127.725 4.36279 127.828 4.56924C127.932 4.77568 128.065 4.93333 128.232 5.04219C128.4 5.15104 128.577 5.20359 128.764 5.20359C128.951 5.20359 129.135 5.14729 129.302 5.03843C129.469 4.92958 129.602 4.76818 129.706 4.55798C129.809 4.34778 129.86 4.10379 129.86 3.82603C129.86 3.54826 129.809 3.30804 129.706 3.10534Z" fill="white"/>
<path d="M131.333 2.74696C131.483 2.43541 131.687 2.19143 131.948 2.01876C132.208 1.8461 132.492 1.75977 132.806 1.75977C133.09 1.75977 133.338 1.82358 133.548 1.94744C133.759 2.07131 133.929 2.22896 134.053 2.41289V1.82733H134.804V5.86617H134.053V5.2656C133.926 5.45703 133.755 5.61468 133.538 5.7423C133.321 5.86993 133.074 5.93374 132.793 5.93374C132.486 5.93374 132.202 5.84365 131.944 5.66723C131.687 5.49082 131.483 5.23933 131.333 4.92027C131.183 4.60122 131.109 4.23712 131.109 3.83174C131.109 3.42635 131.183 3.06601 131.333 2.75446V2.74696ZM133.895 3.1148C133.792 2.90836 133.658 2.75446 133.495 2.64561C133.331 2.53675 133.15 2.4842 132.96 2.4842C132.77 2.4842 132.589 2.53676 132.425 2.64186C132.262 2.74696 132.128 2.90085 132.025 3.10354C131.921 3.30624 131.871 3.54647 131.871 3.82423C131.871 4.10199 131.921 4.34598 132.025 4.55618C132.128 4.76638 132.262 4.92778 132.429 5.03663C132.596 5.14549 132.773 5.20179 132.96 5.20179C133.147 5.20179 133.331 5.14924 133.495 5.04039C133.662 4.93153 133.795 4.77388 133.895 4.56744C133.999 4.36099 134.049 4.11701 134.049 3.83924C134.049 3.56148 133.999 3.3175 133.895 3.1148Z" fill="white"/>
<path d="M138.352 1.95675C138.576 2.08813 138.75 2.28331 138.877 2.54231C139.004 2.8013 139.067 3.11285 139.067 3.4807V5.86422H138.329V3.60457C138.329 3.24423 138.249 2.96646 138.088 2.77128C137.928 2.57609 137.707 2.48225 137.43 2.48225C137.153 2.48225 136.929 2.57984 136.769 2.77128C136.605 2.96271 136.525 3.24047 136.525 3.60457V5.86422H135.78V1.82538H136.525V2.28706C136.648 2.12191 136.802 1.99053 136.992 1.89669C137.183 1.80285 137.383 1.75781 137.597 1.75781C137.881 1.75781 138.135 1.82538 138.359 1.95675H138.352Z" fill="white"/>
<path d="M143.25 1.82602L141.045 7.76417H140.277L141.008 5.7973L139.592 1.82227H140.42L141.433 4.90019L142.482 1.82227H143.25V1.82602Z" fill="white"/>
</svg>
