<svg width="32" height="31" viewBox="0 0 32 31" fill="none" xmlns="http://www.w3.org/2000/svg">
<g clip-path="url(#clip0_219_10993)">
<path d="M24.2434 0H7.34777C3.54867 0 0.465698 3.11595 0.465698 6.95568V24.0321C0.465698 27.8718 3.54867 30.9877 7.34777 30.9877H24.2434C28.0425 30.9877 31.1255 27.8718 31.1255 24.0321V6.95568C31.1255 3.11595 28.0425 0 24.2434 0ZM30.5065 7.23783V23.799C30.5065 27.4302 27.5934 30.3866 23.9885 30.3866H7.60266C4.00991 30.3866 1.08472 27.4424 1.08472 23.799V7.20103C1.09686 3.55758 4.00991 0.613375 7.60266 0.613375H23.9885C27.5813 0.613375 30.5065 3.55758 30.5065 7.20103V7.23783Z" fill="white"/>
<path d="M23.9886 30.3377H7.60266C4.0099 30.3377 1.08472 27.3935 1.08472 23.75V23.7868C1.08472 27.418 3.99776 30.3745 7.60266 30.3745H23.9886C27.5813 30.3745 30.5065 27.4303 30.5065 23.7868V23.75C30.5065 27.3812 27.5934 30.3377 23.9886 30.3377Z" fill="#147D41"/>
<path d="M23.9886 0.613281H7.60267C4.00991 0.613281 1.09686 3.55748 1.09686 7.20093V23.7621C1.09686 27.3933 4.00991 30.3497 7.61481 30.3497H24.0007C27.5935 30.3497 30.5186 27.4055 30.5186 23.7621V7.20093C30.5186 3.56975 27.6056 0.613281 24.0007 0.613281H23.9886ZM14.946 5.60616C14.946 5.60616 14.946 5.52029 14.946 5.48348H19.4855C19.4855 6.20727 19.4855 6.94332 19.4855 7.6671C19.4855 8.18234 19.4855 8.6853 19.4855 9.21281C17.4221 9.61764 15.9291 10.7585 14.9338 12.6477C14.9338 12.5496 14.9217 12.5005 14.9217 12.4514V5.60616H14.946ZM14.2299 25.1974H9.66608V24.9888C9.66608 23.897 9.66608 22.7929 9.66608 21.7011C9.66608 21.5294 9.70249 21.4681 9.88456 21.4312C11.8144 21.0142 13.2467 19.9101 14.1692 18.1436C14.1813 18.1068 14.1934 18.0822 14.242 18.0086V25.1974H14.2299ZM8.68292 21.1C5.53926 21.1 3.00248 18.5238 3.00248 15.3588C3.00248 12.1938 5.5514 9.61764 8.68292 9.61764C11.8144 9.61764 14.3634 12.1815 14.3634 15.3588C14.3634 18.5361 11.8144 21.1 8.68292 21.1ZM20.5172 9.60537C23.6487 9.60537 26.1976 12.1693 26.1976 15.3466C26.1976 18.5238 23.6487 21.0878 20.5172 21.0878C17.3857 21.0878 14.8367 18.5116 14.8367 15.3466C14.8367 12.1815 17.3735 9.60537 20.5172 9.60537ZM17.2643 22.0201H15.5529V22.9402H17.0215V23.6026H15.5407V25.2464H14.8246V21.3699H17.2521V22.0201H17.2643ZM19.4369 25.32C18.2717 25.32 17.7012 24.4368 17.7012 23.3082C17.7012 22.1796 18.2717 21.2963 19.4369 21.2963C20.6021 21.2963 21.1726 22.1796 21.1726 23.3082C21.1726 24.4368 20.6021 25.32 19.4369 25.32ZM23.2967 25.32C22.1315 25.32 21.561 24.4368 21.561 23.3082C21.561 22.1796 22.1315 21.2963 23.2967 21.2963C24.4619 21.2963 25.0324 22.1796 25.0324 23.3082C25.0324 24.4368 24.4619 25.32 23.2967 25.32ZM27.0351 25.2587H25.5665V21.3699H27.0351C27.909 21.3699 28.5766 22.0078 28.5766 23.2959C28.5766 24.4245 28.079 25.2587 27.0351 25.2587Z" fill="#147D41"/>
<path d="M8.69505 13.7395C7.82114 13.7395 7.10501 14.4633 7.10501 15.3465C7.10501 16.2298 7.82114 16.9536 8.69505 16.9536C9.56896 16.9536 10.2851 16.2298 10.2851 15.3465C10.2851 14.4633 9.56896 13.7395 8.69505 13.7395Z" fill="#147D41"/>
<path d="M20.5172 16.9536C21.3911 16.9536 22.1072 16.2298 22.1072 15.3465C22.1072 14.4633 21.4032 13.7395 20.5172 13.7395C19.6311 13.7395 18.9271 14.4633 18.9271 15.3465C18.9271 16.2298 19.6433 16.9536 20.5172 16.9536Z" fill="#147D41"/>
<path d="M19.4369 21.9712C18.7208 21.9712 18.4416 22.6336 18.4416 23.3206C18.4416 24.0076 18.7086 24.67 19.4369 24.67C20.1652 24.67 20.4322 24.0076 20.4322 23.3206C20.4322 22.6336 20.1652 21.9712 19.4369 21.9712Z" fill="#147D41"/>
<path d="M26.853 22.0325H26.3069V24.5964H26.9866C27.4235 24.5964 27.8362 24.351 27.8362 23.3696C27.8362 22.3882 27.5934 22.0325 26.853 22.0325Z" fill="#147D41"/>
<path d="M23.3088 21.9712C22.5806 21.9712 22.3136 22.6336 22.3136 23.3206C22.3136 24.0076 22.5806 24.67 23.3088 24.67C24.0371 24.67 24.3041 24.0076 24.3041 23.3206C24.3041 22.6336 24.0371 21.9712 23.3088 21.9712Z" fill="#147D41"/>
<path d="M19.5219 9.21297C19.5219 8.69773 19.5219 8.1825 19.5219 7.66726C19.5219 6.94348 19.5219 6.20743 19.5219 5.48364H14.9824C14.9824 5.48364 14.9824 5.56952 14.9824 5.60632V12.4516C14.9824 12.4516 14.9824 12.5497 14.9945 12.6479C15.9898 10.7464 17.4949 9.61779 19.5462 9.21297H19.5219Z" fill="white"/>
<path d="M9.88456 21.4314C9.70249 21.4682 9.66608 21.5296 9.66608 21.7013C9.66608 22.7931 9.66608 23.8972 9.66608 24.989V25.1976H14.2299V18.0088C14.1934 18.0701 14.1692 18.1069 14.157 18.1437C13.2346 19.9103 11.8023 21.0021 9.87242 21.4314H9.88456Z" fill="white"/>
<path d="M8.69506 9.60547C5.5514 9.60547 3.01462 12.1694 3.01462 15.3467C3.01462 18.5239 5.56353 21.0879 8.69506 21.0879C11.8266 21.0879 14.3755 18.5117 14.3755 15.3467C14.3755 12.1816 11.8266 9.60547 8.69506 9.60547ZM8.69506 16.9537C7.82115 16.9537 7.10502 16.2299 7.10502 15.3467C7.10502 14.4634 7.82115 13.7396 8.69506 13.7396C9.56897 13.7396 10.2851 14.4634 10.2851 15.3467C10.2851 16.2299 9.56897 16.9537 8.69506 16.9537Z" fill="white"/>
<path d="M20.5172 21.0879C23.6487 21.0879 26.1976 18.5117 26.1976 15.3467C26.1976 12.1816 23.6487 9.60547 20.5172 9.60547C17.3856 9.60547 14.8367 12.1694 14.8367 15.3467C14.8367 18.5239 17.3735 21.0879 20.5172 21.0879ZM20.5172 13.7396C21.3911 13.7396 22.1072 14.4634 22.1072 15.3467C22.1072 16.2299 21.4032 16.9537 20.5172 16.9537C19.6311 16.9537 18.9271 16.2299 18.9271 15.3467C18.9271 14.4634 19.6433 13.7396 20.5172 13.7396Z" fill="white"/>
<path d="M14.8367 25.2467H15.5529V23.6028H17.0337V22.9404H15.565V22.0203H17.2764V21.3701H14.8489V25.2467H14.8367Z" fill="white"/>
<path d="M19.4369 21.2964C18.2717 21.2964 17.7012 22.1796 17.7012 23.3083C17.7012 24.4369 18.2717 25.3201 19.4369 25.3201C20.6021 25.3201 21.1726 24.4369 21.1726 23.3083C21.1726 22.1796 20.6021 21.2964 19.4369 21.2964ZM19.4369 24.6577C18.7208 24.6577 18.4416 23.9952 18.4416 23.3083C18.4416 22.6213 18.7087 21.9588 19.4369 21.9588C20.1652 21.9588 20.4322 22.6213 20.4322 23.3083C20.4322 23.9952 20.1652 24.6577 19.4369 24.6577Z" fill="white"/>
<path d="M23.3088 21.2964C22.1436 21.2964 21.5732 22.1796 21.5732 23.3083C21.5732 24.4369 22.1436 25.3201 23.3088 25.3201C24.4741 25.3201 25.0445 24.4369 25.0445 23.3083C25.0445 22.1796 24.4741 21.2964 23.3088 21.2964ZM23.3088 24.6577C22.5806 24.6577 22.3136 23.9952 22.3136 23.3083C22.3136 22.6213 22.5806 21.9588 23.3088 21.9588C24.0371 21.9588 24.3041 22.6213 24.3041 23.3083C24.3041 23.9952 24.0371 24.6577 23.3088 24.6577Z" fill="white"/>
<path d="M27.0472 21.3701H25.5786V25.2589H27.0472C28.0789 25.2589 28.5887 24.4247 28.5887 23.2961C28.5887 22.008 27.9333 21.3701 27.0472 21.3701ZM26.9987 24.5965H26.319V22.0326H26.8652C27.6056 22.0326 27.8483 22.3883 27.8483 23.3697C27.8483 24.3511 27.4357 24.5965 26.9987 24.5965Z" fill="white"/>
</g>
<defs>
<clipPath id="clip0_219_10993">
<rect width="30.672" height="31" fill="white" transform="translate(0.465698)"/>
</clipPath>
</defs>
</svg>
