<svg width="78" height="26" viewBox="0 0 78 26" fill="none" xmlns="http://www.w3.org/2000/svg">
<path d="M74.5406 1H3.44425C2.09433 1 1 2.16706 1 3.60671V22.7629C1 24.2025 2.09433 25.3696 3.44425 25.3696H74.5406C75.8906 25.3696 76.9849 24.2025 76.9849 22.7629V3.60671C76.9849 2.16706 75.8906 1 74.5406 1Z" stroke="#F2F7F4" stroke-miterlimit="10"/>
<path d="M18.1829 10.6706L16.1383 12.837L10.1309 6.31665C10.4306 6.12487 10.8235 6.08936 11.1699 6.30955L18.1763 10.6706H18.1829Z" fill="#F3F8F5"/>
<path d="M18.2362 15.82L11.1765 20.2096C10.757 20.4724 10.2641 20.3729 9.95775 20.0533L16.145 13.533L18.2429 15.8129L18.2362 15.82Z" fill="#F3F8F5"/>
<path d="M20.6005 14.2006L18.5759 15.4578H18.5625L16.4646 13.1849L18.5093 11.0186H18.5226L20.5939 12.3184C21.2665 12.7374 21.2665 13.7815 20.5939 14.2006H20.6005Z" fill="#F3F8F5"/>
<path d="M9.62475 19.705C9.62475 19.705 9.61809 19.6979 9.61143 19.6908C9.4316 19.499 9.31172 19.2291 9.31172 18.9166V7.59477C9.31172 7.18991 9.51152 6.86318 9.79125 6.67141C9.79125 6.67141 9.80457 6.67141 9.80457 6.66431L15.812 13.1846L9.62475 19.705Z" fill="#F3F8F5"/>
<path d="M32.3355 14.8077H29.3984V15.6743H31.4564C31.21 16.6402 30.3841 17.3505 29.3984 17.3505C28.2196 17.3505 27.2672 16.3348 27.2672 15.0776C27.2672 13.8204 28.2196 12.8048 29.3984 12.8048C29.9579 12.8048 30.4641 13.032 30.8437 13.4085L31.4164 12.7976C30.8903 12.2649 30.1777 11.9453 29.3984 11.9453C27.7734 11.9453 26.4547 13.3517 26.4547 15.0847C26.4547 16.8178 27.7734 18.2242 29.3984 18.2242C31.0235 18.2242 32.3422 16.8178 32.3422 15.0847C32.3422 14.9924 32.3422 14.9072 32.3289 14.8148L32.3355 14.8077Z" fill="#F3F8F5"/>
<path d="M34.6532 14.1541C33.6142 14.1541 32.7684 15.0632 32.7684 16.1783C32.7684 17.2935 33.6142 18.2026 34.6532 18.2026C35.6921 18.2026 36.538 17.2935 36.538 16.1783C36.538 15.0632 35.6921 14.1541 34.6532 14.1541ZM34.6532 17.4C34.0804 17.4 33.6209 16.8673 33.6209 16.2139C33.6209 15.5604 34.0804 15.0277 34.6532 15.0277C35.2259 15.0277 35.6855 15.5604 35.6855 16.2139C35.6855 16.8673 35.2259 17.4 34.6532 17.4Z" fill="#F3F8F5"/>
<path d="M38.8491 14.1541C37.8101 14.1541 36.9643 15.0632 36.9643 16.1783C36.9643 17.2935 37.8101 18.2026 38.8491 18.2026C39.8881 18.2026 40.7339 17.2935 40.7339 16.1783C40.7339 15.0632 39.8881 14.1541 38.8491 14.1541ZM38.8491 17.4C38.2763 17.4 37.8168 16.8673 37.8168 16.2139C37.8168 15.5604 38.2763 15.0277 38.8491 15.0277C39.4218 15.0277 39.8814 15.5604 39.8814 16.2139C39.8814 16.8673 39.4218 17.4 38.8491 17.4Z" fill="#F3F8F5"/>
<path d="M45.8821 11.9307H45.0695V18.2805H45.8821V11.9307Z" fill="#F3F8F5"/>
<path d="M49.2255 16.6981C49.1056 16.968 48.8925 17.174 48.6327 17.2805C48.3597 17.3942 48.0533 17.3871 47.7802 17.2663C47.6071 17.1882 47.4605 17.0603 47.3473 16.9041L50.1113 15.7534L50.0713 15.5971C50.058 15.5403 50.038 15.4835 50.018 15.4338C49.8315 14.9224 49.4719 14.5246 48.999 14.3045C48.5262 14.0843 48.0067 14.0772 47.5271 14.276C47.0476 14.4749 46.6747 14.8585 46.4682 15.3628C46.2617 15.8671 46.2551 16.4211 46.4415 16.9325C46.628 17.4439 46.9877 17.8416 47.4605 18.0618C47.707 18.1755 47.9667 18.2323 48.2331 18.2323C48.4729 18.2323 48.706 18.1826 48.9324 18.0902C49.392 17.8985 49.7583 17.5362 49.9714 17.0603L50.0447 16.897L49.2987 16.5489L49.2321 16.6981H49.2255ZM48.9724 15.2988L47.1275 16.073C47.1409 15.9452 47.1675 15.8244 47.2141 15.7108C47.334 15.4196 47.5471 15.1994 47.8268 15.0857C47.96 15.0289 48.0933 15.0076 48.2331 15.0076C48.5062 15.0076 48.7726 15.1142 48.979 15.313L48.9724 15.2988Z" fill="#F3F8F5"/>
<path d="M43.8308 14.1541V14.5092C43.5577 14.2819 43.2247 14.1541 42.8651 14.1541C41.9194 14.1541 41.1601 15.0632 41.1601 16.1783C41.1601 17.2935 41.926 18.2026 42.8651 18.2026C43.2247 18.2026 43.5577 18.0677 43.8308 17.8475V18.2808C43.8308 18.5294 43.6643 19.2254 42.8917 19.2254C42.1192 19.2254 41.906 18.4938 41.906 18.4938L41.1668 18.8632C41.1668 18.8632 41.4465 20.0209 42.9583 20.0209C43.7775 20.0209 44.2038 19.5095 44.4169 19.0479C44.5634 18.7353 44.63 18.3802 44.63 18.0322V14.1683H43.8175L43.8308 14.1541ZM42.8651 17.4C42.3456 17.4 41.9327 16.8673 41.9327 16.2139C41.9327 15.5604 42.3523 15.0277 42.8651 15.0277C43.3779 15.0277 43.7975 15.5604 43.7975 16.2139C43.7975 16.8673 43.3779 17.4 42.8651 17.4Z" fill="#F3F8F5"/>
<path d="M53.7477 11.9324H52.9352V18.2822H53.7477V11.9324Z" fill="#F3F8F5"/>
<path d="M54.8866 11.9314V12.798C55.4594 12.798 55.9189 13.3307 55.9189 13.9841C55.9189 14.6376 55.4594 15.1703 54.8866 15.1703V15.9729C55.9256 15.9729 56.7714 15.0637 56.7714 13.9486C56.7714 12.8335 55.9256 11.9243 54.8866 11.9243V11.9314Z" fill="#F3F8F5"/>
<path d="M54.8866 11.9324H53.5213V12.7989H54.8866V11.9324Z" fill="#F3F8F5"/>
<path d="M54.8866 15.1711H53.5213V15.9737H54.8866V15.1711Z" fill="#F3F8F5"/>
<path d="M58.0036 11.9316H57.1911V18.2815H58.0036V11.9316Z" fill="#F3F8F5"/>
<path d="M60.6676 17.7265L60.7675 17.6129V18.2237H61.4535V15.6028C61.4535 15.3613 61.4268 15.1482 61.3735 14.9707C61.3203 14.8002 61.2337 14.6581 61.1205 14.5516C61.0072 14.4451 60.8541 14.3598 60.6742 14.303C60.4878 14.2462 60.2613 14.2178 60.0016 14.2178C59.855 14.2178 59.7085 14.232 59.5687 14.2533C59.4288 14.2817 59.3023 14.3101 59.1824 14.3527C59.0825 14.3882 58.9892 14.4238 58.9093 14.4664L58.9559 15.1553C59.0092 15.1269 59.0625 15.0985 59.1224 15.0701C59.2223 15.0204 59.3356 14.9778 59.4688 14.9423C59.602 14.8996 59.7485 14.8854 59.915 14.8854C60.0415 14.8854 60.1547 14.8996 60.2413 14.928C60.3346 14.9565 60.4078 15.0062 60.4678 15.0701C60.5211 15.134 60.5677 15.2193 60.5877 15.3116C60.6076 15.4039 60.621 15.5105 60.621 15.6312V15.9153H60.228C59.9283 15.9153 59.6619 15.9366 59.4355 15.9864C59.2157 16.0361 59.0225 16.1071 58.876 16.2065C58.7295 16.306 58.6229 16.4267 58.5497 16.5759C58.4764 16.7251 58.4364 16.9026 58.4364 17.1015C58.4364 17.2862 58.4631 17.4566 58.523 17.5916C58.583 17.7265 58.6629 17.8473 58.7695 17.9396C58.876 18.032 59.0026 18.103 59.1424 18.1527C59.2889 18.2024 59.4488 18.2237 59.6286 18.2237C59.8417 18.2237 60.0349 18.1811 60.208 18.0959C60.3812 18.0107 60.5344 17.8899 60.6742 17.7336L60.6676 17.7265ZM60.2413 17.4921C60.1214 17.5703 59.9816 17.6129 59.8351 17.6129C59.6619 17.6129 59.522 17.5632 59.4155 17.4637C59.3156 17.3643 59.2623 17.2293 59.2623 17.0589C59.2623 16.9594 59.2823 16.8671 59.3156 16.789C59.3489 16.7109 59.4088 16.6398 59.4887 16.583C59.562 16.5262 59.6619 16.4907 59.7751 16.4622C59.8883 16.4338 60.0282 16.4267 60.188 16.4267H60.6143V17.137L60.601 17.1512C60.4811 17.3004 60.3612 17.4069 60.2413 17.485V17.4921Z" fill="#F3F8F5"/>
<path d="M64.6769 14.2261L64.0841 15.6892L63.7178 16.5913L63.4714 15.9805L62.7588 14.2261H61.873L63.0318 17.0743L63.2849 17.7064L62.6189 19.4537H63.5047L64.0841 17.8769L64.5304 16.7831L65.5693 14.2261H64.6769Z" fill="#F3F8F5"/>
<path d="M29.9313 9.9069C29.858 9.9069 29.7914 9.87848 29.7315 9.83587C29.6782 9.79325 29.605 9.70803 29.605 9.54466V6.70355C29.605 6.54019 29.6716 6.45496 29.7315 6.41234C29.7914 6.36262 29.8647 6.34131 29.9313 6.34131H31.3432L31.4165 6.37682L31.4698 6.40524L31.5164 6.48337C31.5164 6.48337 31.543 6.54729 31.5497 6.58991V6.68224C31.5564 6.71776 31.5497 6.75327 31.5497 6.78168V6.8243L31.5097 6.89533C31.4898 6.93084 31.4565 6.96635 31.4165 6.98766L31.3699 7.01607H31.29L30.2776 7.02318V7.70504H31.1767L31.2567 7.74055L31.3033 7.76897L31.3499 7.83999C31.3499 7.83999 31.3832 7.90392 31.3899 7.94654V7.96785L31.3965 8.05308C31.3965 8.08859 31.3965 8.1241 31.3899 8.15252V8.18803L31.3499 8.25905C31.3233 8.30167 31.29 8.33718 31.25 8.35849L31.21 8.37981H31.1301H30.2843V9.21083H31.3699L31.4431 9.24634L31.4831 9.26766L31.5297 9.32447C31.5564 9.36708 31.5764 9.4097 31.583 9.45942V9.55176C31.5897 9.58728 31.583 9.62279 31.583 9.6512V9.68672L31.5431 9.75774C31.5098 9.80746 31.4831 9.83587 31.4431 9.85718L31.3965 9.88559H31.3166L29.938 9.89269L29.9313 9.9069Z" fill="#F3F8F5"/>
<path d="M31.3899 9.56531C31.3899 9.56531 31.3899 9.60793 31.3899 9.62213C31.3899 9.63634 31.3832 9.65054 31.3766 9.66475C31.3699 9.67896 31.3632 9.68605 31.3499 9.69316C31.3433 9.69316 31.3299 9.70025 31.3233 9.70025H29.9446C29.9446 9.70025 29.8914 9.68606 29.8581 9.66475C29.8314 9.64344 29.8181 9.60083 29.8181 9.544V6.70289C29.8181 6.64607 29.8314 6.60346 29.8581 6.58215C29.8847 6.56084 29.918 6.54663 29.9446 6.54663H31.3033C31.3033 6.54663 31.3233 6.54663 31.3299 6.55374C31.3366 6.55374 31.3499 6.56794 31.3499 6.58215C31.3499 6.59635 31.3632 6.61056 31.3632 6.62476C31.3632 6.63897 31.3632 6.66028 31.3632 6.68159C31.3632 6.70289 31.3632 6.7242 31.3632 6.73841C31.3632 6.75261 31.3566 6.76682 31.3499 6.78102C31.3499 6.78813 31.3366 6.80233 31.3299 6.80233C31.3233 6.80233 31.31 6.80944 31.3033 6.80944H30.0912V7.91746H31.1368C31.1368 7.91746 31.1568 7.91746 31.1701 7.92456C31.1768 7.92456 31.1901 7.93878 31.1901 7.94588C31.1901 7.95298 31.2034 7.96719 31.2034 7.9885C31.2034 8.0027 31.2034 8.02401 31.2034 8.04532C31.2034 8.06663 31.2034 8.08793 31.2034 8.10213C31.2034 8.11634 31.1967 8.13055 31.1901 8.13765C31.1901 8.14475 31.1768 8.15185 31.1701 8.15896C31.1634 8.15896 31.1501 8.16607 31.1368 8.16607H30.0912V9.42325H31.3233C31.3233 9.42325 31.3433 9.42325 31.3499 9.43036C31.3566 9.43036 31.3699 9.44456 31.3766 9.45166C31.3832 9.45877 31.3899 9.47297 31.3899 9.49428C31.3899 9.50848 31.3899 9.52979 31.3899 9.5511V9.56531Z" fill="#F3F8F5"/>
<path d="M32.662 9.91444L32.5954 9.89313L32.5355 9.86472L32.4822 9.78659L32.4555 9.73687V9.65164L32.4489 7.03072H31.7096L31.6297 6.9881L31.5964 6.9668L31.5498 6.90997C31.5298 6.86736 31.5165 6.83894 31.5098 6.79632V6.69689C31.5032 6.66137 31.5098 6.63296 31.5098 6.60455V6.56904L31.5431 6.49091C31.5698 6.44829 31.5964 6.41278 31.6364 6.39147L31.683 6.36306H31.7696L33.8608 6.35596L33.9341 6.39147L33.9874 6.41988L34.034 6.49801C34.034 6.49801 34.0606 6.56194 34.0673 6.60455V6.69689C34.0739 6.7324 34.0673 6.76791 34.0673 6.79632V6.83895L34.0273 6.90997C34.0073 6.94549 33.974 6.981 33.9341 7.00231L33.8875 7.03072H33.8075L33.1282 7.03782V9.71556L33.0949 9.79369L33.0616 9.85052L32.9817 9.90024C32.9817 9.90024 32.9284 9.92154 32.8951 9.92865H32.7952H32.6753L32.662 9.91444Z" fill="#F3F8F5"/>
<path d="M33.8741 6.68964C33.8741 6.68964 33.8741 6.73225 33.8741 6.74646C33.8741 6.76067 33.8675 6.77487 33.8608 6.78908C33.8608 6.79618 33.8475 6.81039 33.8408 6.81039C33.8342 6.81039 33.8209 6.81749 33.8142 6.81749H32.9351V9.65149C32.9351 9.65149 32.9351 9.6728 32.9284 9.6799C32.9217 9.687 32.9151 9.6941 32.9084 9.70121C32.8951 9.70121 32.8818 9.70831 32.8685 9.71542C32.8485 9.71542 32.8285 9.71542 32.8019 9.71542C32.7752 9.71542 32.7552 9.71542 32.7353 9.71542C32.7153 9.71542 32.702 9.70831 32.6886 9.70121C32.6753 9.70121 32.6687 9.687 32.6687 9.6799C32.6687 9.6728 32.662 9.6657 32.662 9.65149V6.81749H31.7829C31.7829 6.81749 31.7629 6.81749 31.7496 6.81039C31.7429 6.81039 31.7362 6.79618 31.7296 6.78908C31.7296 6.78198 31.7163 6.76777 31.7163 6.74646C31.7163 6.73225 31.7163 6.71095 31.7163 6.68964C31.7163 6.66833 31.7163 6.64702 31.7163 6.63282C31.7163 6.61861 31.7229 6.60441 31.7296 6.5902C31.7296 6.576 31.7429 6.56889 31.7496 6.56179C31.7562 6.56179 31.7695 6.55469 31.7829 6.55469H33.8209C33.8209 6.55469 33.8408 6.55469 33.8475 6.56179C33.8542 6.56179 33.8675 6.576 33.8675 6.5902C33.8675 6.60441 33.8808 6.61861 33.8808 6.63282C33.8808 6.64702 33.8808 6.66833 33.8808 6.68964H33.8741Z" fill="#F3F8F5"/>
<path d="M35.4192 9.914L35.3526 9.89269L35.2927 9.86428L35.2394 9.78615L35.2128 9.73643V9.6512V6.54019L35.2527 6.46206L35.286 6.40524L35.3726 6.36262C35.3726 6.36262 35.4259 6.34131 35.4592 6.34131H35.5524C35.5924 6.34131 35.6257 6.34131 35.659 6.34131L35.7389 6.36262C35.7922 6.38393 35.8255 6.41944 35.8522 6.46206L35.8855 6.51178V6.59701V9.70091L35.8522 9.77904L35.8189 9.83587L35.7389 9.88559C35.7389 9.88559 35.6857 9.9069 35.6524 9.914C35.6191 9.914 35.5857 9.92111 35.5458 9.92111H35.4259L35.4192 9.914Z" fill="#F3F8F5"/>
<path d="M35.6789 9.65276C35.6789 9.65276 35.6789 9.67406 35.6723 9.68116C35.6656 9.68827 35.659 9.69537 35.6523 9.70247C35.639 9.70247 35.6257 9.70958 35.6123 9.71668C35.5924 9.71668 35.5724 9.71668 35.5457 9.71668C35.5191 9.71668 35.4991 9.71668 35.4791 9.71668C35.4592 9.71668 35.4458 9.70957 35.4392 9.70247C35.4259 9.70247 35.4192 9.68827 35.4192 9.68116C35.4192 9.67406 35.4125 9.66696 35.4125 9.65276V6.60567C35.4125 6.60567 35.4125 6.58436 35.4192 6.57726C35.4192 6.57016 35.4325 6.56305 35.4458 6.55595C35.4592 6.55595 35.4725 6.54885 35.4858 6.54175C35.5058 6.54175 35.5258 6.54175 35.5457 6.54175C35.5724 6.54175 35.5924 6.54175 35.6123 6.54175C35.6323 6.54175 35.6456 6.54885 35.6523 6.55595C35.6656 6.55595 35.6723 6.57016 35.6723 6.57726C35.6723 6.58436 35.6789 6.59146 35.6789 6.60567V9.65276Z" fill="#F3F8F5"/>
<path d="M37.1109 9.914L37.0443 9.89269L36.9843 9.86428L36.931 9.78615L36.9044 9.73643V9.6512V7.03028H36.1651L36.0852 6.98766L36.0452 6.95925L35.9986 6.88822C35.9986 6.88822 35.9653 6.8243 35.9587 6.78168V6.68224C35.952 6.64673 35.9587 6.61122 35.9587 6.58281V6.54729L35.992 6.47626C36.0119 6.43365 36.0452 6.39813 36.0852 6.37682L36.1318 6.34841H36.2184L38.3097 6.34131L38.3829 6.37682L38.4296 6.40524L38.4828 6.47626C38.4828 6.47626 38.5095 6.54729 38.5228 6.58281V6.60411L38.5295 6.68935C38.5295 6.72486 38.5295 6.75327 38.5228 6.78168V6.8172L38.4828 6.88822C38.4562 6.93794 38.4229 6.96635 38.3896 6.98766L38.343 7.01607H38.2631L37.5837 7.02318V9.70091L37.5504 9.77904L37.5171 9.84298L37.4305 9.89269C37.4305 9.89269 37.3773 9.914 37.344 9.92111H37.2441H37.1242L37.1109 9.914Z" fill="#F3F8F5"/>
<path d="M38.323 6.68964C38.323 6.68964 38.323 6.73225 38.323 6.74646C38.323 6.76067 38.3164 6.77487 38.3097 6.78908C38.3097 6.79618 38.2964 6.81039 38.2897 6.81039C38.2831 6.81039 38.2697 6.81749 38.2631 6.81749H37.3839V9.65149C37.3839 9.65149 37.3839 9.6728 37.3773 9.6799C37.3706 9.687 37.364 9.6941 37.3573 9.70121C37.344 9.70121 37.3307 9.70831 37.3173 9.71542C37.2974 9.71542 37.2774 9.71542 37.2507 9.71542C37.2241 9.71542 37.2041 9.71542 37.1841 9.71542C37.1642 9.71542 37.1508 9.70831 37.1442 9.70121C37.1309 9.70121 37.1242 9.687 37.1242 9.6799C37.1242 9.6728 37.1175 9.6657 37.1175 9.65149V6.81749H36.2384C36.2384 6.81749 36.2184 6.81749 36.2051 6.81039C36.1985 6.81039 36.1918 6.79618 36.1851 6.78908C36.1851 6.78198 36.1718 6.76777 36.1718 6.74646C36.1718 6.73225 36.1718 6.71095 36.1718 6.68964C36.1718 6.66833 36.1718 6.64702 36.1718 6.63282C36.1718 6.61861 36.1785 6.60441 36.1851 6.5902C36.1851 6.576 36.1985 6.56889 36.2051 6.56179C36.2118 6.56179 36.2251 6.55469 36.2384 6.55469H38.2764C38.2764 6.55469 38.2964 6.55469 38.303 6.56179C38.3097 6.56179 38.323 6.576 38.323 6.5902C38.323 6.60441 38.3363 6.61861 38.3363 6.63282C38.3363 6.64702 38.3363 6.66833 38.3363 6.68964H38.323Z" fill="#F3F8F5"/>
<path d="M40.9138 9.95014C40.6674 9.95014 40.4476 9.90753 40.2678 9.82229C40.0813 9.73706 39.9281 9.60921 39.8015 9.44585C39.6817 9.28248 39.5951 9.0907 39.5418 8.86341C39.4885 8.65033 39.4619 8.40884 39.4619 8.14604C39.4619 7.88324 39.4885 7.63464 39.5485 7.41445C39.6084 7.18716 39.7016 6.98828 39.8282 6.82492C39.9547 6.65445 40.1212 6.52661 40.3077 6.43427C40.4942 6.34193 40.714 6.29932 40.9671 6.29932C41.2201 6.29932 41.4199 6.34193 41.6064 6.42717C41.7929 6.5124 41.9461 6.64025 42.0726 6.80361C42.1925 6.95987 42.2791 7.15875 42.339 7.37894C42.3923 7.59202 42.419 7.83351 42.419 8.09632C42.419 8.35912 42.3923 8.61482 42.3324 8.83501C42.2724 9.0623 42.1792 9.26117 42.0527 9.43164C41.9261 9.6021 41.7596 9.73706 41.5731 9.82229C41.38 9.91463 41.1602 9.95724 40.9204 9.95724L40.9138 9.95014ZM40.9471 6.98829C40.8006 6.98829 40.674 7.0167 40.5808 7.07352C40.4875 7.13034 40.4076 7.20137 40.3477 7.30081C40.2811 7.40025 40.2344 7.52099 40.2078 7.64884C40.1745 7.798 40.1612 7.95426 40.1612 8.11762C40.1612 8.29519 40.1745 8.45856 40.2012 8.60771C40.2278 8.74267 40.2678 8.86341 40.3277 8.96285C40.381 9.05519 40.4542 9.12622 40.5475 9.17594C40.6407 9.22566 40.7673 9.25407 40.9204 9.25407C41.0736 9.25407 41.1935 9.22565 41.2934 9.16883C41.3933 9.11201 41.4666 9.03388 41.5265 8.94155C41.5931 8.84211 41.6331 8.72136 41.6664 8.58641C41.693 8.43725 41.713 8.28099 41.713 8.11762C41.713 7.94716 41.6997 7.78379 41.6664 7.64174C41.6397 7.50679 41.5931 7.38604 41.5332 7.2866C41.4799 7.19426 41.4 7.13034 41.3067 7.07352C41.2135 7.0238 41.0869 6.99539 40.9338 6.99539L40.9471 6.98829Z" fill="#F3F8F5"/>
<path d="M42.2191 8.089C42.2191 8.3376 42.1925 8.56488 42.1392 8.77086C42.0859 8.97684 42.006 9.14732 41.8995 9.28937C41.7929 9.43143 41.653 9.54507 41.4932 9.6232C41.3267 9.70133 41.1402 9.73684 40.9204 9.73684C40.7006 9.73684 40.5142 9.70133 40.3543 9.6232C40.1945 9.55217 40.0679 9.44563 39.968 9.31068C39.8681 9.17573 39.7949 9.00526 39.7416 8.80638C39.695 8.6075 39.6683 8.38731 39.6683 8.13872C39.6683 7.89012 39.695 7.66994 39.7483 7.47106C39.8015 7.27218 39.8815 7.10172 39.988 6.95966C40.0946 6.81761 40.2344 6.71106 40.3943 6.63293C40.5608 6.5548 40.7473 6.51929 40.967 6.51929C41.1868 6.51929 41.3667 6.5548 41.5198 6.62583C41.673 6.69686 41.8062 6.8034 41.9061 6.93835C42.006 7.07331 42.0859 7.23667 42.1326 7.43554C42.1792 7.62732 42.2058 7.8475 42.2058 8.0961L42.2191 8.089ZM41.9261 8.11741C41.9261 7.93274 41.9128 7.75517 41.8795 7.59181C41.8462 7.42844 41.7929 7.28639 41.7196 7.16564C41.6464 7.04489 41.5465 6.95256 41.4199 6.88153C41.2934 6.8105 41.1402 6.77499 40.9604 6.77499C40.7806 6.77499 40.6274 6.8105 40.5008 6.88153C40.3743 6.95256 40.2744 7.052 40.1945 7.17275C40.1146 7.29349 40.0613 7.43555 40.028 7.59891C39.9947 7.76227 39.9747 7.93274 39.9747 8.11031C39.9747 8.30208 39.988 8.47965 40.0213 8.64302C40.0546 8.80638 40.1079 8.94843 40.1812 9.06918C40.2544 9.18992 40.3543 9.28937 40.4809 9.35329C40.6074 9.42432 40.7606 9.45983 40.9471 9.45983C41.1336 9.45983 41.2867 9.42431 41.4133 9.34618C41.5398 9.27516 41.6397 9.17572 41.7196 9.04787C41.7996 8.92002 41.8528 8.77796 41.8861 8.6146C41.9194 8.45124 41.9394 8.28077 41.9394 8.1032L41.9261 8.11741Z" fill="#F3F8F5"/>
<path d="M42.9185 9.91349L42.8519 9.89218L42.792 9.86377L42.7387 9.78564L42.712 9.73592V9.65069L42.7054 6.71014C42.7054 6.54678 42.772 6.46154 42.8319 6.41893C42.8919 6.36921 42.9651 6.3479 43.0317 6.3479H43.1449C43.2049 6.3479 43.2448 6.3479 43.2848 6.36211C43.3314 6.37631 43.378 6.39762 43.418 6.42603C43.4513 6.45444 43.4913 6.48996 43.5246 6.53968C43.5445 6.56809 43.5712 6.61071 43.5978 6.66753L44.5436 8.45742V6.56099L44.5769 6.48285L44.6035 6.43314L44.6701 6.38342C44.7101 6.36211 44.75 6.3479 44.79 6.3479C44.81 6.3479 44.8433 6.3479 44.8766 6.3479H44.9698C44.9698 6.3479 45.0364 6.36921 45.0697 6.38342L45.1097 6.40472L45.1629 6.46155L45.2096 6.51837V6.62491L45.2162 9.56546C45.2162 9.62228 45.2096 9.672 45.1896 9.72172L45.1696 9.76433L45.103 9.84246C45.103 9.84246 45.0364 9.89928 44.9898 9.91349H44.9631L44.8899 9.92769C44.7833 9.92769 44.7367 9.9277 44.6901 9.90639C44.6435 9.89218 44.5968 9.86377 44.5502 9.82826C44.5169 9.79984 44.477 9.75723 44.4437 9.70751C44.417 9.66489 44.3837 9.61517 44.3504 9.55125L43.378 7.71873V9.71461L43.3447 9.79274L43.3114 9.85666L43.2249 9.90639C43.2249 9.90639 43.1782 9.92769 43.1449 9.93479C43.1116 9.93479 43.0783 9.9419 43.0384 9.9419L42.9185 9.92769V9.91349Z" fill="#F3F8F5"/>
<path d="M45.0164 9.55205C45.0164 9.55205 45.0164 9.60888 45.0031 9.62309C44.9964 9.64439 44.9831 9.65859 44.9698 9.6728C44.9564 9.68701 44.9431 9.6941 44.9298 9.70121C44.9165 9.70831 44.8965 9.70832 44.8832 9.70832H44.8232C44.8232 9.70832 44.7633 9.70831 44.7433 9.69411C44.7167 9.687 44.6967 9.6728 44.6701 9.65149C44.6434 9.63018 44.6234 9.60177 44.5968 9.57336C44.5702 9.53785 44.5502 9.49524 44.5169 9.44552L43.4779 7.48515C43.4246 7.39281 43.3713 7.29337 43.3247 7.18683C43.2714 7.08739 43.2248 6.98796 43.1782 6.88852C43.1782 7.00927 43.1782 7.13001 43.1782 7.25076V9.65149C43.1782 9.65149 43.1782 9.6728 43.1715 9.6799C43.1649 9.687 43.1582 9.6941 43.1516 9.70121C43.1382 9.70121 43.1249 9.70831 43.1116 9.71542C43.0916 9.71542 43.0716 9.71542 43.045 9.71542C43.0184 9.71542 42.9984 9.71542 42.9784 9.71542C42.9584 9.71542 42.9451 9.70831 42.9384 9.70121C42.9251 9.70121 42.9185 9.687 42.9185 9.6799C42.9185 9.6728 42.9118 9.6657 42.9118 9.65149V6.71095C42.9118 6.65413 42.9251 6.61151 42.9518 6.5902C42.9784 6.5689 43.0117 6.55469 43.0383 6.55469H43.1516C43.1849 6.55469 43.2182 6.55469 43.2448 6.56179C43.2714 6.56179 43.2914 6.57599 43.3114 6.5973C43.3314 6.61151 43.3514 6.63282 43.3713 6.66123C43.3913 6.68964 43.4113 6.72516 43.4313 6.76777L44.2238 8.27356C44.2771 8.36589 44.3237 8.45823 44.3637 8.54346C44.4103 8.6287 44.4503 8.71393 44.4969 8.79916C44.5369 8.8844 44.5835 8.96252 44.6234 9.04775C44.6634 9.12588 44.7034 9.21112 44.75 9.29635C44.75 9.1614 44.75 9.01934 44.75 8.87018V6.61861C44.75 6.61861 44.75 6.59731 44.7566 6.5902C44.7633 6.5831 44.77 6.57599 44.7766 6.56889C44.7899 6.56889 44.8033 6.56179 44.8166 6.55469C44.8366 6.55469 44.8565 6.55469 44.8832 6.55469C44.9098 6.55469 44.9298 6.55469 44.9498 6.55469C44.9698 6.55469 44.9831 6.55469 44.9897 6.56889C45.0031 6.56889 45.0097 6.5831 45.0164 6.5902C45.0164 6.59731 45.023 6.6044 45.023 6.61861V9.55915L45.0164 9.55205Z" fill="#F3F8F5"/>
<path d="M27.8933 9.86861C26.9875 9.86861 26.2483 9.08021 26.2483 8.12133C26.2483 7.16246 26.9875 6.36694 27.8933 6.36694C28.2863 6.36694 28.6659 6.5161 28.9589 6.78601L29.1254 6.93517L28.6459 7.44657L28.506 7.32582C28.3329 7.17666 28.1198 7.09143 27.8933 7.09143C27.3605 7.09143 26.9276 7.55311 26.9276 8.12133C26.9276 8.68955 27.3605 9.14412 27.8933 9.14412C28.2663 9.14412 28.5993 8.90974 28.7591 8.5617H27.7601V7.83722H29.5184L29.5317 8.0432V8.11422C29.5317 9.0802 28.7991 9.86151 27.8933 9.86151V9.86861Z" fill="#F3F8F5"/>
<path d="M26.4548 8.12378C26.4548 8.96901 27.1008 9.66508 27.9 9.66508C28.6993 9.66508 29.3453 8.97611 29.3453 8.12378C29.3453 8.10247 29.3453 8.08116 29.3453 8.05985H27.9733V8.35816H29.0522L29.0256 8.4505C28.8857 8.99031 28.4262 9.36676 27.9067 9.36676C27.2673 9.36676 26.7478 8.81274 26.7478 8.13088C26.7478 7.44901 27.2673 6.895 27.9067 6.895C28.1798 6.895 28.4328 6.99443 28.646 7.17911L28.8458 6.96603C28.586 6.73164 28.253 6.59668 27.9067 6.59668C27.1142 6.59668 26.4615 7.28565 26.4615 8.13798L26.4548 8.12378Z" fill="#F3F8F5"/>
</svg>
