<svg xmlns="http://www.w3.org/2000/svg" width="167" height="73" viewBox="0 0 167 73" fill="none">
  <path fill-rule="evenodd" clip-rule="evenodd" d="M167 65.0149C166.86 65.2046 166.728 65.4067 166.574 65.584C166.244 65.9717 166.046 65.914 165.906 65.3861C165.642 64.4004 165.958 63.4725 166.802 62.8457C166.868 63.2457 166.938 63.6458 167 64.0293V65.0149Z" fill="white"/>
  <path fill-rule="evenodd" clip-rule="evenodd" d="M68.5898 42.8884V14.9648H84.3296V19.6456H73.2626V26.2398H82.7989V31.0237H73.2332V42.8842H68.5972" fill="white"/>
  <path fill-rule="evenodd" clip-rule="evenodd" d="M85.1151 61.1661C85.5556 60.3454 86.1135 59.5701 86.4402 58.6917C87.0165 57.1865 88.059 56.4648 89.4134 56.7906C89.5602 56.8153 89.7328 56.7823 89.8723 56.6998C90.9661 56.0895 92.0379 56.6998 92.3683 57.6483C92.6766 58.5226 92.7868 59.4629 92.9703 60.3702C93.0143 60.5846 93.0143 60.8032 93.051 61.1909C93.6787 60.2712 94.3394 59.5742 94.5413 58.5226C94.7505 57.4463 95.1066 56.4359 95.8371 55.6358C96.8355 54.5512 98.4285 54.6585 99.3058 55.8956C99.3646 55.974 99.4159 56.0606 99.5554 56.2709C99.5811 55.8585 99.5885 55.5905 99.6252 55.3224C99.7757 53.7924 99.9335 52.2624 100.113 50.7324C100.157 50.3159 100.29 49.8788 100.781 49.9489C101.27 50.0107 101.358 50.4685 101.295 50.9304C101.035 52.881 100.642 54.8152 100.506 56.7741C100.359 58.7371 100.411 60.7166 100.447 62.6796C100.451 63.0838 100.734 63.4879 100.917 63.9003C100.954 63.9704 101.097 64.0323 101.193 64.0199C101.666 63.9704 101.798 64.3416 101.839 64.7457C101.89 65.2117 101.714 65.5829 101.295 65.7685C100.903 65.9293 100.554 65.8386 100.407 65.4262C100.132 64.5849 99.9262 63.7147 99.6876 62.8652C99.6399 62.6879 99.6068 62.5023 99.5371 62.2219C99.2471 62.9518 99.0342 63.5786 98.7626 64.1807C98.3845 64.989 97.944 65.7149 97.1071 66.0613C96.2996 66.4118 95.6462 66.2469 95.1323 65.4592C94.4716 64.4612 94.3064 63.2817 94.2513 62.0899C94.244 61.9043 94.233 61.7352 94.1669 61.5125C93.7595 62.4817 92.7794 62.8446 92.4637 63.9663C92.0636 65.3808 91.0946 66.2345 89.7144 66.2963C88.448 66.3623 87.512 65.6159 86.9504 64.4241C86.5283 63.5333 86.3044 62.5311 86.0144 61.6899C85.6547 62.0816 85.1701 62.5559 84.7223 63.0838C84.5939 63.2405 84.5682 63.5003 84.4984 63.7147C84.0359 65.055 83.2944 66.0572 81.9583 66.3005C80.7837 66.5067 79.8734 65.9747 79.1613 64.9849C78.8787 64.5931 78.6364 64.1436 78.4712 63.6735C77.9169 62.1023 77.8509 60.5145 78.306 58.902C78.7906 57.2401 79.7853 56.572 81.327 56.8524C81.4591 56.8648 81.6133 56.8194 81.7454 56.7534C82.8576 56.2256 83.8597 56.5802 84.3332 57.8339C84.6306 58.6505 84.7187 59.5619 84.8802 60.4444C84.9205 60.6341 84.8875 60.8486 84.8875 61.0548L85.1114 61.1702M99.4967 57.9783L99.3425 57.9865C99.1443 57.7679 98.9057 57.5782 98.7626 57.3184C98.0982 56.1802 96.9199 56.04 96.1234 57.0339C95.9362 57.2689 95.76 57.5494 95.6315 57.8339C94.9157 59.6526 94.8056 61.5166 95.3672 63.4096C95.5471 63.9828 95.76 64.6509 96.3693 64.754C97.0264 64.8777 97.4632 64.3457 97.8009 63.7972C98.9021 62.0486 99.2765 60.032 99.4967 57.9783ZM80.8057 58.3535C80.145 58.2257 79.7156 58.4278 79.4036 58.9309C78.295 60.6877 78.93 63.6817 80.6332 64.6962C81.7601 65.3767 83.0742 64.7952 83.4743 63.3889C82.2703 63.5292 81.2756 63.1951 80.6993 61.9167C80.1781 60.7578 80.0349 59.5784 80.8094 58.3535H80.8057ZM88.9289 58.2257C87.9635 58.2999 87.6075 58.5556 87.3101 59.2856C86.598 61.0094 86.9871 63.0384 88.2535 64.288C89.4281 65.4344 90.9184 65.0674 91.5901 63.3931C90.3678 63.4879 89.3657 63.1374 88.7747 61.8424C88.2425 60.6712 88.1581 59.4711 88.9289 58.2257ZM84.2305 60.8733C84.0873 60.2135 84.0139 59.5165 83.79 58.869C83.3789 57.7061 82.8026 57.5741 81.9877 58.4113L81.8996 58.4814C81.3123 59.0258 81.0443 60.1269 81.3233 60.8692C81.617 61.6445 82.4686 62.1394 83.2798 62.0157C84.1057 61.8919 84.1497 61.8301 84.2305 60.8774V60.8733ZM92.2251 60.6135C92.2251 59.8341 92.0893 58.9804 91.5901 58.2463C91.1863 57.6442 90.6394 57.6401 90.2246 58.1886C90.1549 58.2834 90.0815 58.3659 90.0007 58.4484C89.4501 58.9433 89.1675 59.9413 89.3804 60.6506C89.6116 61.4507 90.2467 61.9373 91.0505 61.9662C92.126 61.9868 92.2398 61.8631 92.2215 60.6094L92.2251 60.6135Z" fill="white"/>
  <path fill-rule="evenodd" clip-rule="evenodd" d="M66.9159 60.4713C66.4424 61.4652 65.9615 62.3601 65.1723 63.024C64.9851 63.2013 64.875 63.523 64.7685 63.7911C64.2914 65.1891 63.5352 66.1871 62.122 66.4016C60.863 66.5789 59.9343 65.9397 59.2809 64.8468C58.0916 62.8591 57.9852 60.694 58.7744 58.4959C59.2369 57.1844 60.3381 56.6153 61.5824 56.9123C61.7182 56.9453 61.8981 56.8999 62.0413 56.838C63.0654 56.339 64.0748 56.6277 64.5336 57.7989C64.8677 58.6278 64.9521 59.5887 65.1393 60.5125C65.1797 60.727 65.176 60.9414 65.2017 61.3208C65.8844 60.4012 66.5855 59.7083 66.4644 58.4876C66.4093 57.968 66.4974 57.4319 66.5708 56.904C66.6186 56.537 66.7287 56.1576 67.2022 56.273C67.7601 56.3803 67.9657 56.6566 67.8923 57.2133C67.8189 57.7371 67.7601 58.2608 67.6977 58.7969L67.8299 58.8134C67.995 58.3227 68.1566 57.8278 68.3181 57.3247C68.7842 55.972 69.3238 56.1699 70.2121 57.0442C70.5315 57.3453 70.4691 57.8319 70.2011 58.2196C69.9405 58.5701 69.6248 58.4835 69.3238 58.2237C69.2467 58.1536 69.1366 58.1206 68.8907 57.9928C68.575 59.4403 68.2043 60.8012 67.995 62.2116C67.8335 63.2013 67.8996 64.2365 67.8592 65.2675C67.8556 65.4902 67.9106 65.7541 67.8299 65.9314C67.7418 66.1541 67.5289 66.2861 67.3637 66.4428C67.2462 66.2778 67.0407 66.1129 67.015 65.9191C66.9563 65.0901 66.9306 64.2406 66.9269 63.4034C66.9049 62.4178 66.9269 61.4404 66.9269 60.4589M61.1199 58.3557C60.2867 58.3392 59.8352 58.6608 59.5379 59.2794C58.7266 60.9909 59.2002 63.3952 60.5877 64.5499C61.7549 65.5314 63.315 65.02 63.7481 63.4818C62.5515 63.622 61.5531 63.255 60.9768 61.993C60.4225 60.8177 60.3124 59.63 61.1162 58.3598L61.1199 58.3557ZM64.4088 60.8548L64.5446 60.7971C64.3171 60.03 64.1666 59.2382 63.8546 58.5289C63.4912 57.7329 62.8892 57.7206 62.3753 58.3598L62.2174 58.5371C61.6008 59.1186 61.3365 60.063 61.5861 60.8342C61.843 61.6301 62.5074 62.092 63.3553 62.0879C64.3171 62.0796 64.4308 61.9559 64.4125 60.8507L64.4088 60.8548Z" fill="white"/>
  <path fill-rule="evenodd" clip-rule="evenodd" d="M75.8723 60.8168C76.9258 61.2663 76.9294 62.322 77.0432 63.2458C77.3736 65.8316 77.2231 68.4008 76.6395 70.9494C76.5147 71.4938 76.4302 72.2031 75.7071 72.1784C75.0097 72.1454 74.8849 71.4443 74.8225 70.8917C74.6573 69.3411 74.5692 67.7492 74.4701 66.1821C74.4444 65.712 74.5142 65.2253 74.4885 64.7593C74.4885 64.5531 74.3637 64.3304 74.2976 64.1119C74.2462 63.951 74.1397 63.7737 74.1471 63.6087C74.2499 62.6149 74.371 61.621 74.4885 60.623C74.5068 60.5364 74.5839 60.458 74.6206 60.3632C74.7674 59.9837 74.973 59.6126 75.017 59.2249C75.3621 56.8042 75.6043 54.3545 76.3458 52.0121C76.4376 51.7358 76.533 51.4718 76.6138 51.2038C76.8046 50.6305 77.2268 50.4573 77.6672 50.6305C77.9022 50.7254 78.1077 51.1419 78.1775 51.4471C78.4564 52.8286 78.2105 54.1731 77.9058 55.5216C77.5021 57.3898 76.8414 59.1383 75.8723 60.825M75.7475 62.1653L75.5823 62.2231C75.5456 62.3715 75.4612 62.5117 75.4612 62.6685C75.4098 64.7016 75.3474 66.7182 75.3584 68.7637C75.3584 69.3246 75.5823 69.8854 75.6961 70.4546L75.9017 70.4092C76.4412 67.9925 76.6982 65.547 76.1513 63.0809C76.0889 62.7633 75.8906 62.4664 75.7512 62.1695L75.7475 62.1653ZM75.9274 58.4249C76.9918 57.0805 77.8214 52.9276 77.1937 52.177C76.4302 54.1854 76.243 56.334 75.9274 58.4249Z" fill="white"/>
  <path fill-rule="evenodd" clip-rule="evenodd" d="M144.393 63.0345C144.066 63.4551 143.776 63.9047 143.409 64.2387C142.594 65.0099 141.588 64.713 141.276 63.5624C141.118 62.9603 141.1 62.2592 141.173 61.6447C141.342 60.1931 141.963 58.9889 143.009 58.1063C143.438 57.7599 144.011 57.5826 144.627 57.2774C144.627 57.2568 144.613 57.0341 144.683 56.8609C144.782 56.6093 144.91 56.3248 145.097 56.1722C145.523 55.8629 145.787 56.065 145.743 56.6258C145.67 57.9166 145.516 59.2157 145.505 60.5106C145.497 62.7458 145.597 64.9893 145.615 67.2245C145.622 67.8225 145.593 68.4287 145.464 69.0102C144.969 71.3113 143.266 72.3753 141.122 71.7444C140.16 71.4681 139.301 70.9567 138.696 70.0618C138.27 69.4308 137.965 68.7215 138.38 67.9585C138.508 67.7194 138.854 67.6204 139.099 67.4595C139.177 67.7029 139.32 67.9421 139.32 68.1812C139.331 69.4102 140.116 70.4041 141.353 70.7134C143.266 71.1918 144.521 70.1195 144.569 67.8926C144.609 66.2801 144.58 64.6594 144.58 63.0263L144.393 63.0386M144.642 58.6218C142.913 58.5352 141.739 61.7932 142.297 62.985C142.443 63.3232 142.741 63.4428 142.972 63.1871C143.321 62.8118 143.724 62.42 143.879 61.9293C144.205 60.8777 144.385 59.7848 144.642 58.6218Z" fill="white"/>
  <path fill-rule="evenodd" clip-rule="evenodd" d="M50.3836 59.5414C50.3836 58.6012 50.4093 57.6815 50.3726 56.7577C50.3543 56.4979 50.1047 56.2587 50.0863 55.9824C49.9982 54.8896 49.9578 53.805 49.8954 52.5966C48.9851 52.6626 47.9573 52.6667 46.9552 52.7905C46.155 52.8936 45.3695 53.0998 44.5803 53.2688C44.1472 53.3719 43.7104 53.1822 43.6994 52.8276C43.6847 52.2915 44.0738 52.2049 44.4188 52.1677C45.8651 52.077 47.3076 51.9657 48.7539 51.9285C51.1692 51.8296 53.5844 51.7718 55.9924 51.7182C56.6861 51.7017 57.3872 51.7718 58.081 51.7718C58.4224 51.776 58.7711 51.6564 59.1088 51.6894C59.3584 51.7182 59.5896 51.9368 59.8319 52.0688C59.63 52.3781 59.4758 52.8235 59.2079 52.9637C58.9032 53.1163 58.4921 52.9802 58.1324 52.9802C57.5891 52.9884 57.0459 53.0462 56.5063 53.0008C56.2347 52.9843 55.9557 52.8482 55.6914 52.7327C55.5446 52.6709 55.4161 52.5018 55.2913 52.5018C53.834 52.4812 52.3915 52.4894 50.8718 52.5595C51.4077 53.0874 51.1545 53.6771 51.1471 54.2545C51.1251 55.8381 51.1324 57.4258 51.1251 59.0094C51.1251 59.3311 51.1985 59.5126 51.5289 59.4919C52.854 59.36 54.1828 59.2528 55.5079 59.1208L55.6143 59.1084C55.8859 59.2074 56.3668 59.2899 56.3851 59.426C56.4255 59.8549 56.1979 60.1559 55.7281 60.1848C55.0344 60.2301 54.3773 60.4116 53.6322 60.2178C52.9421 60.0281 52.1492 60.2508 51.4077 60.3209C51.316 60.3332 51.1655 60.5766 51.1728 60.7126C51.1948 62.156 51.2609 63.5829 51.3196 65.0181C51.3343 65.414 51.3894 65.7934 51.3784 66.1811C51.371 66.3254 51.2132 66.5563 51.1141 66.5687C50.9636 66.5852 50.7213 66.4697 50.6736 66.3501C50.5525 65.9212 50.446 65.4676 50.4387 65.0346C50.4057 63.5211 50.4314 61.9993 50.4314 60.3951C49.778 60.5064 49.2054 60.6013 48.6401 60.7003L48.4822 60.758C48.0271 60.8529 47.6453 60.6137 47.649 60.2301C47.6563 59.6981 48.0234 59.6363 48.3721 59.6074C48.6548 59.5909 48.9374 59.628 49.2054 59.628C49.5357 59.6239 49.8661 59.5868 50.2001 59.5744C50.2368 59.5744 50.2698 59.5662 50.391 59.5332" fill="white"/>
  <path fill-rule="evenodd" clip-rule="evenodd" d="M161.791 56.7542C161.957 55.1252 162.122 53.5333 162.287 51.9456C162.302 51.7806 162.342 51.6322 162.397 51.4672C162.493 51.1703 162.493 50.7208 162.944 50.7785C163.26 50.8156 163.586 51.5002 163.528 51.8961C163.3 53.2653 163.014 54.622 162.863 56.0201C162.588 58.4656 162.437 60.9318 162.694 63.3979C162.72 63.6577 162.834 63.9175 162.9 64.1815L163.098 64.2186C163.289 63.8639 163.473 63.5134 163.641 63.1546C163.741 62.9731 163.788 62.7711 163.891 62.6061C164.049 62.3092 164.24 62.371 164.328 62.6515C164.398 62.8742 164.434 63.1711 164.357 63.3649C164.078 64.0412 163.788 64.7423 163.396 65.3527C163.043 65.9094 162.467 65.8475 162.184 65.2372C161.891 64.6433 161.736 63.9629 161.527 63.3278C161.303 63.6577 161.057 64.0907 160.756 64.4495C160.389 64.9114 159.945 65.3279 159.332 65.1877C158.664 65.0104 158.367 64.4206 158.271 63.7443C157.904 61.3112 158.422 59.0925 159.872 57.2202C160.452 56.4613 161.021 56.3747 161.802 56.7459M161.777 58.313C161.608 58.2718 161.439 58.28 161.355 58.1728C160.855 57.6985 160.679 57.6985 160.301 58.3048C159.714 59.2533 159.406 60.3296 159.303 61.4596C159.24 62.0576 159.226 62.6927 159.317 63.2907C159.413 63.9629 159.82 64.0454 160.25 63.5546C160.345 63.4474 160.448 63.3154 160.518 63.1834C161.296 61.6658 161.623 60.0245 161.777 58.3089V58.313Z" fill="white"/>
  <path fill-rule="evenodd" clip-rule="evenodd" d="M114.216 59.5227C114.095 59.7742 113.904 60.0134 113.845 60.2856C113.475 61.7867 113.144 63.3291 112.781 64.8426C112.722 65.0694 112.579 65.2674 112.48 65.4653C112.322 65.2426 112.039 65.0282 112.025 64.8014C111.911 63.1394 111.738 61.4692 111.819 59.8072C111.933 57.205 112.227 54.6192 112.443 52.017L112.458 51.9015C112.583 51.5469 112.531 51.0025 113.075 51.052C113.431 51.1015 113.75 51.8108 113.654 52.2768C113.115 54.7924 112.917 57.3369 112.792 59.9062C112.785 60.0299 112.792 60.1454 112.887 60.2938C113.034 59.968 113.152 59.6134 113.328 59.3082C113.585 58.8628 113.845 58.4051 114.187 58.0504C114.359 57.8689 114.774 57.8071 114.98 57.8978C115.185 58.0174 115.358 58.4009 115.376 58.6731C115.471 60.2815 115.523 61.8816 115.6 63.4776C115.615 63.7332 115.681 63.9848 115.725 64.2364L115.886 64.3024C116.213 63.7539 116.536 63.2013 116.866 62.628C117.296 62.9951 117.226 63.4446 117.087 63.7992C116.863 64.3807 116.598 64.9457 116.275 65.4571C115.827 66.1623 115.064 66.0674 114.891 65.2467C114.638 64.026 114.561 62.7724 114.451 61.531C114.396 60.8918 114.44 60.2361 114.44 59.5804L114.223 59.5062" fill="white"/>
  <path fill-rule="evenodd" clip-rule="evenodd" d="M121.241 63.415C120.922 63.8646 120.654 64.3182 120.316 64.7141C119.935 65.1966 119.439 65.4935 118.848 65.2956C118.254 65.0976 118.022 64.5574 117.894 63.9099C117.508 61.9428 118.668 58.5446 120.129 57.394C120.625 57.0187 121.142 56.7713 121.77 56.9857C122.805 57.3404 123.176 58.7302 122.486 59.6498C122.398 59.7818 122.302 59.9715 122.302 60.1323C122.328 61.3036 122.372 62.483 122.438 63.646C122.449 63.8604 122.658 64.0666 122.776 64.2893C122.919 64.1244 123.113 63.98 123.216 63.7944C123.374 63.5016 123.477 63.1676 123.613 62.8583C123.664 62.7511 123.789 62.6191 123.833 62.6356C123.936 62.681 124.061 62.8047 124.072 62.916C124.097 63.1965 124.134 63.5058 124.035 63.7491C123.833 64.3182 123.602 64.8873 123.293 65.3946C122.816 66.1451 122.056 66.0461 121.741 65.2007C121.52 64.6646 121.407 64.046 121.238 63.415M118.848 63.0068C118.94 63.213 119.024 63.7243 119.285 63.881C119.729 64.1326 119.982 63.5965 120.225 63.2501C120.291 63.1387 120.357 63.0026 120.423 62.8748C120.933 61.7613 121.208 60.5447 121.33 59.2993C121.348 59.089 121.473 58.9034 121.55 58.7137C121.594 58.59 121.704 58.4126 121.667 58.3549C121.579 58.2353 121.385 58.0497 121.304 58.0827C120.984 58.2064 120.628 58.3219 120.423 58.5858C119.472 59.7736 119.043 61.217 118.852 62.9985L118.848 63.0068Z" fill="white"/>
  <path fill-rule="evenodd" clip-rule="evenodd" d="M149.124 57.4504C151.187 59.166 151.921 61.3847 151.235 63.7395C151.088 64.2344 150.853 64.7334 150.555 65.1375C149.708 66.284 148.408 66.185 147.615 64.9767C146.514 63.2611 146.602 60.5063 147.824 58.7495C147.946 58.5886 148.059 58.4361 148.181 58.2835C147.905 58.0649 147.432 58.1103 147.527 57.5164C147.601 56.9968 147.883 56.6875 148.305 56.6091C149.172 56.4648 150.034 56.3534 150.9 56.2421C151.194 56.2132 151.436 56.3452 151.385 56.7329C151.345 57.0793 151.319 57.4875 150.838 57.4628C150.309 57.4463 149.777 57.4545 149.128 57.4545M149.084 58.9474C147.648 59.9166 147.612 63.1951 148.537 64.3416C148.97 64.8777 149.539 64.8117 149.917 64.1849C150.794 62.7333 150.368 60.032 149.084 58.9474Z" fill="white"/>
  <path fill-rule="evenodd" clip-rule="evenodd" d="M154.784 57.4438C156.85 59.0892 157.581 61.4193 156.861 63.8277C156.748 64.2154 156.568 64.5824 156.355 64.9123C155.441 66.298 154.046 66.2361 153.176 64.8133C152.214 63.238 152.277 60.6069 153.312 58.9861C153.462 58.7428 153.624 58.5366 153.785 58.3057L153.734 58.2067C153.503 58.0294 153.084 58.0582 153.158 57.5262C153.224 57.0602 153.451 56.7097 153.874 56.6148C154.751 56.454 155.628 56.3262 156.52 56.2148C156.821 56.1694 157.144 56.3179 157.049 56.7798C156.975 57.1386 156.88 57.5262 156.373 57.4479C155.892 57.3778 155.404 57.4438 154.78 57.4438M154.722 58.8748C153.451 59.9841 153.121 62.7678 154.101 64.1989C154.586 64.9247 155.246 64.8216 155.654 63.9762C156.41 62.4132 155.977 60.0336 154.722 58.8748Z" fill="white"/>
  <path fill-rule="evenodd" clip-rule="evenodd" d="M129.446 59.1495C128.712 58.601 127.13 58.6505 126.612 59.1123L126.498 59.3722C126.528 60.8032 126.542 62.2383 126.619 63.6735C126.634 63.9704 126.88 64.3993 127.119 64.5065C127.511 64.7086 127.728 64.2467 127.897 63.9168C128.157 63.3889 128.381 62.8116 128.62 62.2631C128.704 62.0816 128.778 61.896 128.88 61.6568C129.38 62.0404 129.35 62.5971 129.2 62.9765C128.855 63.8013 128.488 64.6715 127.959 65.3313C127.214 66.2881 126.164 66.0571 125.779 64.8777C125.5 64.0034 125.412 63.0466 125.324 62.1064C125.258 61.3682 125.313 60.6094 125.313 59.8505L125.169 59.8299C124.964 59.8505 124.755 59.9 124.545 59.9289C124.608 59.6361 124.597 59.1412 124.747 59.067C125.665 58.6133 125.544 57.6401 125.76 56.8235C125.951 56.1225 126.238 55.4544 126.546 54.8152C126.608 54.6584 126.906 54.6254 127.093 54.543C127.108 54.7698 127.166 54.9966 127.13 55.2028C126.975 56.0977 126.784 56.9967 126.601 57.8999C127.386 57.7679 128.08 57.5741 128.774 57.537C129.093 57.5164 129.607 57.6855 129.706 57.9288C129.827 58.2092 129.571 58.6752 129.449 59.1495" fill="white"/>
  <path fill-rule="evenodd" clip-rule="evenodd" d="M108.27 54.6394C108.167 55.1837 108.06 55.7322 107.969 56.2848C107.862 56.8457 107.774 57.3942 107.675 57.988C108.398 57.8561 109.074 57.7406 109.742 57.6251C109.866 57.6004 110.01 57.5798 110.12 57.6292C110.355 57.7365 110.766 57.8891 110.78 58.0334C110.795 58.3922 110.615 58.7633 110.494 59.1964C109.518 58.4912 108.655 58.8706 107.811 59.1592C107.697 59.1964 107.565 59.4067 107.565 59.5387C107.558 60.8748 107.532 62.2234 107.609 63.5389C107.631 63.9266 107.906 64.4874 108.189 64.6194C108.633 64.8174 108.846 64.2235 109.037 63.8482C109.286 63.3698 109.477 62.8585 109.687 62.3595C109.756 62.1821 109.815 61.9965 109.892 61.7862C110.388 62.0419 110.369 62.4955 110.296 62.875C110.079 63.9967 109.58 64.9823 108.743 65.6875C108.027 66.2979 107.154 66.0339 106.849 64.9988C106.555 64.0256 106.475 62.9698 106.365 61.9306C106.295 61.2666 106.35 60.5738 106.35 59.8768L106.163 59.9387C105.972 59.9717 105.785 59.9964 105.594 60.0335C105.612 59.7737 105.623 59.518 105.667 59.2706C105.693 59.1675 105.807 59.0479 105.895 59.0149C106.622 58.7592 106.607 58.0623 106.728 57.3983C106.871 56.6848 107.051 55.9673 107.304 55.3116C107.429 54.9734 107.774 54.7507 108.016 54.4785C108.101 54.5363 108.189 54.6064 108.266 54.6435" fill="white"/>
  <path fill-rule="evenodd" clip-rule="evenodd" d="M133.326 66.0868C132.988 65.9342 132.643 65.8435 132.327 65.6538C132.011 65.4352 131.905 65.0682 132.085 64.6888C132.261 64.3053 132.544 64.4001 132.856 64.4991C134.041 64.9486 135.076 64.297 135.374 62.9485C135.528 62.2515 135.282 61.6494 134.676 61.4143C134.236 61.2494 133.762 61.1587 133.3 61.0473C132.272 60.8081 131.835 60.0576 132.162 58.9771C132.478 57.9172 133.116 57.1295 134.012 56.6388C134.324 56.4821 134.687 56.3996 134.893 56.8037C135.128 57.2285 134.812 57.4553 134.537 57.678C134.192 57.9791 133.825 58.2719 133.542 58.6265C132.969 59.3441 133.124 59.7977 133.953 59.9751C134.225 60.0369 134.489 60.0864 134.757 60.1648C136.203 60.5648 136.794 61.7195 136.391 63.3238C136.012 64.8166 134.676 65.9837 133.326 66.0909" fill="white"/>
  <path fill-rule="evenodd" clip-rule="evenodd" d="M130.312 54.3715C130.598 53.9591 130.877 53.6498 131.057 53.2951C131.226 52.9281 131.362 52.5033 131.409 52.0909C131.468 51.6537 131.96 51.1589 132.334 51.3115C132.474 51.3774 132.613 51.6001 132.621 51.7651C132.654 52.5033 131.259 54.3508 130.587 54.4787C130.528 54.4787 130.462 54.4168 130.315 54.3715" fill="white"/>
  <path fill-rule="evenodd" clip-rule="evenodd" d="M43.5487 0C43.5597 2.13623 43.5744 4.2807 43.5781 6.42105C43.5854 7.92218 43.5854 9.42331 43.5854 10.9409C38.1529 12.1286 34.1959 15.4732 31.5677 21.0365C31.553 20.7354 31.5273 20.5993 31.5273 20.4509V0.36291C31.5273 0.23919 31.5457 0.115469 31.5567 0.00412172H43.5487" fill="white"/>
  <path fill-rule="evenodd" clip-rule="evenodd" d="M29.6516 36.7658V57.8435H17.5935V57.2249C17.5935 54.0165 17.6009 50.7915 17.5752 47.5872C17.5752 47.0964 17.678 46.9109 18.1515 46.7954C23.25 45.5541 27.0198 42.325 29.4644 37.1494C29.5048 37.0545 29.5415 36.9555 29.648 36.7617" fill="white"/>
  <path fill-rule="evenodd" clip-rule="evenodd" d="M14.9983 12.1074C6.71362 12.1074 0 19.6461 0 28.9498C0 38.2535 6.71362 45.8045 14.9983 45.8045C23.2829 45.8045 29.9966 38.2535 29.9966 28.9498C29.9966 19.6461 23.2793 12.1074 14.9983 12.1074ZM14.9983 33.6635C12.6821 33.6635 10.8064 31.552 10.8064 28.9498C10.8064 26.3476 12.6821 24.2402 14.9983 24.2402C17.3145 24.2402 19.1938 26.3558 19.1938 28.9498C19.1938 31.5438 17.3145 33.6635 14.9983 33.6635Z" fill="white"/>
  <path fill-rule="evenodd" clip-rule="evenodd" d="M46.2136 12.1074C37.9253 12.1074 31.219 19.6461 31.219 28.9498C31.219 38.2535 37.9253 45.8045 46.2136 45.8045C54.5019 45.8045 61.2156 38.2535 61.2156 28.9498C61.2156 19.6461 54.4909 12.1074 46.2136 12.1074ZM46.2136 33.6635C43.9048 33.6635 42.0254 31.552 42.0254 28.9498C42.0254 26.3476 43.9048 24.2402 46.2136 24.2402C48.5224 24.2402 50.4055 26.3558 50.4055 28.9498C50.4055 31.5438 48.5335 33.6635 46.2136 33.6635Z" fill="white"/>
  <path d="M98.4395 14.4336C90.8853 14.4336 87.189 20.7804 87.189 28.9294C87.189 37.0784 90.8853 43.4211 98.4395 43.4211C105.994 43.4211 109.708 37.0867 109.708 28.9294C109.708 20.7722 106.008 14.4336 98.4395 14.4336ZM98.4395 38.6373C93.7704 38.6373 92.0085 33.8782 92.0085 28.9294C92.0085 23.9806 93.7704 19.2298 98.4395 19.2298C103.109 19.2298 104.882 23.9683 104.882 28.9294C104.882 33.8906 103.131 38.6373 98.4395 38.6373Z" fill="white"/>
  <path d="M123.496 14.4336C115.923 14.4336 112.23 20.7804 112.23 28.9294C112.23 37.0784 115.927 43.4211 123.496 43.4211C131.065 43.4211 134.75 37.0867 134.75 28.9294C134.75 20.7722 131.05 14.4336 123.496 14.4336ZM123.496 38.6373C118.808 38.6373 117.057 33.8782 117.057 28.9294C117.057 23.9806 118.808 19.2298 123.496 19.2298C128.183 19.2298 129.923 23.9683 129.923 28.9294C129.923 33.8906 128.168 38.6373 123.496 38.6373Z" fill="white"/>
  <path d="M138.222 14.916H147.711C153.411 14.916 157.687 19.4771 157.687 28.7726C157.687 36.8928 154.421 42.9426 147.711 42.9426H138.222V14.916ZM142.946 38.1918H147.366C150.17 38.1918 152.849 36.4639 152.849 29.3582C152.849 22.2526 151.308 19.7163 146.51 19.7163H142.946V38.1918Z" fill="white"/>
  <path d="M72.2018 5.29614H70.1168L69.7571 6.43849H68.9055L70.6895 0.833984H71.6365L73.4204 6.43849H72.5615L72.2018 5.29614ZM71.9705 4.54557L71.1593 1.94334L70.3407 4.54557H71.9668H71.9705Z" fill="white"/>
  <path d="M78.7759 0.841797V4.87918C78.7759 5.37818 78.6401 5.77408 78.3721 6.06276C78.1005 6.35144 77.7481 6.49578 77.3076 6.49578C76.8671 6.49578 76.5147 6.35144 76.2431 6.06276C75.9715 5.77408 75.8394 5.37818 75.8394 4.87918H76.6653C76.6689 5.12662 76.7276 5.32045 76.8341 5.46891C76.9405 5.61325 77.1021 5.68748 77.3113 5.68748C77.5205 5.68748 77.682 5.61325 77.7921 5.46479C77.9023 5.31632 77.9573 5.1225 77.9573 4.87918V0.841797H78.7832H78.7759Z" fill="white"/>
  <path d="M80.8057 6.22862C80.5047 6.03892 80.2661 5.77086 80.0973 5.42444C79.9284 5.07803 79.8403 4.678 79.8403 4.22024C79.8403 3.76247 79.9284 3.3707 80.1046 3.02016C80.2808 2.66962 80.5231 2.40156 80.8277 2.21598C81.1324 2.02627 81.4738 1.93555 81.8518 1.93555C82.2299 1.93555 82.5713 2.0304 82.876 2.21598C83.1806 2.40568 83.4229 2.67374 83.5991 3.02016C83.7753 3.36657 83.8634 3.77072 83.8634 4.22024C83.8634 4.66975 83.7716 5.06978 83.5917 5.42032C83.4082 5.77086 83.1623 6.03892 82.8503 6.22862C82.5383 6.41832 82.1932 6.51318 81.8151 6.51318C81.4371 6.51318 81.1067 6.41832 80.8057 6.22862ZM82.4061 5.54816C82.5896 5.43681 82.7401 5.26773 82.8539 5.04091C82.9677 4.81409 83.0265 4.54191 83.0265 4.22024C83.0265 3.89857 82.9714 3.62638 82.8613 3.40369C82.7512 3.18099 82.6043 3.01191 82.4245 2.90056C82.2409 2.78921 82.0464 2.73148 81.8372 2.73148C81.6279 2.73148 81.4334 2.78921 81.2535 2.90056C81.0737 3.01191 80.9305 3.18099 80.8277 3.40369C80.7213 3.62638 80.6699 3.89857 80.6699 4.22024C80.6699 4.69862 80.78 5.06566 80.9966 5.32959C81.2132 5.5894 81.4884 5.72137 81.8188 5.72137C82.028 5.72137 82.2263 5.66363 82.4098 5.55229L82.4061 5.54816Z" fill="white"/>
  <path d="M87.5264 2.15047C87.7613 2.29481 87.9485 2.50925 88.0843 2.79381C88.2202 3.07836 88.2899 3.42065 88.2899 3.8248V6.44354H87.4787V3.9609C87.4787 3.56499 87.3906 3.25982 87.2144 3.04537C87.0382 2.83505 86.7959 2.72783 86.4913 2.72783C86.1866 2.72783 85.9444 2.83505 85.7645 3.04537C85.5846 3.25569 85.4965 3.56087 85.4965 3.9609V6.44354H84.678V0.484375H85.4965V2.52163C85.636 2.33192 85.8122 2.18758 86.0251 2.08861C86.238 1.98551 86.4693 1.93602 86.7225 1.93602C87.0235 1.93602 87.2915 2.01025 87.5301 2.15459L87.5264 2.15047Z" fill="white"/>
  <path d="M92.1589 2.15021C92.4049 2.29455 92.5957 2.509 92.7352 2.79355C92.8747 3.07811 92.9444 3.4204 92.9444 3.82455V6.44328H92.1332V3.96064C92.1332 3.56474 92.0451 3.25956 91.8689 3.04512C91.6927 2.83479 91.4505 2.72757 91.1458 2.72757C90.8412 2.72757 90.5989 2.83479 90.419 3.04512C90.2392 3.25544 90.1511 3.56062 90.1511 3.96064V6.44328H89.3325V2.00587H90.1511V2.51312C90.2832 2.33167 90.4557 2.18733 90.665 2.08423C90.8742 1.98113 91.0944 1.93164 91.3294 1.93164C91.6414 1.93164 91.9203 2.00587 92.1663 2.15021H92.1589Z" fill="white"/>
  <path d="M94.5817 6.32369C94.3358 6.19585 94.1413 6.02676 93.9981 5.80819C93.8549 5.58962 93.7779 5.3463 93.7668 5.07824H94.6111C94.6258 5.26795 94.7065 5.42466 94.8497 5.54838C94.9965 5.67622 95.1764 5.73808 95.3966 5.73808C95.6169 5.73808 95.8041 5.68859 95.9325 5.58962C96.0573 5.49064 96.1234 5.3628 96.1234 5.20609C96.1234 5.04113 96.0537 4.91741 95.9105 4.83493C95.771 4.75245 95.5471 4.66585 95.2388 4.57099C94.9414 4.48027 94.6992 4.38954 94.5157 4.30706C94.3284 4.22045 94.1669 4.08848 94.0311 3.91115C93.8953 3.73382 93.8256 3.49876 93.8256 3.21008C93.8256 2.97501 93.888 2.75644 94.0128 2.56261C94.1376 2.36466 94.3138 2.21207 94.545 2.10072C94.7763 1.98937 95.0442 1.93164 95.3452 1.93164C95.793 1.93164 96.1564 2.05948 96.4317 2.31517C96.707 2.57086 96.8539 2.91727 96.8722 3.35854H96.0537C96.039 3.16059 95.9692 2.99975 95.8371 2.88428C95.7086 2.76469 95.5324 2.70695 95.3122 2.70695C95.0919 2.70695 94.9304 2.75231 94.8166 2.84304C94.7029 2.93377 94.6441 3.05336 94.6441 3.20595C94.6441 3.32555 94.6808 3.42452 94.7579 3.50288C94.835 3.58124 94.9268 3.64722 95.0369 3.69258C95.147 3.73795 95.3085 3.79568 95.5251 3.86579C95.8114 3.95239 96.0463 4.039 96.2299 4.12972C96.4134 4.21633 96.5712 4.3483 96.707 4.5215C96.8428 4.69471 96.9089 4.92153 96.9163 5.20609C96.9163 5.45765 96.8539 5.68447 96.7291 5.88242C96.6043 6.08037 96.4281 6.23708 96.2005 6.34843C95.9729 6.45978 95.7086 6.51751 95.4003 6.51751C95.0919 6.51751 94.8093 6.45565 94.5634 6.32781L94.5817 6.32369Z" fill="white"/>
  <path d="M98.5127 6.22862C98.2118 6.03892 97.9732 5.77086 97.8043 5.42444C97.6355 5.07803 97.5474 4.678 97.5474 4.22024C97.5474 3.76247 97.6355 3.3707 97.8117 3.02016C97.9878 2.66962 98.2301 2.40156 98.5348 2.21598C98.8394 2.02627 99.1808 1.93555 99.5589 1.93555C99.937 1.93555 100.278 2.0304 100.583 2.21598C100.888 2.40568 101.13 2.67374 101.306 3.02016C101.482 3.36657 101.57 3.77072 101.57 4.22024C101.57 4.66975 101.479 5.06978 101.299 5.42032C101.115 5.77086 100.869 6.03892 100.557 6.22862C100.245 6.41832 99.9003 6.51318 99.5222 6.51318C99.1441 6.51318 98.8137 6.41832 98.5127 6.22862ZM100.113 5.54816C100.297 5.43681 100.447 5.26773 100.561 5.04091C100.675 4.81409 100.733 4.54191 100.733 4.22024C100.733 3.89857 100.678 3.62638 100.568 3.40369C100.458 3.18099 100.311 3.01191 100.132 2.90056C99.948 2.78921 99.7534 2.73148 99.5442 2.73148C99.335 2.73148 99.1404 2.78921 98.9606 2.90056C98.7807 3.01191 98.6375 3.18099 98.5348 3.40369C98.4283 3.62638 98.3769 3.89857 98.3769 4.22024C98.3769 4.69862 98.487 5.06566 98.7036 5.32959C98.9202 5.5894 99.1955 5.72137 99.5259 5.72137C99.7351 5.72137 99.9333 5.66363 100.117 5.55229L100.113 5.54816Z" fill="white"/>
  <path d="M105.212 2.15021C105.458 2.29455 105.649 2.509 105.788 2.79355C105.928 3.07811 105.998 3.4204 105.998 3.82455V6.44328H105.186V3.96064C105.186 3.56474 105.098 3.25956 104.922 3.04512C104.746 2.83479 104.504 2.72757 104.199 2.72757C103.894 2.72757 103.652 2.83479 103.472 3.04512C103.292 3.25544 103.204 3.56062 103.204 3.96064V6.44328H102.386V2.00587H103.204V2.51312C103.336 2.33167 103.509 2.18733 103.718 2.08423C103.927 1.98113 104.148 1.93164 104.383 1.93164C104.695 1.93164 104.974 2.00587 105.219 2.15021H105.212Z" fill="white"/>
  <path d="M108.563 5.6226L109.683 2.00586H110.549L109.044 6.44327H108.068L106.57 2.00586H107.444L108.563 5.6226Z" fill="white"/>
  <path d="M111.21 1.2467C111.11 1.13536 111.059 0.995142 111.059 0.826059C111.059 0.656975 111.11 0.520882 111.21 0.40541C111.309 0.294062 111.433 0.236328 111.584 0.236328C111.734 0.236328 111.848 0.294062 111.951 0.40541C112.05 0.516758 112.102 0.656975 112.102 0.826059C112.102 0.995142 112.05 1.13123 111.951 1.2467C111.852 1.35805 111.727 1.41579 111.584 1.41579C111.441 1.41579 111.312 1.35805 111.21 1.2467ZM111.984 2.00552V6.44293H111.166V2.00552H111.984Z" fill="white"/>
  <path d="M113.878 0.480469V6.43963H113.06V0.480469H113.878Z" fill="white"/>
  <path d="M115.769 0.480469V6.43963H114.95V0.480469H115.769Z" fill="white"/>
  <path d="M120.438 4.56643H117.42C117.442 4.9211 117.56 5.20565 117.773 5.4201C117.986 5.63455 118.243 5.74177 118.547 5.74177C118.988 5.74177 119.296 5.53557 119.48 5.12317H120.361C120.239 5.53145 120.023 5.86549 119.711 6.1253C119.399 6.38511 119.01 6.51708 118.547 6.51708C118.169 6.51708 117.832 6.42223 117.534 6.23253C117.237 6.04282 117.002 5.77476 116.833 5.42835C116.664 5.08193 116.58 4.68191 116.58 4.22414C116.58 3.76638 116.661 3.36635 116.826 3.01994C116.991 2.67352 117.222 2.40546 117.52 2.21988C117.817 2.03018 118.162 1.93945 118.547 1.93945C118.933 1.93945 119.252 2.03018 119.542 2.21164C119.832 2.39309 120.06 2.64878 120.225 2.9787C120.386 3.30862 120.467 3.68802 120.467 4.11692C120.467 4.28188 120.456 4.43447 120.438 4.56643ZM119.612 3.82412C119.608 3.48595 119.498 3.21376 119.289 3.01169C119.08 2.80961 118.819 2.70652 118.507 2.70652C118.224 2.70652 117.982 2.80549 117.784 3.00757C117.582 3.20964 117.464 3.48182 117.424 3.82412H119.612Z" fill="white"/>
  <path d="M123.106 3.01603C123.271 2.66962 123.499 2.40156 123.789 2.21598C124.082 2.02627 124.416 1.93555 124.791 1.93555C125.268 1.93555 125.664 2.06339 125.976 2.31908C126.289 2.57477 126.501 2.93768 126.612 3.41194H125.731C125.657 3.19336 125.543 3.02016 125.386 2.89644C125.228 2.77272 125.029 2.71086 124.791 2.71086C124.457 2.71086 124.189 2.84283 123.991 3.11089C123.792 3.37482 123.693 3.7501 123.693 4.22849C123.693 4.70687 123.792 5.07803 123.991 5.35021C124.189 5.61827 124.457 5.75436 124.791 5.75436C125.264 5.75436 125.576 5.51929 125.731 5.05328H126.612C126.498 5.5028 126.281 5.86159 125.965 6.12964C125.65 6.39358 125.257 6.52967 124.791 6.52967C124.413 6.52967 124.079 6.43482 123.789 6.24512C123.499 6.05541 123.268 5.78735 123.106 5.44094C122.941 5.09452 122.86 4.6945 122.86 4.23673C122.86 3.77897 122.941 3.37894 123.106 3.03253V3.01603Z" fill="white"/>
  <path d="M128.135 6.22862C127.834 6.03892 127.599 5.77086 127.427 5.42444C127.254 5.07803 127.17 4.678 127.17 4.22024C127.17 3.76247 127.258 3.3707 127.434 3.02016C127.61 2.66962 127.852 2.40156 128.157 2.21598C128.462 2.02627 128.807 1.93555 129.181 1.93555C129.556 1.93555 129.901 2.0304 130.205 2.21598C130.51 2.40568 130.752 2.67374 130.928 3.02016C131.105 3.3707 131.193 3.77072 131.193 4.22024C131.193 4.66975 131.101 5.06978 130.921 5.42032C130.738 5.77086 130.492 6.03892 130.18 6.22862C129.868 6.41832 129.523 6.51318 129.144 6.51318C128.766 6.51318 128.436 6.41832 128.135 6.22862ZM129.735 5.54816C129.919 5.43681 130.069 5.26773 130.183 5.04091C130.297 4.81409 130.356 4.54191 130.356 4.22024C130.356 3.89857 130.301 3.62638 130.191 3.40369C130.08 3.18099 129.934 3.01191 129.754 2.90056C129.57 2.78921 129.376 2.73148 129.167 2.73148C128.957 2.73148 128.763 2.78921 128.583 2.90056C128.403 3.01191 128.26 3.18099 128.157 3.40369C128.051 3.62638 127.999 3.89857 127.999 4.22024C127.999 4.69862 128.109 5.06566 128.326 5.32959C128.542 5.59353 128.818 5.72137 129.148 5.72137C129.357 5.72137 129.556 5.66363 129.739 5.55229L129.735 5.54816Z" fill="white"/>
  <path d="M137.627 2.15021C137.873 2.29455 138.068 2.509 138.207 2.79355C138.347 3.07811 138.42 3.4204 138.42 3.82455V6.44328H137.609V3.96064C137.609 3.56474 137.521 3.25956 137.345 3.04512C137.168 2.83479 136.926 2.72757 136.622 2.72757C136.317 2.72757 136.075 2.83479 135.895 3.04512C135.715 3.25544 135.627 3.56062 135.627 3.96064V6.44328H134.816V3.96064C134.816 3.56474 134.728 3.25956 134.551 3.04512C134.375 2.83067 134.133 2.72757 133.828 2.72757C133.524 2.72757 133.278 2.83479 133.101 3.04512C132.922 3.25544 132.833 3.56062 132.833 3.96064V6.44328H132.015V2.00587H132.833V2.51312C132.969 2.33167 133.138 2.18733 133.344 2.08423C133.549 1.98113 133.769 1.93164 134.004 1.93164C134.32 1.93164 134.603 2.00587 134.849 2.15846C135.098 2.30692 135.289 2.52549 135.421 2.81005C135.542 2.54199 135.726 2.32754 135.979 2.17083C136.232 2.01412 136.504 1.93164 136.798 1.93164C137.11 1.93164 137.385 2.00587 137.635 2.15021H137.627Z" fill="white"/>
  <path d="M140.839 2.14196C141.078 2.00175 141.349 1.93164 141.65 1.93164C141.995 1.93164 142.307 2.02649 142.594 2.21619C142.876 2.4059 143.1 2.67396 143.265 3.01625C143.427 3.35854 143.508 3.75444 143.508 4.19983C143.508 4.64523 143.427 5.04525 143.265 5.39579C143.104 5.74633 142.88 6.02264 142.594 6.21646C142.311 6.41442 141.995 6.50927 141.65 6.50927C141.349 6.50927 141.081 6.43916 140.846 6.30307C140.612 6.16698 140.421 5.99377 140.274 5.79169V8.54652H139.455V1.99762H140.274V2.64921C140.413 2.44301 140.601 2.27393 140.839 2.13372V2.14196ZM142.506 3.41215C142.392 3.18946 142.245 3.02037 142.061 2.9049C141.878 2.78943 141.68 2.73169 141.471 2.73169C141.261 2.73169 141.07 2.78943 140.887 2.90902C140.703 3.02862 140.553 3.1977 140.443 3.42452C140.329 3.65134 140.274 3.91528 140.274 4.22045C140.274 4.52563 140.329 4.79369 140.443 5.02051C140.557 5.24733 140.703 5.42054 140.887 5.54013C141.07 5.65973 141.265 5.71746 141.471 5.71746C141.676 5.71746 141.878 5.6556 142.061 5.53601C142.245 5.41641 142.392 5.23908 142.506 5.00814C142.619 4.77719 142.674 4.50913 142.674 4.20396C142.674 3.89878 142.619 3.63485 142.506 3.41215Z" fill="white"/>
  <path d="M144.293 3.02016C144.458 2.67787 144.682 2.40981 144.969 2.2201C145.255 2.0304 145.567 1.93555 145.912 1.93555C146.224 1.93555 146.496 2.00565 146.727 2.14175C146.958 2.27784 147.145 2.45105 147.281 2.65312V2.00978H148.107V6.44719H147.281V5.78735C147.142 5.99768 146.955 6.17088 146.716 6.3111C146.477 6.45131 146.206 6.52142 145.897 6.52142C145.56 6.52142 145.248 6.42245 144.965 6.22862C144.682 6.03479 144.458 5.75849 144.293 5.40795C144.128 5.05741 144.047 4.65738 144.047 4.21199C144.047 3.7666 144.128 3.3707 144.293 3.0284V3.02016ZM147.109 3.42431C146.995 3.19749 146.848 3.0284 146.668 2.90881C146.488 2.78921 146.29 2.73148 146.081 2.73148C145.872 2.73148 145.673 2.78921 145.494 2.90469C145.314 3.02016 145.167 3.18924 145.053 3.41194C144.939 3.63463 144.884 3.89857 144.884 4.20374C144.884 4.50892 144.939 4.77698 145.053 5.00792C145.167 5.23886 145.314 5.41619 145.497 5.53579C145.681 5.65539 145.875 5.71725 146.081 5.71725C146.286 5.71725 146.488 5.65951 146.668 5.53991C146.852 5.42032 146.999 5.24711 147.109 5.02029C147.222 4.79347 147.278 4.52541 147.278 4.22024C147.278 3.91506 147.222 3.647 147.109 3.42431Z" fill="white"/>
  <path d="M152.005 2.15021C152.251 2.29455 152.442 2.509 152.581 2.79355C152.721 3.07811 152.791 3.4204 152.791 3.82455V6.44328H151.979V3.96064C151.979 3.56474 151.891 3.25956 151.715 3.04512C151.539 2.83067 151.297 2.72757 150.992 2.72757C150.687 2.72757 150.441 2.83479 150.265 3.04512C150.085 3.25544 149.997 3.56062 149.997 3.96064V6.44328H149.179V2.00587H149.997V2.51312C150.133 2.33167 150.302 2.18733 150.511 2.08423C150.72 1.98113 150.941 1.93164 151.176 1.93164C151.488 1.93164 151.767 2.00587 152.012 2.15021H152.005Z" fill="white"/>
  <path d="M157.387 2.00608L154.964 8.53023H154.12L154.924 6.36926L153.367 2.00195H154.278L155.39 5.38362L156.542 2.00195H157.387V2.00608Z" fill="white"/>
</svg>
