<svg width="91" height="65" viewBox="0 0 91 65" fill="none" xmlns="http://www.w3.org/2000/svg">
<g clip-path="url(#clip0_1962_14924)">
<path d="M91 52.2507C91 51.7288 90.6741 51.2889 90.2168 51.0945L88.4452 50.3526L88.6134 49.9024L89.1023 48.5876C89.2232 48.2653 89.3231 47.9481 89.4125 47.6257C89.649 46.7355 89.7647 45.8351 89.7647 44.9449C89.7647 43.0878 89.26 41.2613 88.2612 39.6088C84.8496 33.9555 80.4865 29.0697 75.3874 25.0945L73.1322 23.3396L75.5819 21.8508C77.0801 20.9402 78.3049 19.7123 79.1828 18.244L79.9135 17.0315L80.2762 17.098L81.3118 17.2924L81.5851 17.318C82.0267 17.3129 82.442 17.098 82.6838 16.7143C82.8152 16.5045 82.8678 16.2896 82.873 16.0645C82.873 15.6297 82.6523 15.2204 82.2475 14.9799L80.6862 14.059V12.8721C80.6862 11.281 80.3183 9.70523 79.577 8.2318C78.2891 5.68398 76.0971 3.80126 73.3372 2.87525C67.5548 0.951594 61.6146 0 55.7008 0C47.5317 0 39.4153 1.81621 31.856 5.42306C18.8193 11.6391 9.07845 22.3983 4.37364 35.7615C3.97412 36.8973 3.78488 38.0433 3.78488 39.1739C3.78488 42.3766 5.30408 45.4463 7.86413 47.4467L12.4007 50.9921H1.29317C0.578245 50.9921 0 51.56 0 52.2507C0 52.9465 0.583502 53.5092 1.29317 53.5092H10.7659L10.9078 53.7906L11.3283 54.6194C12.7897 57.4947 14.966 59.9402 17.7101 61.7615C20.9114 63.8796 24.628 64.9949 28.497 65H62.7238C66.5928 65 70.3093 63.8847 73.5107 61.7615C75.687 60.3188 77.5059 58.4821 78.8937 56.3538L79.4036 55.571L79.6454 55.5403L80.3498 55.4482C80.928 55.3715 81.501 55.2538 82.0687 55.085L83.425 54.6808L83.6458 54.9622L84.2924 55.7808L84.8654 56.5073C85.1282 56.8347 85.4962 56.9984 85.8957 57.0035C86.1743 57.0035 86.4371 56.9217 86.6789 56.7426C87.0154 56.4919 87.1783 56.1338 87.1836 55.7399V55.6171L87.0417 53.5144H89.7121C90.427 53.5144 91.0053 52.9465 91.0053 52.2558L91 52.2507ZM11.9802 46.8174L11.9486 46.8072L11.9171 46.7918C8.51597 45.6253 6.37647 42.5199 6.38172 39.1842C6.38172 38.3196 6.52366 37.4396 6.82855 36.5801C11.2863 23.8717 20.6013 13.5884 32.9915 7.68438C40.1775 4.25659 47.9207 2.52224 55.706 2.52224C61.3465 2.52224 67.0081 3.4329 72.4909 5.25935C74.5726 5.95002 76.281 7.41322 77.2483 9.34199C77.8055 10.4522 78.0946 11.6647 78.0946 12.8823C78.0946 13.7623 77.9422 14.6474 77.6478 15.4967C76.9381 17.5226 75.4347 19.1854 73.4582 20.1267C72.3122 20.6741 71.0716 20.9504 69.8205 20.9504C68.911 20.9504 68.0069 20.802 67.1343 20.5155C63.3757 19.2621 59.554 18.6686 55.7901 18.6686C49.3085 18.6686 43.0057 20.4286 37.5649 23.6312L36.8447 24.0559L33.6381 23.2987C32.7182 23.0838 31.793 22.9764 30.8783 22.9764C28.7756 22.9764 26.7097 23.534 24.8593 24.634C23.0404 25.7135 21.6053 27.2074 20.6434 28.9878L19.9021 30.3589L19.5079 30.2668L18.3514 29.9957L17.9624 29.9036L17.6575 29.8678C17.0793 29.8678 16.5431 30.2566 16.4011 30.8347L16.3643 31.1314C16.3643 31.6942 16.7639 32.2161 17.3526 32.3542L21.6632 33.3518H19.2818V34.3648C19.2976 36.3908 19.8706 38.381 20.9903 40.1665C21.1953 40.4939 21.4161 40.8111 21.6527 41.1129L22.4832 42.1822L22.3045 42.4738L21.7788 43.3333C20.2701 45.7839 17.5576 47.2523 14.6664 47.2523C13.778 47.2523 12.8738 47.109 11.9907 46.8174H11.9802ZM50.7174 41.0771C50.7174 40.3967 50.8015 39.6958 50.9749 39.0051C50.9749 39.0051 50.9907 38.9642 50.996 38.9386C52.0315 34.9532 55.706 32.2979 59.7537 32.303C60.3478 32.303 60.947 32.3747 61.541 32.4923H61.6252L61.683 32.5077L61.8617 32.5486L62.114 32.61C64.4428 33.1574 66.4456 34.5797 67.6915 36.5699C68.5588 37.9563 69.0109 39.527 69.0109 41.1283C69.0109 41.8241 68.9268 42.5199 68.7533 43.2054C68.1909 45.477 66.7295 47.4211 64.6846 48.6336C63.26 49.4778 61.6409 49.9229 60.0008 49.9178C59.2859 49.9178 58.571 49.8359 57.8666 49.6671L57.609 49.6057C53.4824 48.6285 50.7121 45.037 50.7121 41.072L50.7174 41.0771ZM52.4889 50.9921H16.869L21.4476 47.4416C22.2572 46.8174 22.9721 46.0756 23.5766 45.2416L24.5491 43.8859L24.9434 44.0598L26.0999 44.5663C26.757 44.8579 27.4456 45.0882 28.1658 45.257L35.8302 47.063L48.2624 49.9945L52.4994 50.9921H52.4889ZM51.427 33.183C49.9814 34.6206 48.9563 36.401 48.4569 38.4168C48.2362 39.3121 48.1258 40.2074 48.1258 41.0976C48.1258 42.218 48.2992 43.3231 48.6409 44.3975L49.7028 47.7485L28.7703 42.8115C26.4416 42.2641 24.4387 40.8418 23.1929 38.8516C22.3203 37.4652 21.8682 35.8894 21.8682 34.2932C21.8682 33.6025 21.9523 32.9067 22.1258 32.2161C22.1258 32.2161 22.1363 32.1905 22.1363 32.1751C22.7093 29.924 24.1601 27.9902 26.1945 26.7879C27.6191 25.9437 29.2382 25.4986 30.8783 25.4986C31.5932 25.4986 32.3081 25.5805 33.0125 25.7493L53.945 30.6812L51.4218 33.1881L51.427 33.183ZM74.6094 57.6072C71.5605 60.6718 67.313 62.4829 62.7238 62.4829H28.5022C23.5188 62.4829 18.9349 60.3495 15.8544 56.7887L13.0158 53.5144H72.4489L72.5803 53.5962L72.9588 53.8367C73.3057 54.0567 73.6737 54.2562 74.0469 54.4353L76.5649 55.6427L74.6094 57.6072ZM86.8997 46.9913V47.0118L86.8892 47.022C86.332 49.0787 84.9705 50.8386 83.078 51.913C81.7691 52.6651 80.3182 53.0232 78.8937 53.0232C76.055 53.0232 73.2847 51.5958 71.7444 49.048C71.4396 48.5415 71.1241 48.0453 70.793 47.5643L70.1832 46.6588L70.2988 46.4081L70.63 45.6714C70.8981 45.0779 71.1136 44.4538 71.2766 43.7989C71.4974 42.9036 71.6025 42.0185 71.6025 41.1385C71.6025 36.0531 68.0279 31.4026 62.7238 30.1543L39.226 24.6135L46.4804 22.5057C49.4662 21.6411 52.594 21.1806 55.7691 21.1806C59.2596 21.1806 62.8079 21.7332 66.2827 22.8894C66.8294 23.0736 67.3918 23.2117 67.9596 23.3089L68.3486 23.3754L68.4327 23.4266L68.685 23.575C75.7554 27.8264 81.7008 33.7202 86.0218 40.8776C86.7736 42.1208 87.1678 43.5277 87.1626 44.95C87.1626 45.6305 87.0732 46.316 86.8945 46.9862L86.8997 46.9913Z" fill="#4CA2B2"/>
</g>
<defs>
<clipPath id="clip0_1962_14924">
<rect width="91" height="65" fill="white"/>
</clipPath>
</defs>
</svg>
