<svg width="88" height="83" viewBox="0 0 88 83" fill="none" xmlns="http://www.w3.org/2000/svg">
<g clip-path="url(#clip0_1962_14926)">
<path d="M67.6847 6.10457C60.4443 2.04512 53.018 0 45.3688 0C40.7359 0 36.0287 0.751521 31.2286 2.26688C30.5907 2.464 29.9403 2.68577 29.1847 2.69193C29.0113 2.69193 28.8316 2.67961 28.652 2.65497C25.7534 2.2176 22.8423 1.99584 19.9189 1.99584C19.665 1.99584 19.411 1.99584 19.1509 1.99584C18.5006 1.99584 17.8564 1.97736 17.2247 1.97736C16.8468 1.97736 16.469 1.98352 16.0912 2.002C13.3598 2.14984 10.6779 2.47632 8.13851 3.43729C7.28378 3.75761 6.69538 4.06561 6.34854 4.37977C6.00788 4.69393 5.88401 4.95881 5.87782 5.37769C5.87782 5.84585 6.0884 6.51729 6.54054 7.41665C7.69257 9.73898 9.25338 11.7656 11.1548 13.5274C11.5017 13.8477 11.7556 14.1803 11.7618 14.6177C11.7618 15.0243 11.5389 15.3507 11.2416 15.6711C9.68694 17.3712 8.3491 19.25 7.15991 21.2336C3.31982 27.6708 0.966216 34.4837 0.966216 41.9312C0.966216 42.5102 0.978604 43.0893 1.00957 43.6745C1.28829 49.4218 2.47748 54.9843 4.39752 60.4051C4.53378 60.7993 4.6143 61.1689 4.6143 61.5385C4.6143 62.1237 4.4161 62.672 4.05687 63.2264C1.46791 67.2858 0.0185811 71.6964 0 76.5197V76.5505C0 77.1973 0.148649 77.6408 0.365428 77.9057C0.582207 78.1644 0.873311 78.3061 1.35023 78.3061C1.61655 78.3061 1.93243 78.2568 2.29167 78.1459C5.6982 77.1049 8.72072 75.3862 11.3592 73.0146C11.7494 72.6573 12.1768 72.4109 12.6785 72.4109C12.9882 72.4109 13.2917 72.4972 13.6199 72.645C16.7292 74.031 19.9932 74.7333 23.406 74.7333H23.7218C24.4713 74.7209 24.9916 74.5731 25.295 74.3575C25.5923 74.1357 25.7286 73.877 25.7348 73.4027C25.7348 73.107 25.6667 72.7313 25.5118 72.2939C23.8829 67.6616 21.0338 63.8916 17.2247 60.787C17.045 60.6392 16.8159 60.4852 16.6053 60.2511C16.3947 60.0232 16.2213 59.6905 16.1903 59.284C16.0912 58.0828 16.0355 56.8816 16.0355 55.6927C16.0355 51.8611 16.6053 48.0851 18.098 44.426C20.7365 37.9765 25.7782 33.8985 31.7798 30.9048C37.5833 28.0034 43.7956 26.3833 49.9583 24.6955C55.2725 23.2417 60.2832 21.2151 64.3587 17.4698C67.0405 14.9935 68.8243 12.1167 68.9977 8.40842V8.23594C68.9977 7.72465 68.8987 7.33657 68.6943 7.00393C68.4899 6.67129 68.1678 6.38177 67.6909 6.11073L67.6847 6.10457ZM9.96565 7.52137C9.76126 7.21337 9.625 6.95465 9.61881 6.64665C9.60642 6.36329 9.79223 6.09225 10.0028 5.96289C10.2134 5.82737 10.4488 5.75345 10.7337 5.69185C13.1368 5.16209 15.5586 4.92185 17.9865 4.92185C19.5039 4.92185 21.0276 5.01425 22.5574 5.19289L23.6971 5.32225L22.7309 5.93825C19.9685 7.70002 17.3733 9.5665 15.0321 11.7471C14.8153 11.9443 14.58 12.1044 14.2703 12.1106C13.911 12.1044 13.6819 11.9011 13.4713 11.704C12.1582 10.4289 10.9876 9.0429 9.96565 7.52753V7.52137ZM65.8204 10.0285C65.0586 12.6342 63.411 14.5869 61.3671 16.1885C57.2793 19.3979 52.4854 21.0056 47.6109 22.2808C41.4296 23.9008 35.335 25.7181 29.674 28.6441C23.6042 31.7795 18.6182 35.956 15.732 42.2515C13.7066 46.6559 13.0873 51.2698 13.0873 56.013C13.0873 57.1033 13.1182 58.206 13.1802 59.3086C13.2793 61.0026 13.8491 62.0005 15.2427 63.0416C18.0236 65.0867 20.1791 67.7417 21.7337 71.0249L22.031 71.6533L21.3373 71.604C18.451 71.413 15.9488 70.526 13.558 69.3741C12.7466 68.9798 12.2759 68.795 12.0034 68.8073C11.8238 68.8073 11.6813 68.8566 11.4398 69.0168C11.2044 69.1769 10.9009 69.4541 10.4921 69.8545C8.39865 71.8935 6.01408 73.5136 3.80912 74.3452L3.35079 74.5177L3.26408 74.0433C3.23311 73.877 3.22072 73.7169 3.22072 73.5752C3.22072 72.8729 3.46227 72.2816 3.58615 71.758C4.317 68.7827 5.58052 66.0353 7.40766 63.5652C7.80405 63.0231 7.97748 62.5611 7.97748 62.056C7.97748 61.7418 7.90935 61.3968 7.7607 61.0026C5.66104 55.4894 4.24268 49.7852 3.98255 43.8654C3.95777 43.2987 3.94538 42.7382 3.94538 42.1838C3.94538 32.4448 7.68018 23.9809 14.2269 16.7984C22.5884 7.58914 32.9876 2.99993 45.0591 3.00609C46.4217 3.00609 47.8029 3.06153 49.2027 3.17857C54.7584 3.63441 59.9859 5.31609 64.9037 7.92794C65.2134 8.09426 65.4673 8.2729 65.6532 8.50698C65.839 8.74106 65.9381 9.0429 65.9319 9.34474C65.9319 9.5665 65.8885 9.78826 65.8204 10.0285Z" fill="#DB577B"/>
<path d="M49.257 71.334H49.1394C48.7368 71.334 48.3651 71.2786 48.0678 71.026C47.7767 70.7673 47.6591 70.41 47.5909 69.9911C47.0273 66.5354 45.0082 64.2438 41.9113 62.6422C41.5583 62.4636 41.23 62.365 40.9451 62.3712C40.6354 62.3712 40.3753 62.4636 40.0966 62.7285C37.7739 64.9707 36.1512 67.4902 36.0397 70.755C36.0335 70.9336 36.0459 71.1554 35.9901 71.4079C35.9406 71.6605 35.7796 71.95 35.507 72.1533C32.9119 74.106 31.9581 76.8903 31.4997 80.0443L31.4688 80.42C31.4688 80.7773 31.5555 81.0422 31.7103 81.2701C31.8713 81.498 32.1253 81.7013 32.5031 81.8738C34.1568 82.6253 35.7486 83.0072 37.2908 83.0072C39.5144 83.0072 41.6388 82.2188 43.6765 80.5371C44.1596 80.1367 44.6613 79.8903 45.2249 79.8964C45.5222 79.8964 45.8257 79.958 46.1478 80.0689C49.4243 81.1839 52.7441 81.7259 56.1197 81.7259C57.8477 81.7259 59.5943 81.5843 61.3533 81.3009C76.5279 78.8739 87.9986 65.5559 87.9986 50.3099C87.9986 44.4209 86.1095 37.5587 83.0375 32.0454C81.9907 30.1851 80.4671 29.3474 78.386 29.1564C78.0391 29.1256 77.6985 29.1133 77.3578 29.1133C74.806 29.1133 72.4338 29.9264 70.167 31.2077C67.7081 32.5998 65.6022 34.3185 64.2953 36.8133C63.7812 37.7927 63.4468 38.7968 63.4468 39.7455C63.4468 40.5093 63.6574 41.2485 64.1715 41.9692C66.4198 45.1108 67.3302 48.505 67.3302 52.0716C67.3302 53.2112 67.2373 54.3632 67.0701 55.5397C65.7942 64.3978 58.2441 71.0938 49.2694 71.3402H49.2632L49.257 71.334ZM44.8533 71.5126V71.525C44.8038 76.0341 41.8308 79.5699 37.8173 79.9888C37.4642 80.0258 37.0555 80.0812 36.6405 80.0812C36.3308 80.0812 36.0149 80.0504 35.7114 79.9519C35.4141 79.8533 35.123 79.6623 34.9186 79.3667C34.7762 79.1572 34.7142 78.917 34.7204 78.6952C34.7204 78.301 34.8691 77.9499 35.0239 77.6172C35.185 77.2846 35.3708 76.9704 35.4947 76.7179C36.0645 75.5167 36.944 74.5311 38.2447 73.989C38.6472 73.8227 38.9012 73.6194 39.0622 73.4038C39.2233 73.182 39.3038 72.9356 39.3038 72.5968C39.3038 72.3935 39.2728 72.1594 39.2047 71.9069C39.087 71.4634 39.0374 71.0383 39.0374 70.6256C39.0374 68.9932 39.855 67.6195 40.7841 66.3629C40.9451 66.1288 41.1928 65.944 41.4778 65.944C41.7193 65.944 41.8865 66.061 41.998 66.1411L42.252 66.3567C43.9986 67.7366 44.7728 69.6215 44.8471 71.5003L44.8533 71.5126ZM81.5571 38.341C81.743 38.1439 81.8606 38.1254 82.0031 38.0268L82.4181 37.7558L82.6101 38.2116C83.7002 40.8666 84.3319 43.577 84.7531 46.3244C84.9513 47.618 85.0442 48.9116 85.0442 50.2052C85.0442 51.9176 84.8832 53.6301 84.5859 55.3365C84.5054 55.7985 84.3505 56.1804 84.0594 56.4637C83.7621 56.7409 83.3843 56.8703 82.9445 56.9504C81.9102 57.129 80.9006 57.2276 79.9034 57.2276C76.8438 57.2276 73.9637 56.3282 71.3438 54.3755C70.712 53.932 70.3466 53.2913 70.3651 52.4905V52.4043C70.3651 52.2195 70.3651 52.0347 70.3651 51.856C70.3651 49.7924 70.0678 47.7658 69.4051 45.8069C69.337 45.5975 69.2874 45.4127 69.2874 45.2217C69.2751 44.9753 69.4175 44.6796 69.6467 44.5564C69.8635 44.4271 70.0802 44.3901 70.3404 44.3593C74.8927 43.8357 78.5904 41.8091 81.5634 38.3348L81.5571 38.341ZM67.2311 40.9836C66.748 40.6879 66.4569 40.1767 66.4693 39.6099C66.4693 39.0247 66.7295 38.4087 67.1878 37.7311C69.2379 34.7189 72.2233 33.0434 75.6979 32.2795C76.2801 32.1502 76.8747 32.0516 77.4941 32.0516C77.971 32.0516 78.4603 32.1132 78.9496 32.2672C79.377 32.4027 79.7238 32.569 79.9901 32.8278C80.2565 33.0865 80.4051 33.4499 80.3989 33.8257C80.3989 34.1091 80.3308 34.4109 80.2131 34.7312C79.7672 35.9509 78.962 36.918 78.0453 37.7496C75.6422 39.9179 72.824 41.2423 69.5352 41.4579H69.5228H69.5104H69.1388H69.1264C68.3398 41.4271 67.7081 41.2855 67.2311 40.9836ZM64.3449 67.6195L64.6422 67.2992C66.9648 64.7182 68.5504 61.749 69.4733 58.4103L69.56 58.0592C69.6033 57.9237 69.6467 57.7573 69.8139 57.5972C69.9254 57.4925 70.0988 57.4185 70.266 57.4247C70.5014 57.4247 70.6872 57.5171 70.9102 57.6526C73.6726 59.3897 76.6208 60.1844 79.8539 60.1844C80.752 60.1844 81.6686 60.1228 82.6101 59.9996L83.2976 59.9072L83.0375 60.5478C80.6962 66.369 76.9552 70.8474 71.8578 74.1923C71.5419 74.3955 71.2013 74.4695 70.8978 74.4695C70.6686 74.4695 70.4519 74.4325 70.2537 74.3955C66.9586 73.7426 65.1377 71.1492 64.2086 68.6298L64.1281 68.2232C64.1281 67.9645 64.2396 67.7427 64.3511 67.601L64.3449 67.6195ZM60.3561 70.8782C60.6349 70.6934 60.8888 70.5455 61.2109 70.5394C61.4462 70.5394 61.6754 70.6502 61.8302 70.8042C61.9851 70.9582 62.0966 71.1492 62.2081 71.3771C63.1495 73.3114 64.5679 74.8637 66.5251 76.145L67.1568 76.5577L66.4569 76.8534C64.1343 77.8513 61.8612 78.3379 59.5695 78.5905C58.4423 78.7137 57.3212 78.7815 56.2064 78.7815C53.5183 78.7815 50.855 78.4119 48.2413 77.6111C48.2227 77.5987 48.0555 77.5864 47.8697 77.5741C47.6838 77.5495 47.4485 77.5371 47.2069 77.3585C47.0459 77.2353 46.9344 77.0012 46.9406 76.7795L47.0149 76.3914C47.0831 76.2066 47.1078 75.8924 47.176 75.5598C47.2441 75.2333 47.3865 74.8267 47.7705 74.5618C48.0245 74.3894 48.3528 74.3031 48.743 74.297C50.5082 74.2723 52.261 74.0259 53.9828 73.5824C56.2621 72.991 58.4299 72.1656 60.3623 70.872L60.3561 70.8782Z" fill="#DB577B"/>
<path d="M39.935 7.38116H39.8483C39.458 7.38116 39.1546 7.51052 38.9006 7.76924C38.6529 8.0218 38.4547 8.41604 38.3742 8.93964C38.306 9.3462 38.2812 9.75892 38.2812 10.1716C38.2812 10.9663 38.3865 11.7671 38.5104 12.5802C38.9068 15.0504 39.8978 17.1325 41.9665 18.5862C42.2638 18.7957 42.5859 18.8881 42.8832 18.8881C43.3229 18.8881 43.7379 18.6909 44.029 18.309C44.2396 18.0257 44.3511 17.6992 44.3511 17.3912C44.3511 16.9969 44.19 16.6335 43.8308 16.3563C42.7717 15.5555 42.1399 14.5637 41.7807 13.5165C41.4153 12.4632 41.3162 11.3544 41.279 10.2456V10.2209V10.2086C41.2976 9.80204 41.3224 9.48172 41.3285 9.16756V9.11828C41.3285 8.56388 41.1737 8.145 40.9383 7.85548C40.6968 7.57212 40.3747 7.39964 39.9288 7.375L39.935 7.38116Z" fill="#DB577B"/>
<path d="M50.0786 11.4153C50.8404 11.4153 51.5094 10.7685 51.5217 9.96774V9.93078C51.5032 9.08069 50.9643 8.53245 50.091 8.50781H50.0724H50.06C49.2177 8.50781 48.5921 9.12381 48.5859 9.91846V9.93693C48.5859 10.7008 49.2796 11.4153 50.0415 11.4215H50.0724L50.0786 11.4153Z" fill="#DB577B"/>
</g>
<defs>
<clipPath id="clip0_1962_14926">
<rect width="88" height="83" fill="white"/>
</clipPath>
</defs>
</svg>
